<svg width="813" height="534" viewBox="0 0 813 534" fill="none" xmlns="http://www.w3.org/2000/svg">
<g clip-path="url(#clip0_16_1035)">
<path d="M180.75 343.074L171.855 346.581L244.304 530.517L253.199 527.009L180.75 343.074Z" fill="#E6E6E6"/>
<path d="M121.925 527.009L130.82 530.517L203.269 346.581L194.374 343.074L121.925 527.009Z" fill="#E6E6E6"/>
<path d="M183.844 376.692C218.753 376.692 247.053 365.746 247.053 352.244C247.053 338.742 218.753 327.797 183.844 327.797C148.935 327.797 120.635 338.742 120.635 352.244C120.635 365.746 148.935 376.692 183.844 376.692Z" fill="#E6E6E6"/>
<path d="M145.492 70.509C146.925 79.474 151.857 87.503 159.204 92.831C166.552 98.159 175.713 100.349 184.674 98.9201C185.689 98.7581 186.69 98.551 187.676 98.298C195.958 96.202 203.155 91.081 207.854 83.943C212.552 76.806 214.412 68.167 213.067 59.727C212.642 57.04 211.895 54.414 210.842 51.906C207.612 44.178 201.663 37.904 194.121 34.271C186.579 30.637 177.967 29.896 169.915 32.188C161.864 34.48 154.932 39.646 150.431 46.708C145.93 53.77 144.173 62.238 145.492 70.509Z" fill="#FFB6B6"/>
<path d="M329.964 503.339L345.332 498.767L335.167 435.916L312.487 442.664L329.964 503.339Z" fill="#FFB6B6"/>
<path d="M235.723 478.531C236.659 479.346 237.596 480.151 238.544 480.958C240.429 482.57 242.339 484.164 244.252 485.737C245.214 486.524 246.186 487.313 247.149 488.09L247.144 488.121L247.205 488.142L247.225 488.156L248.777 488.811L252.067 483.047L253.584 480.393L255.728 476.632L259.657 469.754L280.34 433.536L258.552 424.347L257.152 427.687L257.141 427.686L256.449 429.341L243.438 460.232L240.782 466.548L240.698 466.739L239.101 470.51L237.723 473.779L236.188 477.431L235.723 478.531Z" fill="#FFB6B6"/>
<path d="M121.881 321.789C122.953 324.327 124.058 326.859 125.176 329.371C127.254 334.048 129.415 338.674 131.66 343.248C131.658 343.259 131.668 343.26 131.677 343.272C133.119 345.106 134.769 346.765 136.595 348.217C136.669 348.293 136.757 348.35 136.833 348.416C138.18 349.466 139.652 350.347 141.215 351.037C141.779 351.277 142.354 351.518 142.918 351.758C144.958 352.598 146.988 353.361 149.017 354.07C152.626 355.32 156.23 356.379 159.829 357.247C160.117 357.325 160.408 357.393 160.698 357.461C175.539 360.942 190.436 361.484 206.152 360.994C213.912 360.76 221.873 360.268 230.118 359.756C232.813 359.58 235.517 359.417 238.253 359.258C238.459 359.248 238.677 359.229 238.894 359.22C242.802 358.989 246.772 358.779 250.835 358.594C255.948 358.361 261.214 358.184 266.672 358.091L265.109 365.516C263.883 371.224 261.788 376.711 258.898 381.783C255.582 388.059 252.957 393.024 255.014 404.553L256.002 410.133C254.64 412.611 253.87 415.371 253.753 418.196C253.636 421.021 254.176 423.835 255.328 426.417L255.608 427.031L234.282 463.158L232.9 465.501L240.696 466.736L250.285 468.266L266.538 470.842L297.44 427.484L298.919 425.415L298.937 425.299L310.834 334.45C310.929 333.648 310.994 332.829 311.015 332.015C311.162 328.32 310.571 324.633 309.279 321.168C307.986 317.704 306.017 314.532 303.485 311.838C301.063 309.238 298.148 307.145 294.91 305.683C291.672 304.22 288.176 303.416 284.624 303.317L276.433 303.084L259.697 302.606L247.908 302.277L247.672 302.271L212.905 301.282L212.039 290.921L211.614 290.681L198.103 283.148L151.375 257.093L151.256 257.031L148.182 255.317L147.694 255.885C147.549 256.056 147.403 256.227 147.268 256.399C143.127 261.673 139.536 267.357 136.549 273.361C131.574 283.155 127.162 293.224 123.332 303.519C123.164 303.966 123.014 304.373 122.88 304.739L122.831 304.85C122.771 305.023 122.732 305.135 122.716 305.165C120.818 309.75 120.695 315.693 121.881 321.789Z" fill="#2F2E41"/>
<path d="M125.064 288.119C125.328 287.472 125.636 286.821 125.95 286.193C128.409 281.447 131.127 276.841 134.093 272.395C137.433 267.328 141.328 261.951 145.867 256.181C148.062 253.387 150.406 250.49 152.9 247.492C154.148 245.989 155.441 244.461 156.777 242.908C156.831 242.836 156.888 242.766 156.95 242.699L157.333 242.243L205.377 256.594L219.432 261.896L222.916 271.222L222.821 273.521C222.832 273.523 222.832 273.523 222.82 273.532L222.58 279.8L222.579 279.81L222.268 288.091L222.354 288.094L250.034 288.875L278.559 289.683L293.881 290.12C297.433 290.218 300.929 291.022 304.168 292.484C307.406 293.947 310.321 296.04 312.743 298.641C315.273 301.336 317.242 304.508 318.535 307.972C319.827 311.436 320.418 315.123 320.272 318.818C320.25 319.568 320.193 320.334 320.107 321.084L328.955 356.913C334.252 378.342 336.286 400.447 334.989 422.483L340.117 457.357L338.616 457.259L316.278 455.817L310.379 455.442L300.538 434.716C299.417 432.354 298.379 429.94 297.444 427.489C295.9 423.483 294.613 419.382 293.59 415.212L276.337 344.894C274.139 344.922 271.964 344.936 269.813 344.936C259.858 344.973 250.337 344.78 241.251 344.359C211.704 343.002 186.524 339.27 164.579 332.973C158.416 331.21 152.5 329.24 146.832 327.061C144.753 326.268 142.707 325.446 140.695 324.592C140.22 324.399 139.755 324.207 139.293 324.004C135.133 322.198 131.493 319.377 128.706 315.799C125.918 312.221 124.072 308.001 123.336 303.525C122.433 298.329 123.033 292.984 125.064 288.119Z" fill="#2F2E41"/>
<path d="M326.946 492.86L343.575 487.898L346.183 487.116L348.549 497.242L374.636 507.478C375.926 507.983 377.02 508.887 377.76 510.059C378.5 511.231 378.846 512.609 378.747 513.991C378.648 515.374 378.11 516.688 377.212 517.743C376.313 518.798 375.101 519.537 373.752 519.854L345.636 526.45L338.447 517.573L338.9 528.03L328.31 530.517L322.904 494.071L326.946 492.86Z" fill="#2F2E41"/>
<path d="M234.282 463.158L232.9 465.501L233.887 465.657L234.282 463.158Z" fill="#2F2E41"/>
<path d="M239.185 467.044L254.491 475.224L256.893 476.506L251.454 485.366L262.793 511.005C263.354 512.272 263.496 513.685 263.198 515.039C262.899 516.392 262.176 517.615 261.134 518.528C260.091 519.44 258.784 519.996 257.404 520.113C256.024 520.23 254.642 519.902 253.462 519.177L228.844 504.07L229.978 492.701L222.947 500.45L213.673 494.762L235.461 465.058L239.185 467.044Z" fill="#2F2E41"/>
<path d="M346.237 268.352C344.609 268.851 342.892 268.986 341.206 268.749C339.52 268.512 337.906 267.908 336.479 266.979C335.052 266.051 333.845 264.82 332.945 263.375C332.044 261.929 331.471 260.304 331.266 258.613L290.821 249.844L306.194 234.797L342.244 245.431C345.106 245.275 347.926 246.175 350.169 247.96C352.413 249.745 353.924 252.292 354.416 255.117C354.908 257.942 354.347 260.85 352.84 263.29C351.332 265.729 348.983 267.53 346.237 268.352Z" fill="#FFB6B6"/>
<path d="M227.452 249.447L152.794 185.612C146.882 180.545 143.22 173.339 142.611 165.574C142.002 157.81 144.497 150.12 149.548 144.194C152.348 140.916 155.834 138.294 159.761 136.516C163.687 134.738 167.956 133.847 172.266 133.905C176.575 133.964 180.819 134.971 184.695 136.855C188.572 138.738 191.986 141.453 194.697 144.806L249.523 212.638L323.061 232.503L321.154 256.807L227.452 249.447Z" fill="#FFAC63"/>
<path d="M140.383 183.912L138.801 241.85C117.041 278.633 114.566 296.495 120.589 306.019L221.583 272.035L223.091 268.433L216.245 243.826L224.716 217.115C226.207 214.324 246.457 197.176 227.475 164.65L189.286 113.176L175.48 112.064C170.435 125.019 162.743 131.446 153.654 134.433C133.102 153.281 136.121 156.348 140.383 183.912Z" fill="#FFAC63"/>
<path d="M217.509 45.8228C216.978 47.3278 216.143 48.7058 215.055 49.8728C213.967 51.0398 212.651 51.9699 211.188 52.6049C208.855 50.4019 206.331 48.4099 203.646 46.6529C204.813 49.0229 205.769 51.4908 206.503 54.0288C206.45 54.0398 206.408 54.0398 206.355 54.0498C201.51 54.6988 196.645 53.4979 191.907 52.3069L192.566 52.9128C192.606 56.7128 191.562 60.4459 189.556 63.6729C187.55 66.8999 184.666 69.4878 181.241 71.1318C177.449 72.8748 172.445 74.0869 171.51 78.1469C170.682 81.7399 173.794 84.9598 176.79 87.0968C179.786 89.2328 183.291 91.5718 183.78 95.2278C184.566 101.181 176.939 104.954 175.643 110.811C174.517 115.828 178.394 120.611 182.654 123.481C186.914 126.351 191.928 128.328 195.221 132.282C201.054 139.287 199.173 150.458 193.161 157.314C192.51 158.06 191.814 158.767 191.078 159.429C189.432 157.348 187.631 155.394 185.692 153.583C183.359 151.38 180.835 149.388 178.15 147.631C179.317 150.001 180.273 152.469 181.007 155.007C181.967 158.264 182.576 161.613 182.824 164.999C178.493 167.056 173.952 168.635 169.279 169.708C157.516 172.588 145.412 173.833 133.309 173.407C127.78 173.32 122.284 172.542 116.949 171.089C119.391 163.368 120.106 155.203 119.042 147.174C116.015 154.229 111.333 160.449 105.391 165.307C100.408 161.385 96.7117 155.826 96.0947 149.565C95.3407 141.87 99.2077 134.514 103.5 128.083C107.802 121.653 112.753 115.381 114.644 107.888C117.406 96.9608 113.188 85.5979 112.646 74.3419C112.303 67.2629 113.425 60.1888 115.94 53.5638C118.456 46.9388 122.312 40.9048 127.266 35.8398C132.221 30.7748 138.167 26.7878 144.733 24.1288C151.299 21.4698 158.342 20.1969 165.423 20.3879C171.806 20.7619 178.14 21.7288 184.343 23.2788C187.711 24.0018 191.068 24.7349 194.435 25.4579C198.599 26.2299 202.682 27.3899 206.631 28.9229C210.073 30.2669 213.097 32.5008 215.395 35.3958C216.525 36.8538 217.304 38.5539 217.67 40.3619C218.037 42.1709 217.982 44.0398 217.509 45.8228Z" fill="#2F2E41"/>
<path d="M356.446 201.687C356.619 201.167 356.678 200.616 356.62 200.071C356.562 199.526 356.388 198.999 356.11 198.527C355.832 198.055 355.456 197.648 355.007 197.333C354.558 197.019 354.047 196.804 353.509 196.704C353.31 196.661 353.107 196.636 352.903 196.628L328.344 195.994C327.793 195.988 327.247 196.098 326.741 196.317C326.235 196.535 325.78 196.857 325.406 197.262C325.062 197.189 324.712 197.152 324.36 197.153C322.817 197.116 321.322 197.693 320.205 198.758C319.087 199.822 318.437 201.288 318.399 202.831C318.36 204.375 318.935 205.871 319.998 206.99C321.061 208.11 322.525 208.761 324.068 208.801C324.947 208.819 325.82 208.64 326.622 208.276L328.881 232.45C329.098 233.244 329.567 233.947 330.217 234.453C330.866 234.96 331.662 235.242 332.486 235.258L348.452 235.669C349.269 235.684 350.07 235.439 350.739 234.969C351.409 234.5 351.913 233.831 352.178 233.057L356.446 201.687ZM324.118 207.134C323.016 207.105 321.971 206.64 321.211 205.841C320.451 205.042 320.038 203.974 320.064 202.871C320.09 201.768 320.552 200.72 321.348 199.958C322.145 199.195 323.211 198.779 324.314 198.802C324.392 198.802 324.46 198.839 324.538 198.84C324.364 199.507 324.368 200.209 324.551 200.874L326.158 206.635C325.536 206.984 324.831 207.156 324.118 207.134Z" fill="#FFAC63"/>
<path d="M353.509 196.704C352.986 199.697 347.103 201.802 340.03 201.436C333.525 201.136 328.207 198.851 327.232 196.142C327.593 196.036 327.968 195.985 328.344 195.994L352.903 196.628C353.107 196.636 353.31 196.661 353.509 196.704Z" fill="white"/>
<path d="M344.405 242.439C342.838 243.106 341.144 243.421 339.443 243.363C337.742 243.304 336.074 242.873 334.557 242.099C333.04 241.326 331.711 240.229 330.664 238.886C329.616 237.543 328.876 235.987 328.495 234.327L287.353 229.856L301.061 213.277L338.028 220.064C340.858 219.608 343.757 220.207 346.175 221.746C348.593 223.286 350.363 225.66 351.149 228.418C351.935 231.176 351.683 234.126 350.44 236.711C349.197 239.295 347.049 241.333 344.405 242.439Z" fill="#FFB6B6"/>
<path d="M224.292 236.121L143.347 180.484C136.935 176.067 132.537 169.285 131.117 161.627C129.696 153.969 131.37 146.061 135.771 139.636C138.211 136.082 141.404 133.109 145.122 130.928C148.839 128.747 152.992 127.412 157.283 127.017C161.575 126.622 165.901 127.178 169.954 128.644C174.007 130.11 177.687 132.451 180.734 135.501L242.378 197.196L317.594 209.223L318.249 233.594L224.292 236.121Z" fill="#FFAC63"/>
<path d="M610.502 336.65L600.969 340.41L678.617 537.542L688.15 533.783L610.502 336.65Z" fill="#E6E6E6"/>
<path d="M547.457 533.783L556.991 537.542L634.638 340.41L625.105 336.65L547.457 533.783Z" fill="#E6E6E6"/>
<path d="M613.819 372.68C651.232 372.68 681.562 360.95 681.562 346.479C681.562 332.008 651.232 320.277 613.819 320.277C576.405 320.277 546.075 332.008 546.075 346.479C546.075 360.95 576.405 372.68 613.819 372.68Z" fill="#E6E6E6"/>
<path d="M670.347 357.616L561.96 344.61C556.954 344.009 552.115 342.427 547.719 339.955C543.324 337.483 539.458 334.169 536.343 330.203C533.227 326.236 530.923 321.694 529.562 316.836C528.201 311.979 527.809 306.9 528.41 301.891C529.01 296.882 530.591 292.04 533.061 287.642C535.532 283.244 538.844 279.377 542.809 276.259C546.773 273.142 551.313 270.837 556.168 269.475C561.023 268.113 566.098 267.721 571.104 268.322L679.491 281.329C689.602 282.542 698.817 287.724 705.108 295.736C711.4 303.747 714.254 313.931 713.041 324.047C711.829 334.164 706.649 343.384 698.642 349.679C690.636 355.974 680.457 358.829 670.347 357.616Z" fill="#2F2E41"/>
<path d="M649.097 84.8848L664.983 100.303L685.289 109.316C683.516 110.544 674.166 236.593 686.213 241.839C696.47 246.306 686.016 250.001 686.371 260.399C686.725 270.796 688.052 292.183 688.052 292.183C631.673 313.899 609.789 316.003 577.016 278.741C576.79 276.652 577.284 274.549 578.416 272.78C579.549 271.01 581.252 269.681 583.242 269.013C590.51 266.205 579.408 247.699 585.331 245.538C591.255 243.377 586.344 217.878 586.344 217.878L573.728 160.424L570.64 151.745L586.58 102.822L604.571 98.5918L613.446 82.8198L649.097 84.8848Z" fill="#E6E6E6"/>
<path d="M436.692 201.313C438.418 199.897 440.433 198.877 442.595 198.325C444.757 197.772 447.014 197.701 449.206 198.116C451.399 198.53 453.474 199.421 455.286 200.725C457.097 202.029 458.601 203.715 459.69 205.663L513.092 196.145L501.942 222.047L452.94 227.115C449.548 228.73 445.681 229.044 442.072 227.997C438.464 226.95 435.365 224.615 433.362 221.435C431.36 218.254 430.592 214.449 431.206 210.741C431.82 207.032 433.772 203.678 436.692 201.313Z" fill="#A0616A"/>
<path d="M491.909 223.988C496.595 228.834 501.2 228.252 505.738 223.223L569.286 219.707L569.481 219.337C569.705 218.913 583.097 193.531 594.975 169.774C596.804 166.116 598.598 162.496 600.302 159.011C601.037 157.507 601.754 156.032 602.453 154.584C607.169 144.814 610.926 136.555 612.394 132.217C615.789 122.507 615.763 111.927 612.32 102.234L612.221 102L612.001 101.872C607.49 99.2879 602.233 98.3179 597.098 99.1239C591.962 99.9299 587.255 102.463 583.751 106.305C566.933 124.944 554.676 147.24 547.946 171.432L544.133 185.197L504.801 194.945C500.789 192.779 497.328 193.316 494.605 197.472L491.909 223.988Z" fill="#E6E6E6"/>
<path d="M553.649 484.69L567.145 497.012L621.068 450.788L601.148 432.603L553.649 484.69Z" fill="#FFB6B6"/>
<path d="M554.227 477.137L558.026 480.606L578.36 488.112L580.806 501.404L580.807 501.405C585.299 505.506 587.979 511.225 588.256 517.304C588.534 523.382 586.388 529.322 582.289 533.817L581.787 534.367L538.269 494.636L554.227 477.137Z" fill="#2F2E41"/>
<path d="M655.891 340.886L644.242 318.38C645.215 295.591 664.971 277.786 687.655 280.057C700.287 281.322 711.881 288.848 716 310.091C726.591 364.714 598.816 472.83 598.816 472.83L576.625 457.945L576.128 443.07L589.138 435.698L589.618 423.046L601.959 417.739L655.891 340.886Z" fill="#2F2E41"/>
<path d="M656.222 45.1418C658.063 25.9838 644.033 8.95982 624.886 7.11782C605.738 5.27682 588.724 19.3138 586.884 38.4718C585.043 57.6298 599.073 74.6538 618.22 76.4948C637.367 78.3368 654.381 64.2998 656.222 45.1418Z" fill="#A0616A"/>
<path d="M649.595 481.272L634.345 491.34L588.277 437.277L610.784 422.418L649.595 481.272Z" fill="#FFB6B6"/>
<path d="M663.238 493.495L614.066 525.958L613.655 525.336C610.306 520.257 609.111 514.055 610.332 508.094C611.552 502.133 615.09 496.902 620.165 493.55H620.166L624.652 480.801L645.907 476.556L650.199 473.722L663.238 493.495Z" fill="#2F2E41"/>
<path d="M579.895 338.703L594.314 315.247C596.901 292.584 580.158 271.917 557.397 270.626C544.722 269.906 532.098 275.533 524.722 295.875C505.757 348.181 615.139 474.892 615.139 474.892L639.376 463.647L642.183 449.031L630.48 439.721L631.976 427.149L620.611 419.984L579.895 338.703Z" fill="#2F2E41"/>
<path d="M530.513 43.0869C530.545 42.6379 530.576 42.1878 530.606 41.7358C530.457 42.1708 530.425 42.6369 530.513 43.0869Z" fill="#2F2E41"/>
<path d="M663.432 33.9819C662.185 28.2609 659.403 22.9889 655.385 18.7329C651.367 14.4759 646.265 11.3959 640.629 9.82294C639.083 7.23394 636.977 5.02392 634.466 3.35592C631.955 1.68792 629.102 0.603951 626.117 0.182951C620.511 -0.563049 614.893 1.09993 609.503 2.81393C606.173 3.87293 602.852 4.95893 599.539 6.07193C596.842 6.97793 593.527 9.04592 594.422 11.7479C593.741 11.3929 592.962 11.2729 592.206 11.4069C591.45 11.5399 590.76 11.9199 590.242 12.4869C589.724 13.0549 589.408 13.7769 589.343 14.5419C589.278 15.3079 589.468 16.0729 589.882 16.7199C588.632 15.1059 585.74 16.1409 585.044 18.0609C584.349 19.9799 585.168 22.1079 586.185 23.8779C589.247 28.9129 593.891 32.7899 599.391 34.9009C604.89 37.0119 610.934 37.2379 616.576 35.5449C619.876 34.4639 623.247 32.6899 626.627 33.4829C629.818 34.2309 632.114 37.1909 633.022 40.3409C633.686 43.0959 633.867 45.9449 633.559 48.7609C633.989 47.7609 634.798 46.9729 635.809 46.5679C636.819 46.1639 637.949 46.1769 638.949 46.6049C641.359 47.8069 642.224 50.9769 641.627 53.6039C641.03 56.2309 634.766 66.4179 633.111 68.5429C631.298 70.5489 629.964 72.9399 629.21 75.5359C635.149 74.6229 641.088 73.709 647.027 72.795L647.349 73.1189C656.557 65.9599 665.762 45.4139 663.432 33.9819Z" fill="#2F2E41"/>
<path d="M578.103 279.418C578.925 277.342 580.191 275.472 581.814 273.939C583.436 272.406 585.375 271.247 587.493 270.545C589.611 269.843 591.858 269.614 594.074 269.874C596.29 270.135 598.422 270.878 600.32 272.052L642.393 237.796L645.209 265.858L604.825 294.086C602.642 297.146 599.414 299.298 595.751 300.135C592.088 300.972 588.246 300.436 584.952 298.628C581.658 296.82 579.142 293.866 577.88 290.325C576.617 286.785 576.697 282.904 578.103 279.418Z" fill="#A0616A"/>
<path d="M644.669 271.062C649.738 272.876 653.658 271.528 655.26 263.802L702.953 231.107L702.944 230.688C709.165 230.206 707.742 138.18 698.201 133.678C696.46 123.54 691.305 114.302 683.592 107.5L683.392 107.343L683.137 107.339C677.94 107.27 672.874 108.975 668.775 112.174C664.675 115.372 661.788 119.873 660.589 124.933C654.927 149.398 655.026 174.844 660.877 199.263L664.221 213.15L643.401 230.783C637.648 229.276 635.096 231.593 635.518 237.459L644.669 271.062Z" fill="#E6E6E6"/>
<path d="M538.345 218.279C538.518 217.759 538.577 217.208 538.519 216.663C538.461 216.117 538.287 215.591 538.009 215.119C537.731 214.647 537.355 214.24 536.906 213.925C536.457 213.61 535.946 213.396 535.408 213.295C535.208 213.253 535.006 213.228 534.802 213.22L510.242 212.586C509.691 212.58 509.145 212.69 508.64 212.908C508.134 213.127 507.679 213.449 507.305 213.854C506.961 213.78 506.61 213.744 506.259 213.745C505.494 213.725 504.732 213.856 504.018 214.131C503.304 214.405 502.651 214.818 502.096 215.345C501.541 215.872 501.096 216.504 500.785 217.204C500.475 217.903 500.305 218.657 500.286 219.423C500.267 220.188 500.398 220.95 500.673 221.664C500.949 222.378 501.362 223.031 501.889 223.586C502.417 224.14 503.049 224.585 503.748 224.895C504.448 225.206 505.201 225.375 505.966 225.393C506.846 225.411 507.719 225.231 508.52 224.868L510.78 249.041C510.997 249.836 511.466 250.539 512.115 251.045C512.765 251.551 513.561 251.834 514.384 251.85L530.35 252.261C531.168 252.275 531.969 252.03 532.638 251.561C533.308 251.092 533.811 250.422 534.077 249.649L538.345 218.279ZM506.017 223.726C504.915 223.697 503.869 223.232 503.109 222.433C502.349 221.633 501.937 220.565 501.963 219.463C501.989 218.36 502.451 217.312 503.247 216.549C504.044 215.787 505.11 215.371 506.212 215.394C506.29 215.394 506.359 215.431 506.437 215.431C506.262 216.099 506.266 216.801 506.449 217.466L508.057 223.227C507.435 223.576 506.73 223.748 506.017 223.726Z" fill="#FFAC63"/>
<path d="M535.408 213.295C534.884 216.289 529.002 218.393 521.928 218.027C515.424 217.727 510.105 215.442 509.131 212.734C509.491 212.627 509.866 212.577 510.242 212.586L534.802 213.22C535.006 213.228 535.208 213.253 535.408 213.295Z" fill="white"/>
<rect y="235" width="813" height="299" fill="#D9D9D9"/>
</g>
<defs>
<clipPath id="clip0_16_1035">
<rect width="813" height="534" fill="white"/>
</clipPath>
</defs>
</svg>
