<svg width="638" height="640" viewBox="0 0 638 640" fill="none" xmlns="http://www.w3.org/2000/svg">
<path d="M634.363 279.406C633.243 285.296 631.899 291.126 630.333 296.896C630.163 297.566 629.973 298.226 629.783 298.896H607.993C606.137 298.898 604.358 299.636 603.045 300.948C601.733 302.26 600.995 304.04 600.993 305.896V368.016C600.333 369.246 599.663 370.466 598.993 371.686C595.533 377.986 591.933 384.216 588.253 390.366C528.246 490.322 444.553 573.966 344.563 633.916L350.483 620.556C348.313 620.406 346.133 620.256 343.963 620.106C296.713 616.876 249.303 613.296 203.163 602.676C154.893 591.566 107.673 572.296 69.843 540.346C32.0026 508.386 4.26289 462.746 0.412792 413.366C-0.871011 396.395 0.845332 379.331 5.4831 362.956C14.3527 331.436 33.7331 303.076 61.6931 286.296C105.613 259.946 162.903 265.316 209.203 287.236C255.493 309.146 293.173 345.416 329.963 381.056C292.818 317.358 241.1 263.375 179.053 223.536C158.493 210.376 136.673 198.656 119.193 181.606C101.723 164.566 88.8327 140.676 91.9231 116.466C95.4329 89.0057 117.923 68.1657 140.453 52.0957C149.453 45.6757 158.743 39.5857 168.323 33.9857C195.353 18.1457 224.593 6.19566 255.473 1.76566C297.303 -4.24434 342.483 4.87566 374.553 32.3957C410.683 63.4057 425.503 113.416 424.093 161.256C446.353 128.896 480.683 104.126 519.453 103.076C559.703 101.996 597.963 127.426 618.123 162.286C638.273 197.136 641.893 239.856 634.363 279.406Z" fill="#D9D9BF"/>
<path d="M379.704 413.802C403.279 411.726 425.056 409.3 447.9 402.836C470.044 396.57 491.352 386.081 507.115 368.954C524.07 350.532 533.222 326.608 539.679 302.793C543.28 289.514 546.238 276.051 549.029 262.583C552.058 247.969 554.749 233.292 557.102 218.549C561.787 189.204 565.131 159.686 567.135 129.995C567.377 126.391 567.599 122.786 567.801 119.18C567.926 116.955 564.466 116.962 564.341 119.18C562.695 148.446 559.733 177.599 555.456 206.637C551.236 235.167 545.835 263.574 538.984 291.592C533.18 315.328 525.664 339.435 510.778 359.195C496.818 377.724 476.656 389.832 454.886 397.072C432.733 404.439 409.376 407.38 386.226 409.567C383.387 409.836 382.546 410.091 379.704 410.342C377.503 410.535 377.483 413.997 379.704 413.802Z" fill="white"/>
<path d="M7.47963 365.508C37.2233 367.158 66.6644 372.346 95.1804 380.962C123.709 389.561 151.123 401.494 176.857 416.514C201.722 431.039 224.805 448.419 245.637 468.3C265.854 487.606 283.873 509.091 299.364 532.362C314.925 555.691 327.821 580.692 337.81 606.895C339.028 610.102 340.202 613.325 341.33 616.565C342.059 618.654 345.403 617.756 344.667 615.646C335.321 588.889 323.001 563.266 307.938 539.258C292.878 515.249 275.203 492.982 255.238 472.867C234.952 452.439 212.376 434.423 187.957 419.175C136.686 387.237 78.5707 367.916 18.3831 362.799C14.7525 362.495 11.118 362.244 7.47967 362.048C5.25467 361.926 5.26146 365.387 7.47963 365.508Z" fill="white"/>
<path d="M169.257 38.042C188.275 44.0903 206.301 52.899 222.758 64.1862C239.575 75.7984 254.913 89.4191 268.431 104.746C282.676 120.87 295.34 138.324 306.25 156.867C317.822 176.447 327.875 196.885 336.32 218.003C345.017 239.683 352.331 261.893 358.219 284.498C364.204 307.371 368.879 330.567 372.221 353.973C375.547 377.13 377.559 400.458 378.249 423.842C378.944 446.203 378.283 468.586 376.269 490.867C374.428 511.654 371.064 532.278 366.206 552.573C361.892 570.903 355.812 588.772 348.051 605.93C346.254 609.823 344.346 613.664 342.329 617.45C341.283 619.415 344.268 621.165 345.317 619.197C353.893 602.808 360.741 585.572 365.751 567.767C371.371 547.946 375.445 527.719 377.936 507.268C380.698 485.079 382.042 462.738 381.962 440.378C381.913 416.888 380.515 393.42 377.775 370.09C375.033 346.469 370.964 323.022 365.585 299.859C360.219 276.658 353.412 253.814 345.204 231.459C337.293 209.819 327.82 188.782 316.862 168.514C306.425 149.173 294.261 130.815 280.521 113.663C267.471 97.3319 252.573 82.568 236.124 69.6668C220.263 57.264 202.737 47.1541 184.059 39.6342C179.495 37.8176 174.867 36.1747 170.177 34.7055C168.048 34.0357 167.137 37.3749 169.257 38.042Z" fill="white"/>
<path d="M374.492 639.896C511.183 639.896 621.992 635.419 621.992 629.896C621.992 624.374 511.183 619.896 374.492 619.896C237.802 619.896 126.992 624.374 126.992 629.896C126.992 635.419 237.802 639.896 374.492 639.896Z" fill="#D9D9BF"/>
</svg>
