<svg width="8797" height="3070" viewBox="0 0 8797 3070" fill="none" xmlns="http://www.w3.org/2000/svg">
<path d="M1109.27 2894.54L978.585 2895.13L1121.45 2851.92C1150.55 2730.73 1141.4 2594.7 1141.4 2594.7C1141.4 2594.7 858.595 2601.61 754.916 2715.23C651.236 2828.85 682.597 2930.15 765.941 3006.16C849.283 3082.17 953.046 3104.12 1056.73 2990.5C1079.8 2965.21 1096.79 2931.56 1109.27 2894.54Z" fill="#F2F2F2"/>
<path d="M957.088 2882.01L951.977 2887.61C892.241 2952.41 834.91 2993.18 780.725 3009.3C779.939 3009.55 779.151 3009.74 778.365 3009.99L777.294 3006.32L776.307 3002.78C835.455 2985.96 893.728 2939.08 945.847 2882.58C947.545 2880.78 949.268 2878.94 950.935 2877.06C972.787 2852.95 993.505 2827.29 1012.7 2801.52C1014.21 2799.54 1015.71 2797.5 1017.21 2795.47C1042.37 2761.32 1064.83 2727.24 1083.61 2696.98C1084.95 2694.84 1086.26 2692.68 1087.54 2690.55C1119.11 2639.19 1139.52 2599.73 1143.98 2590.95C1144.54 2589.89 1144.83 2589.29 1144.9 2589.15L1148.22 2590.81L1148.28 2590.8L1151.62 2592.48C1151.55 2592.62 1150.58 2594.63 1148.67 2598.28C1141.62 2611.96 1122.13 2648.8 1093.83 2695.02C1092.54 2697.1 1091.23 2699.26 1089.9 2701.39C1074.68 2725.97 1057.13 2752.94 1037.72 2780.34C1032.85 2787.23 1027.98 2793.96 1023.1 2800.54C1021.63 2802.6 1020.13 2804.63 1018.62 2806.61C997.873 2834.48 977.361 2859.61 957.088 2882.01Z" fill="white"/>
<path d="M1093.83 2695.02C1091.74 2693.57 1089.63 2692.1 1087.54 2690.55C1081.85 2686.35 1076.39 2681.85 1071.16 2677.09C1048.87 2656.82 1031.42 2631.8 1020.08 2603.88C1017.58 2604.29 1015.07 2604.7 1012.51 2605.11C1024.23 2634.69 1042.56 2661.21 1066.1 2682.64C1071.68 2687.72 1077.53 2692.51 1083.61 2696.98C1085.67 2698.5 1087.79 2699.97 1089.9 2701.39C1107.24 2713.18 1126.27 2722.27 1146.35 2728.34C1146.55 2725.73 1146.75 2723.17 1146.95 2720.66C1128.08 2714.78 1110.18 2706.14 1093.83 2695.02Z" fill="white"/>
<path d="M1023.1 2800.54C1021.09 2798.9 1019.12 2797.21 1017.21 2795.47C1016.6 2794.96 1015.99 2794.41 1015.41 2793.88C991.284 2771.88 972.839 2744.37 961.646 2713.7C950.454 2683.03 946.845 2650.11 951.127 2617.75C948.525 2618.37 945.923 2619 943.324 2619.68C939.411 2652.81 943.449 2686.39 955.105 2717.65C966.76 2748.91 985.697 2776.94 1010.35 2799.42C1011.12 2800.13 1011.9 2800.84 1012.7 2801.52C1014.67 2803.26 1016.63 2804.95 1018.62 2806.61C1049.62 2832.1 1087.3 2848.13 1127.16 2852.77C1127.77 2850.33 1128.37 2847.88 1128.95 2845.41C1090.05 2841.07 1053.26 2825.47 1023.1 2800.54Z" fill="white"/>
<path d="M957.088 2882.01C954.995 2880.41 952.952 2878.75 950.935 2877.06C948.779 2875.25 946.649 2873.41 944.569 2871.51C912.187 2841.91 890.267 2802.61 882.091 2759.52C873.916 2716.42 879.923 2671.83 899.215 2632.43C895.918 2633.54 892.646 2634.62 889.404 2635.78C871.33 2676.15 866.444 2721.2 875.438 2764.51C884.433 2807.83 906.852 2847.2 939.509 2877.05C941.589 2878.95 943.694 2880.82 945.847 2882.58C947.867 2884.32 949.909 2885.98 951.977 2887.61C993.986 2920.31 1046.85 2935.82 1099.87 2931.01C1101.16 2928.43 1102.35 2925.8 1103.55 2923.14C1051.24 2928.99 998.702 2914.24 957.088 2882.01Z" fill="white"/>
<path d="M675.401 2997.06L750.493 2997.05L786.214 2707.49L675.389 2707.49L675.401 2997.06Z" fill="#FFB6B6"/>
<path d="M656.248 2972.55L804.136 2972.54C829.13 2972.54 853.099 2982.47 870.773 3000.14C888.446 3017.81 898.376 3041.77 898.378 3066.76V3069.82L656.252 3069.83L656.248 2972.55Z" fill="#2F2E41"/>
<path d="M81.277 2997.06L156.369 2997.05L192.09 2707.49L81.2648 2707.49L81.277 2997.06Z" fill="#FFB6B6"/>
<path d="M62.1241 2972.55L210.012 2972.54C235.006 2972.54 258.976 2982.47 276.649 3000.14C294.323 3017.81 304.252 3041.77 304.254 3066.76V3069.82L62.1285 3069.83L62.1241 2972.55Z" fill="#2F2E41"/>
<path d="M208.628 1807.63L158.017 1854.2L100.975 2416.8L62.5775 2864.77L178.615 2880.41L460.071 2114.99L666.011 2876.78L804.852 2880.41L712.702 1886.01L208.628 1807.63Z" fill="#2F2E41"/>
<path d="M453.204 975.741C532.821 975.741 597.363 911.215 597.363 831.618C597.363 752.022 532.821 687.496 453.204 687.496C373.587 687.496 309.044 752.022 309.044 831.618C309.044 911.215 373.587 975.741 453.204 975.741Z" fill="#FFB9B9"/>
<path d="M379.427 764.698C379.427 764.698 362.241 801.883 430.988 787.009C430.988 787.009 456.767 801.883 456.767 779.572C456.767 779.572 491.141 816.756 499.734 794.446C508.328 772.135 525.514 801.883 525.514 801.883L542.701 764.698L559.888 787.009H620.041C620.041 787.009 637.228 638.271 430.988 653.144C224.747 668.018 326.206 903.679 326.206 903.679C326.206 903.679 327.867 861.378 345.054 883.689C362.241 905.999 379.427 764.698 379.427 764.698Z" fill="#2F2E41"/>
<path d="M563.045 1022.78L359.764 1010.06L178.614 1058.1L206.073 1524.78L158.02 1854.2C158.02 1854.2 421.665 2015.32 720.928 1888.52L692.504 1813.76C692.504 1813.76 691.525 1699.34 667.514 1676.94C643.503 1654.55 645.416 1469.87 645.416 1469.87L734.658 1126.73L563.045 1022.78Z" fill="#3F3D56"/>
<path d="M227.005 1072.82L178.614 1058.1C178.614 1058.1 103.251 1060.61 64.0653 1146.32C24.8799 1232.03 0.379883 1354.5 0.379883 1354.5L249.262 1363.5L227.005 1072.82Z" fill="#3F3D56"/>
<path d="M804.685 1890.95L796.628 1385.12L689.103 1401.24L712.852 1880.48C703.077 1888.51 695.882 1899.23 692.165 1911.31C688.449 1923.4 688.376 1936.31 691.955 1948.44C695.534 1960.57 702.607 1971.37 712.291 1979.5C721.974 1987.64 733.84 1992.74 746.405 1994.17C758.971 1995.6 771.68 1993.3 782.946 1987.55C794.211 1981.81 803.535 1972.87 809.752 1961.86C815.968 1950.85 818.803 1938.25 817.902 1925.64C817.001 1913.03 812.404 1900.96 804.685 1890.95Z" fill="#FFB9B9"/>
<path d="M674.129 1170.8L734.658 1126.73C734.658 1126.73 850.964 1217.66 851.359 1417.74L689.103 1457.08L597.363 1325.16L674.129 1170.8Z" fill="#3F3D56"/>
<path d="M2268.74 1271.96H325.193C310.44 1271.96 295.83 1274.87 282.2 1280.51C268.569 1286.15 256.184 1294.43 245.751 1304.86C235.319 1315.29 227.043 1327.67 221.397 1341.3C215.751 1354.92 212.846 1369.53 212.846 1384.28V1851.59C212.845 1866.34 215.751 1880.94 221.397 1894.57C227.043 1908.2 235.319 1920.58 245.751 1931.01C256.184 1941.44 268.569 1949.71 282.199 1955.36C295.83 1961 310.44 1963.91 325.193 1963.91H353.72V2048.33C353.72 2053.46 355.24 2058.46 358.087 2062.72C360.934 2066.98 364.98 2070.3 369.715 2072.26C374.449 2074.22 379.659 2074.74 384.685 2073.74C389.711 2072.74 394.327 2070.27 397.951 2066.65L500.72 1963.91H2268.74C2283.5 1963.91 2298.11 1961 2311.74 1955.36C2325.37 1949.71 2337.75 1941.44 2348.19 1931.01C2358.62 1920.58 2366.89 1908.2 2372.54 1894.57C2378.19 1880.94 2381.09 1866.34 2381.09 1851.59V1384.28C2381.09 1369.53 2378.19 1354.92 2372.54 1341.3C2366.89 1327.67 2358.62 1315.29 2348.19 1304.86C2337.75 1294.43 2325.37 1286.15 2311.74 1280.51C2298.11 1274.87 2283.5 1271.96 2268.74 1271.96Z" fill="#E6E6E6"/>
<path d="M1801.32 1905.73H325.194C310.835 1905.72 297.068 1900.01 286.914 1889.85C276.76 1879.7 271.049 1865.94 271.033 1851.58V1384.28C271.049 1369.92 276.76 1356.16 286.914 1346.01C297.067 1335.86 310.833 1330.15 325.191 1330.13H2268.74C2283.1 1330.15 2296.87 1335.86 2307.02 1346.01C2317.18 1356.16 2322.89 1369.93 2322.9 1384.28C2322.75 1522.53 2267.74 1655.07 2169.96 1752.83C2072.18 1850.59 1939.6 1905.58 1801.32 1905.73Z" fill="white"/>
<path d="M1709.38 1431.17H888.636C868.339 1431.17 851.886 1447.62 851.886 1467.91C851.886 1488.2 868.339 1504.65 888.636 1504.65H1709.38C1729.68 1504.65 1746.13 1488.2 1746.13 1467.91C1746.13 1447.62 1729.68 1431.17 1709.38 1431.17Z" fill="#394A39"/>
<path d="M1883.95 1578.13H714.074C693.777 1578.13 677.324 1594.58 677.324 1614.87C677.324 1635.16 693.777 1651.61 714.074 1651.61H1883.95C1904.24 1651.61 1920.7 1635.16 1920.7 1614.87C1920.7 1594.58 1904.24 1578.13 1883.95 1578.13Z" fill="#E6E6E6"/>
<path d="M1883.95 1725.09H714.074C693.777 1725.09 677.324 1741.54 677.324 1761.83C677.324 1782.12 693.777 1798.57 714.074 1798.57H1883.95C1904.24 1798.57 1920.7 1782.12 1920.7 1761.83C1920.7 1741.54 1904.24 1725.09 1883.95 1725.09Z" fill="#E6E6E6"/>
<path d="M419.942 1262.65C419.942 1245.6 413.166 1229.24 401.105 1217.19C389.044 1205.13 372.686 1198.35 355.629 1198.35C338.573 1198.35 322.215 1205.13 310.154 1217.19C298.093 1229.24 291.317 1245.6 291.317 1262.65C291.317 1263.28 291.392 1263.89 291.41 1264.51L178.615 1377.28L187.192 1357.56L58.5673 1351.44L39.8035 1487.21C38.1597 1499.74 40.4485 1512.48 46.3539 1523.65C52.2593 1534.83 61.4899 1543.9 72.7715 1549.61C84.0531 1555.32 96.8291 1557.38 109.336 1555.52C121.842 1553.66 133.462 1547.96 142.591 1539.22L364.93 1326.2C380.205 1323.97 394.168 1316.33 404.269 1304.66C414.37 1292.99 419.933 1278.08 419.942 1262.65Z" fill="#FFB9B9"/>
<path d="M7076.97 2709.49L7006.83 2819.73L7047.69 2676.21C6961.43 2586.23 6842.01 2520.4 6842.01 2520.4C6842.01 2520.4 6694.97 2762.01 6734.54 2910.63C6774.12 3059.25 6876.31 3087.62 6985.33 3058.6C7094.35 3029.59 7168.9 2954.17 7129.32 2805.55C7120.52 2772.47 7101.38 2740 7076.97 2709.49Z" fill="#F2F2F2"/>
<path d="M6984.17 2830.72L6986.12 2838.05C7008.36 2923.31 7011.69 2993.58 6995.96 3047.86C6995.75 3048.66 6995.49 3049.43 6995.27 3050.22L6991.6 3049.14L6988.09 3048.05C7005.91 2989.21 6997.95 2914.86 6978.58 2840.48C6977.97 2838.08 6977.36 2835.64 6976.68 2833.22C6968.2 2801.81 6957.81 2770.51 6946.49 2740.43C6945.64 2738.1 6944.74 2735.74 6943.84 2733.37C6928.7 2693.75 6912.16 2656.44 6896.84 2624.29C6895.77 2622.01 6894.66 2619.74 6893.56 2617.51C6867.4 2563.19 6845.23 2524.7 6840.24 2516.2C6839.66 2515.15 6839.31 2514.58 6839.23 2514.45L6842.42 2512.55L6842.45 2512.51L6845.67 2510.6C6845.74 2510.74 6846.91 2512.64 6848.95 2516.21C6856.66 2529.54 6877.12 2565.84 6900.72 2614.63C6901.77 2616.84 6902.88 2619.11 6903.95 2621.38C6916.42 2647.47 6929.63 2676.8 6942.19 2707.95C6945.36 2715.76 6948.39 2723.5 6951.29 2731.16C6952.23 2733.51 6953.13 2735.87 6953.98 2738.21C6966.21 2770.72 6976.28 2801.56 6984.17 2830.72Z" fill="white"/>
<path d="M6900.72 2614.63C6898.38 2615.61 6896 2616.59 6893.56 2617.51C6886.95 2620.02 6880.21 2622.19 6873.38 2624.01C6844.27 2631.8 6813.78 2632.96 6784.16 2627.4C6783.15 2629.73 6782.14 2632.06 6781.1 2634.43C6812.34 2640.56 6844.56 2639.48 6875.31 2631.26C6882.61 2629.32 6889.79 2626.99 6896.84 2624.29C6899.24 2623.38 6901.62 2622.39 6903.95 2621.38C6923.25 2613.17 6941.19 2602.07 6957.15 2588.47C6955.06 2586.89 6953.01 2585.33 6951.01 2583.81C6935.86 2596.5 6918.91 2606.89 6900.72 2614.63Z" fill="white"/>
<path d="M6951.29 2731.16C6948.82 2731.97 6946.34 2732.71 6943.84 2733.37C6943.09 2733.61 6942.29 2733.83 6941.52 2734.03C6909.97 2742.43 6876.85 2743.07 6844.99 2735.91C6813.14 2728.75 6783.48 2713.99 6758.56 2692.9C6757.68 2695.42 6756.8 2697.95 6755.96 2700.5C6781.73 2721.7 6812.17 2736.46 6844.78 2743.55C6877.38 2750.64 6911.21 2749.86 6943.46 2741.28C6944.47 2741.01 6945.49 2740.74 6946.49 2740.43C6949.02 2739.72 6951.51 2738.98 6953.98 2738.21C6992.19 2725.92 7026.04 2702.88 7051.49 2671.86C7049.76 2670.03 7048.03 2668.2 7046.27 2666.38C7021.59 2696.75 6988.58 2719.27 6951.29 2731.16Z" fill="white"/>
<path d="M6984.17 2830.72C6981.69 2831.61 6979.19 2832.43 6976.68 2833.22C6973.99 2834.05 6971.29 2834.85 6968.57 2835.57C6926.15 2846.81 6881.24 2844.01 6840.55 2827.59C6799.86 2811.17 6765.59 2782.02 6742.86 2744.5C6742.01 2747.87 6741.15 2751.2 6740.37 2754.56C6764.58 2791.58 6799.85 2820.04 6841.16 2835.89C6882.47 2851.73 6927.73 2854.16 6970.5 2842.83C6973.22 2842.1 6975.93 2841.34 6978.58 2840.48C6981.13 2839.72 6983.63 2838.9 6986.12 2838.05C7036.34 2820.38 7077.98 2784.3 7102.59 2737.1C7101.11 2734.62 7099.53 2732.21 7097.95 2729.76C7074.6 2776.92 7033.79 2813.14 6984.17 2830.72Z" fill="white"/>
<path d="M6715.6 198.886L6645.46 309.13L6686.31 165.612C6600.05 75.6265 6480.64 9.79907 6480.64 9.79907C6480.64 9.79907 6333.59 251.405 6373.17 400.025C6412.75 548.645 6514.94 577.016 6623.96 548C6732.97 518.985 6807.53 443.571 6767.95 294.951C6759.14 261.871 6740.01 229.396 6715.6 198.886Z" fill="#F2F2F2"/>
<path d="M6622.8 320.119L6624.75 327.445C6646.99 412.714 6650.32 482.976 6634.59 537.261C6634.37 538.056 6634.11 538.825 6633.9 539.62L6630.23 538.538L6626.72 537.453C6644.53 478.612 6636.58 404.26 6617.2 329.881C6616.6 327.478 6615.99 325.039 6615.31 322.618C6606.82 291.205 6596.43 259.911 6585.12 229.833C6584.27 227.498 6583.36 225.136 6582.46 222.773C6567.33 183.15 6550.79 145.841 6535.47 113.685C6534.39 111.407 6533.29 109.139 6532.19 106.908C6506.03 52.5862 6483.85 14.0985 6478.87 5.5989C6478.28 4.5518 6477.94 3.98371 6477.86 3.84838L6481.05 1.95191L6481.07 1.90594L6484.29 -0.000244141C6484.37 0.135267 6485.54 2.03839 6487.58 5.61227C6495.28 18.9403 6515.75 55.2421 6539.34 104.031C6540.4 106.237 6541.51 108.505 6542.58 110.782C6555.04 136.865 6568.25 166.204 6580.82 197.345C6583.99 205.163 6587.02 212.9 6589.91 220.557C6590.85 222.91 6591.75 225.272 6592.61 227.607C6604.84 260.12 6614.9 290.958 6622.8 320.119Z" fill="white"/>
<path d="M6539.34 104.031C6537 105.005 6534.62 105.988 6532.19 106.908C6525.57 109.416 6518.84 111.585 6512.01 113.405C6482.9 121.194 6452.41 122.355 6422.79 116.801C6421.78 119.128 6420.76 121.456 6419.73 123.829C6450.96 129.962 6483.19 128.877 6513.94 120.658C6521.23 118.714 6528.42 116.387 6535.47 113.685C6537.87 112.775 6540.25 111.792 6542.58 110.782C6561.88 102.566 6579.81 91.4671 6595.77 77.8661C6593.68 76.2867 6591.64 74.7338 6589.64 73.2075C6574.48 85.9021 6557.54 96.2887 6539.34 104.031Z" fill="white"/>
<path d="M6589.91 220.557C6587.45 221.368 6584.97 222.107 6582.46 222.773C6581.71 223.012 6580.91 223.224 6580.15 223.427C6548.6 231.826 6515.48 232.472 6483.62 225.311C6451.76 218.149 6422.11 203.391 6397.19 182.296C6396.31 184.822 6395.42 187.348 6394.59 189.9C6420.35 211.099 6450.8 225.855 6483.41 232.946C6516.01 240.038 6549.84 239.261 6582.08 230.68C6583.1 230.41 6584.11 230.14 6585.12 229.833C6587.65 229.121 6590.13 228.382 6592.61 227.607C6630.81 215.315 6664.66 192.283 6690.12 161.264C6688.39 159.433 6686.66 157.602 6684.89 155.781C6660.21 186.153 6627.2 208.664 6589.91 220.557Z" fill="white"/>
<path d="M6622.8 320.119C6620.32 321.013 6617.82 321.834 6615.31 322.618C6612.61 323.451 6609.91 324.248 6607.19 324.972C6564.78 336.209 6519.86 333.408 6479.18 316.99C6438.49 300.571 6404.21 271.418 6381.48 233.895C6380.63 237.268 6379.77 240.603 6379 243.956C6403.21 280.983 6438.47 309.441 6479.79 325.287C6521.1 341.132 6566.35 343.56 6609.12 332.225C6611.84 331.501 6614.56 330.741 6617.2 329.881C6619.76 329.123 6622.26 328.302 6624.75 327.445C6674.97 309.783 6716.6 273.7 6741.21 226.503C6739.74 224.023 6738.16 221.607 6736.57 219.155C6713.22 266.32 6672.41 302.536 6622.8 320.119Z" fill="white"/>
<path d="M7616.01 2996.77L7691.1 2996.76L7726.82 2707.2L7616 2707.21L7616.01 2996.77Z" fill="#9E616A"/>
<path d="M7596.86 2972.26L7744.74 2972.25C7769.73 2972.25 7793.71 2982.18 7811.38 2999.85C7829.06 3017.52 7838.98 3041.48 7838.99 3066.47V3069.53L7596.86 3069.54L7596.86 2972.26Z" fill="#2F2E41"/>
<path d="M7171.56 2932.93L7243.15 2955.57L7364.57 2690.26L7258.9 2656.85L7171.56 2932.93Z" fill="#9E616A"/>
<path d="M7160.69 2903.78L7301.68 2948.37C7325.51 2955.91 7345.38 2972.6 7356.9 2994.78C7368.42 3016.95 7370.65 3042.79 7363.12 3066.62L7362.19 3069.54L7131.34 2996.54L7160.69 2903.78Z" fill="#2F2E41"/>
<path d="M7340.63 1674.29L7298.96 1791.79L7297.78 2426.1L7179.61 2860.39L7324.67 2900.86L7484.91 2491.37L7536.3 2131.69L7604.03 2493.46L7594.71 2923.45H7746.91L7758.4 2260.83C7761.62 2074.74 7729.05 1889.76 7662.46 1715.95L7340.63 1674.29Z" fill="#2F2E41"/>
<path d="M7291 1198.35H7537.01L7639.8 1301.12L7670.52 1725.91L7298.96 1785.68L7179.61 1380.38L7244.61 1208.12L7291 1198.35Z" fill="#394A39"/>
<path d="M7202.54 1384.43L6823.77 1241.96L6813.91 1183.06L7052.78 980.99L7132.29 1040.61L6988.18 1198.35L7244.61 1208.12L7202.54 1384.43Z" fill="#394A39"/>
<path d="M7098.72 1063.64C7132.55 1063.64 7159.97 1036.22 7159.97 1002.41C7159.97 968.586 7132.55 941.171 7098.72 941.171C7064.89 941.171 7037.47 968.586 7037.47 1002.41C7037.47 1036.22 7064.89 1063.64 7098.72 1063.64Z" fill="#9E616A"/>
<path d="M7240.77 1079.55L7268.45 954.776C7278.32 910.469 7305.38 871.892 7343.69 847.523C7381.99 823.153 7428.41 814.985 7472.74 824.813C7517.06 834.64 7555.67 861.66 7580.09 899.935C7604.5 938.209 7612.71 984.607 7602.92 1028.93L7575.24 1153.7C7573.91 1159.66 7570.28 1164.84 7565.13 1168.12C7559.99 1171.39 7553.75 1172.49 7547.8 1171.18L7258.25 1106.99C7252.3 1105.66 7247.11 1102.02 7243.84 1096.88C7240.56 1091.74 7239.46 1085.5 7240.77 1079.55Z" fill="#2F2E41"/>
<path d="M7396.49 1131.54C7465.85 1131.54 7522.08 1075.32 7522.08 1005.98C7522.08 936.636 7465.85 880.421 7396.49 880.421C7327.13 880.421 7270.9 936.636 7270.9 1005.98C7270.9 1075.32 7327.13 1131.54 7396.49 1131.54Z" fill="#9E616A"/>
<path d="M7226.67 955.986C7234.49 920.93 7255.89 890.406 7286.19 871.11C7316.49 851.814 7353.21 845.322 7388.3 853.059L7413.26 858.593C7448.32 866.409 7478.86 887.811 7498.16 918.104C7517.46 948.397 7523.95 985.107 7516.21 1020.18L7515.66 1022.68L7462.91 1010.98L7456.09 956.625L7441.32 1006.19L7414.06 1000.15L7410.62 972.725L7403.16 997.735L7226.11 958.482L7226.67 955.986Z" fill="#2F2E41"/>
<path d="M7353.48 1142.82C7351.75 1138.92 7351.15 1134.61 7351.76 1130.38C7352.37 1126.16 7354.16 1122.19 7356.93 1118.94C7394.54 1074.5 7452.19 989.776 7415.75 921.56L7413.13 916.658L7555.84 948.299L7508.32 1162.51L7373.61 1156.63C7372.24 1156.57 7370.89 1156.39 7369.55 1156.1C7366.02 1155.32 7362.71 1153.7 7359.92 1151.39C7357.12 1149.09 7354.92 1146.15 7353.48 1142.82Z" fill="#2F2E41"/>
<path d="M8715.25 1597.34H7309.74C7299.07 1597.34 7288.51 1599.44 7278.65 1603.52C7268.8 1607.6 7259.84 1613.58 7252.29 1621.13C7244.75 1628.67 7238.77 1637.62 7234.68 1647.48C7230.6 1657.33 7228.5 1667.89 7228.5 1678.56V2016.5C7228.5 2027.17 7230.6 2037.73 7234.68 2047.59C7238.77 2057.44 7244.75 2066.39 7252.29 2073.94C7259.84 2081.48 7268.8 2087.46 7278.65 2091.54C7288.51 2095.63 7299.07 2097.73 7309.74 2097.73H7330.37V2158.78C7330.37 2162.49 7331.47 2166.11 7333.53 2169.19C7335.59 2172.27 7338.52 2174.67 7341.94 2176.09C7345.36 2177.51 7349.13 2177.88 7352.77 2177.15C7356.4 2176.43 7359.74 2174.65 7362.36 2172.03L7436.68 2097.73H8715.25C8725.92 2097.73 8736.48 2095.63 8746.34 2091.54C8756.2 2087.46 8765.15 2081.48 8772.7 2073.94C8780.24 2066.39 8786.23 2057.44 8790.31 2047.59C8794.39 2037.73 8796.49 2027.17 8796.49 2016.5V1678.56C8796.49 1667.89 8794.39 1657.33 8790.31 1647.48C8786.23 1637.62 8780.24 1628.67 8772.7 1621.13C8765.15 1613.58 8756.2 1607.6 8746.34 1603.52C8736.48 1599.44 8725.92 1597.34 8715.25 1597.34Z" fill="#E6E6E6"/>
<path d="M8715.25 2056.51H7309.74C7299.13 2056.5 7288.96 2052.28 7281.46 2044.78C7273.96 2037.28 7269.74 2027.11 7269.73 2016.5V1678.56C7269.74 1667.95 7273.96 1657.79 7281.46 1650.29C7288.96 1642.79 7299.13 1638.57 7309.74 1638.56H8377.22C8477.45 1638.67 8573.54 1678.53 8644.42 1749.38C8715.29 1820.23 8755.15 1916.3 8755.26 2016.5C8755.25 2027.11 8751.03 2037.28 8743.53 2044.78C8736.03 2052.28 8725.86 2056.5 8715.25 2056.51Z" fill="white"/>
<path d="M8310.74 1712.47H7717.21C7702.53 1712.47 7690.63 1724.37 7690.63 1739.04C7690.63 1753.71 7702.53 1765.61 7717.21 1765.61H8310.74C8325.42 1765.61 8337.32 1753.71 8337.32 1739.04C8337.32 1724.37 8325.42 1712.47 8310.74 1712.47Z" fill="#394A39"/>
<path d="M8436.98 1818.75H7590.97C7576.29 1818.75 7564.39 1830.64 7564.39 1845.32C7564.39 1859.99 7576.29 1871.89 7590.97 1871.89H8436.98C8451.65 1871.89 8463.55 1859.99 8463.55 1845.32C8463.55 1830.64 8451.65 1818.75 8436.98 1818.75Z" fill="#E6E6E6"/>
<path d="M8436.98 1925.03H7590.97C7576.29 1925.03 7564.39 1936.92 7564.39 1951.6C7564.39 1966.27 7576.29 1978.16 7590.97 1978.16H8436.98C8451.65 1978.16 8463.55 1966.27 8463.55 1951.6C8463.55 1936.92 8451.65 1925.03 8436.98 1925.03Z" fill="#E6E6E6"/>
<path d="M5717.25 409.394H7122.75C7133.42 409.394 7143.99 411.494 7153.84 415.576C7163.7 419.658 7172.66 425.641 7180.2 433.184C7187.75 440.726 7193.73 449.681 7197.81 459.535C7201.9 469.39 7204 479.952 7204 490.619V828.559C7204 839.226 7201.9 849.788 7197.81 859.643C7193.73 869.497 7187.75 878.451 7180.2 885.994C7172.66 893.536 7163.7 899.519 7153.84 903.601C7143.99 907.683 7133.42 909.784 7122.75 909.784H7102.12V970.839C7102.12 974.544 7101.02 978.165 7098.96 981.246C7096.9 984.326 7093.98 986.727 7090.55 988.145C7087.13 989.563 7083.36 989.934 7079.73 989.211C7076.09 988.488 7072.76 986.704 7070.14 984.084L6995.82 909.784H5717.25C5706.58 909.784 5696.01 907.683 5686.15 903.601C5676.3 899.519 5667.34 893.537 5659.8 885.994C5652.25 878.452 5646.27 869.497 5642.18 859.643C5638.1 849.788 5636 839.226 5636 828.559V490.619C5636 479.952 5638.1 469.39 5642.18 459.535C5646.27 449.681 5652.25 440.726 5659.8 433.184C5667.34 425.641 5676.3 419.658 5686.15 415.576C5696.01 411.494 5706.58 409.394 5717.25 409.394Z" fill="#E6E6E6"/>
<path d="M7122.75 868.563H6055.27C5955.05 868.45 5858.96 828.595 5788.08 757.742C5717.21 686.889 5677.35 590.824 5677.23 490.621C5677.24 480.014 5681.46 469.845 5688.96 462.345C5696.47 454.845 5706.64 450.625 5717.25 450.613H7122.75C7133.36 450.625 7143.53 454.843 7151.03 462.343C7158.54 469.843 7162.76 480.012 7162.77 490.618V828.557C7162.76 839.164 7158.54 849.333 7151.03 856.833C7143.53 864.333 7133.36 868.551 7122.75 868.563Z" fill="white"/>
<path d="M6121.75 577.667H6715.29C6729.97 577.667 6741.87 565.771 6741.87 551.097C6741.87 536.423 6729.97 524.528 6715.29 524.528H6121.75C6107.08 524.528 6095.18 536.423 6095.18 551.097C6095.18 565.771 6107.08 577.667 6121.75 577.667Z" fill="#394A39"/>
<path d="M5995.52 683.944H6841.53C6856.2 683.944 6868.1 672.049 6868.1 657.375C6868.1 642.701 6856.2 630.805 6841.53 630.805H5995.52C5980.84 630.805 5968.94 642.701 5968.94 657.375C5968.94 672.049 5980.84 683.944 5995.52 683.944Z" fill="#E6E6E6"/>
<path d="M5995.52 790.222H6841.53C6856.2 790.222 6868.1 778.326 6868.1 763.652C6868.1 748.978 6856.2 737.083 6841.53 737.083H5995.52C5980.84 737.083 5968.94 748.978 5968.94 763.652C5968.94 778.326 5980.84 790.222 5995.52 790.222Z" fill="#E6E6E6"/>
<path d="M7527.23 1200.92L7927.89 1257.88L7950.29 1313.23L7760.94 1562.29L7670.39 1521.33L7776.85 1336.09L7524.4 1382.17L7527.23 1200.92Z" fill="#394A39"/>
<path d="M7705.09 1633.12C7738.92 1633.12 7766.34 1605.7 7766.34 1571.88C7766.34 1538.06 7738.92 1510.65 7705.09 1510.65C7671.27 1510.65 7643.84 1538.06 7643.84 1571.88C7643.84 1605.7 7671.27 1633.12 7705.09 1633.12Z" fill="#9E616A"/>
</svg>
