<svg width="1512" height="982" viewBox="0 0 1512 982" fill="none" xmlns="http://www.w3.org/2000/svg">
<g clip-path="url(#clip0_16_1331)">
<g clip-path="url(#clip1_16_1331)">
<path d="M755.542 475.791C948.236 475.791 1104.45 443.277 1104.45 403.168C1104.45 363.059 948.236 330.544 755.542 330.544C562.848 330.544 406.638 363.059 406.638 403.168C406.638 443.277 562.848 475.791 755.542 475.791Z" fill="#CACACA"/>
<path d="M776.066 438.793H735.018V981.893H776.066V438.793Z" fill="#CACACA"/>
<path d="M995.468 368.807C997.686 364.444 1000.8 360.6 1004.61 357.525C1008.42 354.451 1012.83 352.216 1017.56 350.966C1022.3 349.717 1027.24 349.481 1032.07 350.275C1036.9 351.069 1041.51 352.874 1045.59 355.573C1046.88 356.433 1048.1 357.383 1049.26 358.413L1199.95 322.728L1211.06 285.849L1271.17 295.717L1258.89 357.666C1257.39 365.087 1253.53 371.827 1247.9 376.884C1242.26 381.941 1235.15 385.047 1227.61 385.74L1057.13 400.756C1056.61 401.767 1056.03 402.75 1055.41 403.702C1052.71 407.785 1049.18 411.251 1045.05 413.874C1040.91 416.497 1036.27 418.217 1031.43 418.921C1026.59 419.625 1021.65 419.298 1016.94 417.961C1012.23 416.624 1007.86 414.307 1004.11 411.162C1003.01 410.253 1001.98 409.275 1001.01 408.235C996.17 403.016 993.044 396.44 992.053 389.391C991.062 382.342 992.254 375.158 995.468 368.807Z" fill="#FFB8B8"/>
<path d="M1322.21 631.136H1170.62C1170.62 635.493 1014.39 639.03 1014.39 639.03C1011.94 640.876 1009.7 642.995 1007.73 645.345C1001.79 652.423 998.548 661.369 998.568 670.606V676.921C998.572 687.387 1002.73 697.424 1010.13 704.826C1017.53 712.227 1027.57 716.386 1038.04 716.39H1322.21C1332.68 716.381 1342.71 712.22 1350.11 704.82C1357.51 697.42 1361.67 687.386 1361.68 676.921V670.606C1361.67 660.142 1357.5 650.111 1350.1 642.712C1342.71 635.314 1332.68 631.151 1322.21 631.136Z" fill="#E4E4E4"/>
<path d="M1198.36 714.822H1157.32V980.057H1198.36V714.822Z" fill="#E4E4E4"/>
<path d="M1040.49 978.615C1040.49 983.05 1102.69 980.33 1179.42 980.33C1256.15 980.33 1318.35 983.05 1318.35 978.615C1318.35 974.18 1256.15 939.009 1179.42 939.009C1102.69 939.009 1040.49 974.18 1040.49 978.615Z" fill="#E4E4E4"/>
<path d="M1080.7 944.37L1041.99 944.367L1023.57 843.966L1080.71 843.969L1080.7 944.37Z" fill="#FFB8B8"/>
<path d="M1090.57 981.893L965.756 981.889V980.31C965.756 973.93 967.013 967.612 969.454 961.718C971.895 955.824 975.474 950.468 979.985 945.957C984.496 941.445 989.852 937.867 995.746 935.425C1001.64 932.984 1007.96 931.727 1014.34 931.727H1014.34L1090.58 931.73L1090.57 981.893Z" fill="#2F2E41"/>
<path d="M1022.8 882.109L945.632 709.051C939.188 694.465 938.476 677.987 943.636 662.899C948.796 647.811 959.45 635.221 973.476 627.636L1140.87 537.874L1217.25 531.377L1287.71 524.972L1288.22 525.832C1288.87 526.93 1304.02 553.097 1293.78 581.79C1286.01 603.553 1265.8 620.553 1233.72 632.317C1158.85 659.773 1072.35 683.239 1038.63 692.052C1037.14 692.433 1035.75 693.125 1034.55 694.082C1033.34 695.04 1032.36 696.242 1031.65 697.608C1030.94 698.959 1030.52 700.441 1030.42 701.962C1030.31 703.483 1030.52 705.01 1031.03 706.446L1102.73 867.527C1103.48 869.57 1103.75 871.758 1103.52 873.921C1103.28 876.085 1102.56 878.167 1101.4 880.006C1100.24 881.846 1098.67 883.394 1096.81 884.531C1094.96 885.668 1092.87 886.364 1090.7 886.565L1037.13 890.466C1036.67 890.509 1036.22 890.531 1035.77 890.531C1033.03 890.53 1030.34 889.734 1028.04 888.239C1025.74 886.745 1023.92 884.615 1022.8 882.109Z" fill="#2F2E41"/>
<path d="M1105.96 944.37L1067.25 944.367L1048.83 843.966L1105.97 843.969L1105.96 944.37Z" fill="#FFB8B8"/>
<path d="M1115.83 981.893L991.016 981.889V980.31C991.016 973.93 992.273 967.612 994.714 961.718C997.155 955.824 1000.73 950.468 1005.24 945.957C1009.76 941.445 1015.11 937.867 1021.01 935.425C1026.9 932.984 1033.22 931.727 1039.6 931.727H1039.6L1115.84 931.73L1115.83 981.893Z" fill="#2F2E41"/>
<path d="M1051.22 891.582L974.049 718.523C967.606 703.937 966.894 687.46 972.054 672.372C977.214 657.284 987.868 644.694 1001.89 637.108L1169.28 547.346L1245.67 540.849L1300.85 536.062L1300.85 535.305C1301.5 536.403 1316.65 562.57 1306.41 591.262C1298.64 613.026 1294.22 630.026 1262.14 641.79C1187.26 669.245 1100.76 692.712 1067.05 701.524C1065.56 701.905 1064.17 702.597 1062.96 703.555C1061.76 704.513 1060.77 705.714 1060.07 707.081C1059.36 708.431 1058.94 709.914 1058.83 711.435C1058.73 712.956 1058.94 714.482 1059.45 715.918L1131.14 877C1131.89 879.043 1132.16 881.23 1131.93 883.394C1131.7 885.558 1130.98 887.64 1129.82 889.479C1128.65 891.318 1127.08 892.866 1125.23 894.004C1123.37 895.141 1121.28 895.837 1119.12 896.038L1065.54 899.938C1065.09 899.982 1064.64 900.003 1064.19 900.003C1061.44 900.002 1058.76 899.206 1056.46 897.712C1054.16 896.217 1052.34 894.088 1051.22 891.582Z" fill="#2F2E41"/>
<path d="M1196.66 539.22C1192.96 536.602 1139.82 564.48 1130.35 542.377C1174.55 431.863 1144.09 384.141 1171.17 320.766C1175.94 309.835 1183.12 300.128 1192.18 292.373C1201.24 284.618 1211.94 279.018 1223.48 275.993L1293.73 272.447L1294.1 272.622C1309.95 280.387 1322.88 293.055 1330.97 308.746C1339.05 324.437 1341.87 342.317 1338.99 359.734C1338.74 428.705 1297.48 481.309 1311.91 531.335C1312.51 533.427 1312.69 535.619 1312.43 537.78C1312.16 539.941 1311.47 542.027 1310.38 543.913C1309.32 545.736 1307.91 547.323 1306.21 548.577C1304.52 549.831 1302.59 550.725 1300.54 551.204L1207.78 538.83C1205.61 539.345 1203.36 539.393 1201.17 538.97C1198.99 538.546 1196.91 537.662 1195.1 536.375L1196.66 539.22Z" fill="#FFAC63"/>
<path d="M1270.29 246.206C1313.12 246.206 1347.84 211.485 1347.84 168.654C1347.84 125.822 1313.12 91.1007 1270.29 91.1007C1227.46 91.1007 1192.74 125.822 1192.74 168.654C1192.74 211.485 1227.46 246.206 1270.29 246.206Z" fill="#FFB8B8"/>
<path d="M1294.99 239.837C1290.87 241.64 1282.43 208.807 1286.21 202.24C1291.83 192.474 1291.5 192.544 1295.23 186.083C1298.96 179.622 1299.8 170.778 1294.96 165.093C1290.13 159.407 1278.95 160.162 1276.74 167.29C1278.16 153.751 1264.77 142.867 1251.51 139.809C1238.24 136.751 1224.25 138.65 1210.91 135.928C1195.43 132.769 1179.33 119.794 1185.5 102.771C1186.56 99.9373 1188.15 97.3295 1190.18 95.0856C1197.32 87.0624 1207.3 83.6365 1217.06 80.324C1237.36 73.4328 1258.22 66.455 1279.64 67.2157C1297.3 68.1388 1314.3 74.1886 1328.57 84.6246C1342.84 95.0607 1353.76 109.43 1359.99 125.975C1361.47 130.114 1362.61 134.364 1363.41 138.685C1370.77 178.231 1347.8 217.239 1310.5 232.298L1294.99 239.837Z" fill="#2F2E41"/>
<path d="M965.828 180.353C963.083 161.861 962.357 143.126 963.665 124.477L965.828 93.6124C953.91 117.327 956.603 148.54 965.828 180.353Z" fill="#E5E5E5"/>
<path d="M975.121 185.517C973.8 174.482 973.451 163.352 974.081 152.256L975.121 133.885C969.387 148.001 970.683 166.58 975.121 185.517Z" fill="#E5E5E5"/>
<path d="M1016.43 208.237V218.563C1016.43 219.384 1016.1 220.169 1015.52 220.749C1014.94 221.329 1014.15 221.657 1013.33 221.661H1008.17C1008.03 221.661 1007.9 221.687 1007.77 221.739C1007.65 221.791 1007.53 221.867 1007.44 221.963C1007.34 222.059 1007.27 222.173 1007.21 222.298C1007.16 222.424 1007.14 222.558 1007.14 222.694V307.37C1007.13 308.19 1006.81 308.976 1006.23 309.556C1005.65 310.136 1004.86 310.463 1004.04 310.468H941.05C940.228 310.467 939.441 310.14 938.86 309.559C938.279 308.979 937.952 308.191 937.952 307.37V222.694C937.951 222.42 937.842 222.158 937.649 221.965C937.455 221.771 937.193 221.662 936.919 221.661H930.724C929.902 221.661 929.115 221.334 928.534 220.753C927.953 220.173 927.626 219.385 927.626 218.563V208.237C927.625 207.83 927.705 207.427 927.861 207.051C928.016 206.675 928.244 206.333 928.532 206.045C928.82 205.758 929.161 205.529 929.537 205.374C929.913 205.219 930.317 205.139 930.724 205.139H1013.33C1014.15 205.142 1014.94 205.469 1015.52 206.049C1016.1 206.63 1016.43 207.416 1016.43 208.237Z" fill="#3F3D56"/>
<path d="M1007.23 223.83H938.044V226.928H1007.23V223.83Z" fill="#FFAC63"/>
<path d="M1007.14 269.415C996.046 274.182 984.1 276.64 972.028 276.64C959.956 276.64 948.011 274.182 936.919 269.415V247.59C959.7 239.939 984.357 239.939 1007.14 247.59V269.415Z" fill="#FFAC63"/>
<path d="M1123.81 431.457L989.063 325.155C987.989 325.533 986.897 325.855 985.791 326.12C981.035 327.233 976.098 327.332 971.302 326.412C966.505 325.492 961.955 323.573 957.949 320.78C953.915 317.985 950.526 314.36 948.006 310.149C945.487 305.937 943.896 301.237 943.341 296.361C942.308 287.552 944.684 278.682 949.981 271.569C955.278 264.455 963.095 259.638 971.83 258.103C980.566 256.568 989.557 258.433 996.961 263.315C1004.37 268.197 1009.62 275.727 1011.65 284.36C1012 285.87 1012.24 287.402 1012.38 288.945L1146.51 366.328L1179.89 347.11L1216.87 395.522L1165.04 432.463C1158.97 436.752 1151.69 438.97 1144.26 438.789C1136.83 438.608 1129.66 436.037 1123.81 431.457Z" fill="#FFB8B8"/>
<path d="M1233.31 410.598L1156.43 358.317L1192.56 307.143C1197.36 300.348 1204.4 295.467 1212.45 293.364C1220.5 291.261 1229.03 292.07 1236.54 295.649C1244.14 299.27 1250.19 305.487 1253.6 313.179C1257.01 320.87 1257.56 329.528 1255.15 337.59L1233.31 410.598Z" fill="#FFAC63"/>
<path d="M149.472 608.279H267.974C267.974 613.357 397.513 617.478 397.513 617.478C400.37 619.63 402.975 622.099 405.276 624.837C412.191 633.085 415.971 643.51 415.948 654.273V661.632C415.943 673.828 411.096 685.524 402.472 694.149C393.848 702.773 382.152 707.621 369.955 707.625H149.472C137.277 707.615 125.585 702.765 116.962 694.142C108.339 685.519 103.49 673.827 103.479 661.632V654.273C103.496 642.08 108.347 630.391 116.969 621.769C125.59 613.147 137.279 608.296 149.472 608.279Z" fill="#E4E4E4"/>
<path d="M283.478 705.798H235.646V981.893H283.478V705.798Z" fill="#E4E4E4"/>
<path d="M423.049 976.78C423.049 981.948 350.567 978.779 261.155 978.779C171.744 978.779 99.2615 981.948 99.2615 976.78C99.2615 971.611 171.744 930.627 261.155 930.627C350.567 930.627 423.049 971.611 423.049 976.78Z" fill="#E4E4E4"/>
<path d="M455.181 945.232H490.779L507.716 807.919L455.175 807.922L455.181 945.232Z" fill="#9F616A"/>
<path d="M446.1 933.61L516.207 933.607C528.056 933.608 539.422 938.315 547.801 946.694C556.179 955.072 560.887 966.436 560.887 978.285V979.737L446.102 979.741L446.1 933.61Z" fill="#2F2E41"/>
<path d="M560.395 945.232H595.996L612.93 807.919L560.389 807.922L560.395 945.232Z" fill="#9F616A"/>
<path d="M551.315 933.61L621.422 933.607C633.271 933.608 644.637 938.315 653.016 946.694C661.394 955.072 666.102 966.436 666.102 978.285V979.737L551.317 979.741L551.315 933.61Z" fill="#2F2E41"/>
<path d="M436.495 510.653C436 506.727 434.65 502.958 432.541 499.61C430.431 496.262 427.614 493.418 424.286 491.277C420.958 489.136 417.202 487.751 413.281 487.219C409.36 486.687 405.37 487.022 401.592 488.198L361.972 440.703L327.237 457.741L384.13 524.028C386.528 530.243 391.122 535.363 397.043 538.418C402.963 541.472 409.799 542.248 416.253 540.6C422.708 538.951 428.334 534.992 432.064 529.473C435.795 523.953 437.372 517.257 436.495 510.653Z" fill="#9F616A"/>
<path d="M303.264 228.94L326.503 238.479L332.13 304.128L394.374 474.364L341.508 491.961L282.772 377.768L303.264 228.94Z" fill="#E4E4E4"/>
<path d="M242.919 153.047C277.103 153.047 304.815 125.334 304.815 91.1493C304.815 56.9643 277.103 29.252 242.919 29.252C208.735 29.252 181.023 56.9643 181.023 91.1493C181.023 125.334 208.735 153.047 242.919 153.047Z" fill="#9F616A"/>
<path d="M233.396 62.3468C233.396 62.3468 236.113 24.7441 269.622 40.0764C303.132 55.4086 300.945 13.1479 290.819 5.67994C280.693 -1.78803 281.013 -3.63615 243.977 1.36037C206.94 6.35689 135.036 14.8227 158.286 89.2932C181.536 163.764 215.776 144.376 215.776 144.376C215.776 144.376 184.112 77.5924 202.837 90.3596L221.562 103.127L231.444 101.034L233.396 62.3468Z" fill="#2F2E41"/>
<path d="M141.333 516.913C141.333 516.913 120.565 626.734 199.584 640.719C278.603 654.703 392.669 664.532 392.669 664.532L443.893 903.525L512.71 897.381C512.71 897.381 503.558 609.687 481.05 587.179C458.542 564.671 351.524 498.802 351.524 498.802L141.333 516.913Z" fill="#2F2E41"/>
<path d="M295.662 470.887L330.222 505.557C330.222 505.557 579.76 545.752 589.386 603.388C603.92 690.405 621.087 879.629 621.087 879.629L546.061 874.002L516.64 658.905L396.599 631.599L260.025 557.168L295.662 470.887Z" fill="#2F2E41"/>
<path d="M293.74 205.024L273.666 178.408L208.568 177.343C188.262 188.151 171.277 204.279 159.434 224C147.59 243.72 141.333 266.291 141.333 289.295V457.705C141.333 457.705 142.258 480.116 137.357 531.58C133.128 575.985 369.432 505.557 369.432 505.557L338.756 255.634C338.756 255.634 341.221 215.823 293.74 205.024Z" fill="#E4E4E4"/>
<path d="M539.565 249.82C536.82 231.328 536.095 212.592 537.402 193.943L539.565 163.079C527.647 186.794 530.34 218.007 539.565 249.82Z" fill="#E5E5E5"/>
<path d="M548.859 254.983C547.537 243.948 547.189 232.819 547.818 221.723L548.859 203.351C543.124 217.467 544.42 236.047 548.859 254.983Z" fill="#E5E5E5"/>
<path d="M590.168 277.703V288.03C590.164 288.85 589.836 289.636 589.256 290.216C588.676 290.796 587.89 291.123 587.07 291.128H581.907C581.771 291.127 581.637 291.153 581.511 291.205C581.386 291.257 581.272 291.333 581.176 291.429C581.08 291.525 581.004 291.639 580.952 291.764C580.9 291.89 580.874 292.024 580.874 292.16V376.836C580.87 377.656 580.543 378.442 579.962 379.022C579.382 379.602 578.597 379.93 577.777 379.934H514.787C513.966 379.933 513.178 379.607 512.597 379.026C512.016 378.445 511.69 377.657 511.689 376.836V292.16C511.688 291.887 511.579 291.624 511.386 291.431C511.192 291.237 510.93 291.128 510.657 291.128H504.461C503.64 291.127 502.852 290.8 502.271 290.22C501.69 289.639 501.364 288.851 501.363 288.03V277.703C501.363 277.296 501.442 276.893 501.598 276.517C501.753 276.141 501.982 275.799 502.269 275.512C502.557 275.224 502.899 274.996 503.275 274.84C503.651 274.685 504.054 274.605 504.461 274.605H587.07C587.891 274.608 588.677 274.935 589.258 275.516C589.838 276.096 590.165 276.882 590.168 277.703Z" fill="#3F3D56"/>
<path d="M580.967 293.296H511.782V296.394H580.967V293.296Z" fill="#FFAC63"/>
<path d="M580.874 338.881C569.783 343.648 557.837 346.106 545.765 346.106C533.693 346.106 521.747 343.648 510.656 338.881V317.056C533.437 309.405 558.093 309.405 580.874 317.056V338.881Z" fill="#FFAC63"/>
<path d="M541.661 310.555C538.157 308.717 534.292 307.67 530.34 307.487C526.387 307.304 522.442 307.991 518.784 309.497C515.125 311.004 511.841 313.294 509.163 316.208C506.485 319.121 504.479 322.586 503.285 326.358L441.667 331.716L435.79 369.956L522.701 361.167C529.171 362.753 535.998 361.91 541.889 358.798C547.779 355.686 552.324 350.522 554.661 344.283C556.998 338.045 556.965 331.165 554.569 324.949C552.174 318.733 547.581 313.612 541.661 310.555Z" fill="#9F616A"/>
<path d="M173.59 254.468L156.161 267.471C156.161 267.471 146.488 290.875 165.442 321.944C184.395 353.012 304.497 418.51 304.497 418.51L498.949 368.851L471.241 314.488L329.551 318.451C329.551 318.451 249.433 218.579 173.59 254.468Z" fill="#E4E4E4"/>
</g>
</g>
<defs>
<clipPath id="clip0_16_1331">
<rect width="1512" height="982" fill="white"/>
</clipPath>
<clipPath id="clip1_16_1331">
<rect width="1263" height="982" fill="white" transform="translate(100 -1)"/>
</clipPath>
</defs>
</svg>
