<svg width="967" height="577" viewBox="0 0 967 577" fill="none" xmlns="http://www.w3.org/2000/svg">
<g clip-path="url(#clip0_16_1195)">
<path d="M483.867 390.245C631.401 390.245 751.001 365.313 751.001 334.557C751.001 303.801 631.401 278.869 483.867 278.869C336.333 278.869 216.733 303.801 216.733 334.557C216.733 365.313 336.333 390.245 483.867 390.245Z" fill="#CACACA"/>
<path d="M499.581 361.875H468.153V778.325H499.581V361.875Z" fill="#CACACA"/>
<path d="M642.887 323.509C644.585 320.164 646.971 317.216 649.886 314.858C652.802 312.501 656.182 310.787 659.805 309.829C663.428 308.87 667.212 308.69 670.91 309.299C674.608 309.907 678.135 311.292 681.261 313.361C682.248 314.021 683.187 314.749 684.073 315.539L799.444 288.175L807.953 259.896L853.977 267.463L844.57 314.966C843.421 320.657 840.47 325.824 836.156 329.702C831.841 333.58 826.394 335.961 820.621 336.493L690.097 348.007C689.697 348.783 689.258 349.536 688.781 350.266C686.714 353.397 684.01 356.055 680.846 358.066C677.682 360.077 674.129 361.396 670.42 361.936C666.712 362.476 662.931 362.226 659.326 361.2C655.721 360.175 652.373 358.398 649.501 355.987C648.665 355.289 647.873 354.54 647.131 353.743C643.425 349.741 641.031 344.698 640.273 339.293C639.514 333.887 640.426 328.379 642.887 323.509Z" fill="#FFB8B8"/>
<path d="M893.054 524.663H776.991C776.991 528.005 657.373 530.716 657.373 530.716C655.495 532.132 653.784 533.757 652.272 535.559C647.729 540.986 645.245 547.846 645.26 554.929V559.771C645.263 567.797 648.448 575.493 654.115 581.169C659.781 586.844 667.466 590.033 675.479 590.036H893.054C901.067 590.029 908.749 586.839 914.414 581.164C920.08 575.49 923.266 567.796 923.273 559.771V554.929C923.262 546.905 920.075 539.214 914.41 533.54C908.745 527.867 901.065 524.674 893.054 524.663Z" fill="#E4E4E4"/>
<path d="M663.816 717.11L604.73 584.409C599.797 573.224 599.252 560.589 603.203 549.019C607.153 537.45 615.311 527.796 626.049 521.979L754.209 453.15L812.691 448.168L866.637 443.257L867.026 443.916C867.524 444.758 879.123 464.823 871.282 486.824C865.335 503.513 849.866 516.548 825.304 525.569C767.975 546.622 701.748 564.616 675.936 571.374C674.795 571.666 673.729 572.196 672.807 572.931C671.886 573.665 671.13 574.587 670.59 575.634C670.048 576.67 669.726 577.807 669.645 578.973C669.563 580.139 669.723 581.31 670.116 582.411L725.009 705.929C725.582 707.495 725.788 709.173 725.612 710.832C725.436 712.491 724.881 714.087 723.991 715.498C723.101 716.908 721.9 718.095 720.48 718.967C719.06 719.839 717.458 720.373 715.8 720.527L674.783 723.518C674.435 723.551 674.088 723.568 673.743 723.568C671.642 723.567 669.587 722.957 667.825 721.811C666.063 720.665 664.671 719.032 663.816 717.11Z" fill="#2F2E41"/>
<path d="M685.574 724.374L626.488 591.672C621.555 580.488 621.009 567.852 624.96 556.283C628.911 544.714 637.068 535.059 647.807 529.243L775.967 460.413L834.449 455.431L876.702 451.76L876.696 451.18C877.194 452.022 888.793 472.087 880.952 494.088C875.005 510.776 871.623 523.812 847.062 532.832C789.732 553.886 723.505 571.88 697.693 578.637C696.552 578.929 695.486 579.46 694.565 580.194C693.644 580.929 692.888 581.85 692.348 582.898C691.806 583.934 691.484 585.07 691.402 586.236C691.321 587.403 691.481 588.573 691.873 589.675L746.766 713.192C747.339 714.759 747.546 716.436 747.37 718.095C747.193 719.754 746.639 721.351 745.749 722.761C744.859 724.172 743.658 725.359 742.238 726.231C740.817 727.103 739.216 727.636 737.557 727.791L696.541 730.782C696.192 730.815 695.846 730.831 695.501 730.831C693.4 730.831 691.345 730.22 689.583 729.074C687.821 727.928 686.429 726.296 685.574 724.374Z" fill="#2F2E41"/>
<path d="M796.924 454.182C794.091 452.175 753.409 473.551 746.157 456.603C780.002 371.86 756.679 335.267 777.411 286.671C781.062 278.289 786.563 270.845 793.5 264.899C800.437 258.953 808.629 254.658 817.461 252.339L871.249 249.619L871.528 249.754C883.666 255.708 893.564 265.422 899.756 277.454C905.948 289.486 908.104 303.196 905.903 316.552C905.712 369.439 874.117 409.776 885.164 448.136C885.628 449.74 885.763 451.42 885.562 453.078C885.361 454.735 884.828 456.335 883.994 457.781C883.187 459.178 882.101 460.395 880.806 461.357C879.511 462.318 878.032 463.004 876.462 463.371L805.44 453.883C803.781 454.278 802.056 454.315 800.382 453.99C798.708 453.665 797.122 452.987 795.73 452.001L796.924 454.182Z" fill="#FFAC63"/>
<path d="M853.299 229.498C886.091 229.498 912.675 202.874 912.675 170.031C912.675 137.188 886.091 110.563 853.299 110.563C820.506 110.563 793.922 137.188 793.922 170.031C793.922 202.874 820.506 229.498 853.299 229.498Z" fill="#FFB8B8"/>
<path d="M872.211 224.614C869.056 225.997 862.596 200.82 865.49 195.785C869.794 188.296 869.539 188.35 872.396 183.396C875.253 178.441 875.893 171.659 872.193 167.3C868.493 162.941 859.931 163.519 858.243 168.985C859.329 158.603 849.076 150.258 838.92 147.913C828.764 145.567 818.051 147.023 807.839 144.937C795.987 142.515 783.656 132.565 788.385 119.512C789.196 117.339 790.411 115.339 791.965 113.619C797.429 107.466 805.071 104.839 812.543 102.299C828.088 97.0151 844.058 91.6645 860.463 92.2478C873.98 92.9557 886.998 97.5947 897.924 105.597C908.849 113.599 917.209 124.618 921.979 137.305C923.11 140.479 923.986 143.738 924.599 147.051C930.229 177.375 912.647 207.286 884.091 218.833L872.211 224.614Z" fill="#2F2E41"/>
<path d="M620.193 179.002C618.092 164.822 617.536 150.456 618.537 136.156L620.193 112.489C611.068 130.674 613.13 154.608 620.193 179.002Z" fill="#E5E5E5"/>
<path d="M627.309 182.961C626.297 174.5 626.03 165.966 626.512 157.457L627.309 143.37C622.918 154.194 623.911 168.441 627.309 182.961Z" fill="#E5E5E5"/>
<path d="M658.937 200.383V208.302C658.933 208.931 658.683 209.533 658.238 209.978C657.794 210.423 657.193 210.674 656.565 210.677H652.612C652.508 210.677 652.405 210.697 652.309 210.737C652.213 210.776 652.125 210.835 652.052 210.908C651.979 210.982 651.92 211.069 651.881 211.165C651.841 211.262 651.821 211.365 651.821 211.469V276.398C651.818 277.027 651.567 277.63 651.123 278.075C650.679 278.519 650.078 278.771 649.449 278.774H601.222C600.593 278.773 599.99 278.523 599.546 278.078C599.101 277.632 598.851 277.028 598.85 276.398V211.469C598.85 211.259 598.766 211.058 598.618 210.91C598.47 210.761 598.269 210.678 598.06 210.677H593.316C592.687 210.677 592.084 210.426 591.64 209.981C591.195 209.536 590.945 208.932 590.944 208.302V200.383C590.944 200.071 591.005 199.762 591.124 199.474C591.243 199.186 591.418 198.923 591.638 198.703C591.858 198.482 592.12 198.307 592.408 198.188C592.696 198.069 593.005 198.008 593.316 198.008H656.565C657.193 198.01 657.796 198.261 658.24 198.706C658.684 199.151 658.935 199.754 658.937 200.383Z" fill="#3F3D56"/>
<path d="M651.892 212.34H598.921V214.715H651.892V212.34Z" fill="#FFAC63"/>
<path d="M651.821 247.295C643.33 250.95 634.184 252.835 624.941 252.835C615.698 252.835 606.552 250.95 598.06 247.295V230.559C615.502 224.692 634.38 224.692 651.821 230.559V247.295Z" fill="#FFAC63"/>
<path d="M741.148 371.549L637.983 290.037C637.161 290.326 636.325 290.573 635.478 290.777C631.837 291.63 628.057 291.706 624.384 291C620.712 290.295 617.228 288.823 614.161 286.681C611.073 284.538 608.477 281.759 606.549 278.529C604.62 275.3 603.402 271.696 602.976 267.957C602.186 261.203 604.004 254.401 608.06 248.946C612.116 243.492 618.101 239.797 624.789 238.621C631.477 237.444 638.361 238.874 644.03 242.617C649.7 246.361 653.724 252.135 655.28 258.755C655.545 259.912 655.73 261.087 655.833 262.271L758.532 321.608L784.089 306.872L812.401 343.994L772.719 372.32C768.074 375.609 762.493 377.31 756.806 377.171C751.119 377.032 745.628 375.061 741.148 371.549Z" fill="#FFB8B8"/>
<path d="M824.989 355.554L766.126 315.465L793.789 276.225C797.462 271.014 802.856 267.272 809.018 265.659C815.18 264.046 821.713 264.667 827.462 267.411C833.277 270.188 837.91 274.955 840.523 280.853C843.136 286.751 843.558 293.39 841.711 299.572L824.989 355.554Z" fill="#FFAC63"/>
<path d="M38.4427 494.425H129.173C129.173 498.319 228.352 501.479 228.352 501.479C230.54 503.129 232.534 505.022 234.296 507.122C239.591 513.446 242.484 521.44 242.467 529.693V535.336C242.463 544.689 238.752 553.657 232.149 560.27C225.546 566.884 216.591 570.601 207.253 570.604H38.4427C29.1059 570.596 20.1539 566.878 13.5518 560.265C6.94973 553.653 3.23715 544.687 3.22903 535.336V529.693C3.24199 520.344 6.95616 511.381 13.5572 504.77C20.1582 498.158 29.1074 494.438 38.4427 494.425Z" fill="#E4E4E4"/>
<path d="M141.043 569.203H104.421V780.914H141.043V569.203Z" fill="#E4E4E4"/>
<path d="M258.199 419.565C257.82 416.555 256.786 413.665 255.171 411.097C253.556 408.53 251.399 406.349 248.851 404.708C246.303 403.066 243.427 402.004 240.425 401.596C237.423 401.188 234.368 401.445 231.476 402.347L201.141 365.927L174.547 378.992L218.106 429.821C219.942 434.587 223.46 438.513 227.993 440.855C232.526 443.197 237.759 443.793 242.701 442.529C247.643 441.264 251.95 438.229 254.806 433.996C257.663 429.764 258.87 424.629 258.199 419.565Z" fill="#9F616A"/>
<path d="M156.192 203.547L173.985 210.862L178.293 261.201L225.949 391.739L185.473 405.233L140.502 317.669L156.192 203.547Z" fill="#E4E4E4"/>
<path d="M109.99 145.352C136.162 145.352 157.38 124.102 157.38 97.8889C157.38 71.6758 136.162 50.4259 109.99 50.4259C83.8167 50.4259 62.5995 71.6758 62.5995 97.8889C62.5995 124.102 83.8167 145.352 109.99 145.352Z" fill="#9F616A"/>
<path d="M102.699 75.8031C102.699 75.8031 104.778 46.9693 130.435 58.7261C156.091 70.4829 154.417 38.0773 146.663 32.3508C138.91 26.6244 139.156 25.2072 110.799 29.0385C82.4429 32.8699 27.3903 39.3615 45.1912 96.4657C62.9921 153.57 89.2079 138.703 89.2079 138.703C89.2079 138.703 64.9644 87.4935 79.3012 97.2834L93.638 107.073L101.204 105.468L102.699 75.8031Z" fill="#2F2E41"/>
<path d="M32.2114 424.366C32.2114 424.366 16.3105 508.576 76.8106 519.3C137.311 530.024 224.644 537.56 224.644 537.56L263.863 720.821L316.552 716.11C316.552 716.11 309.545 495.505 292.312 478.246C275.079 460.986 193.142 410.478 193.142 410.478L32.2114 424.366Z" fill="#2F2E41"/>
<path d="M150.372 389.073L176.832 415.658C176.832 415.658 367.887 446.479 375.258 490.675C386.386 557.4 399.529 702.497 399.529 702.497L342.086 698.182L319.561 533.246L227.652 512.307L123.087 455.233L150.372 389.073Z" fill="#2F2E41"/>
<path d="M148.9 185.208L133.531 164.799L83.6892 163.982C68.1418 172.27 55.1379 184.637 46.07 199.759C37.002 214.881 32.2115 232.188 32.2115 249.827V378.965C32.2115 378.965 32.9199 396.15 29.1675 435.612C25.9296 469.662 206.853 415.658 206.853 415.658L183.366 224.016C183.366 224.016 185.253 193.489 148.9 185.208Z" fill="#E4E4E4"/>
<path d="M337.113 219.558C335.011 205.378 334.456 191.011 335.457 176.711L337.113 153.044C327.988 171.229 330.05 195.163 337.113 219.558Z" fill="#E5E5E5"/>
<path d="M344.228 223.517C343.217 215.055 342.95 206.521 343.432 198.013L344.228 183.926C339.838 194.75 340.83 208.996 344.228 223.517Z" fill="#E5E5E5"/>
<path d="M375.856 240.939V248.857C375.853 249.486 375.602 250.089 375.158 250.533C374.714 250.978 374.113 251.229 373.484 251.233H369.531C369.427 251.232 369.325 251.253 369.228 251.292C369.132 251.332 369.045 251.39 368.972 251.464C368.898 251.537 368.84 251.625 368.8 251.721C368.761 251.817 368.741 251.92 368.741 252.024V316.954C368.738 317.583 368.487 318.185 368.043 318.63C367.599 319.075 366.997 319.326 366.369 319.33H318.142C317.513 319.329 316.91 319.079 316.465 318.633C316.021 318.188 315.771 317.584 315.77 316.954V252.025C315.77 251.815 315.686 251.614 315.538 251.465C315.39 251.317 315.189 251.233 314.98 251.233H310.236C309.607 251.232 309.004 250.982 308.559 250.537C308.115 250.091 307.865 249.487 307.864 248.857V240.939C307.864 240.627 307.925 240.318 308.044 240.03C308.163 239.741 308.338 239.479 308.558 239.258C308.778 239.038 309.04 238.863 309.328 238.744C309.616 238.624 309.924 238.563 310.236 238.564H373.485C374.113 238.565 374.715 238.816 375.16 239.261C375.604 239.706 375.854 240.31 375.856 240.939Z" fill="#3F3D56"/>
<path d="M368.812 252.896H315.841V255.271H368.812V252.896Z" fill="#FFAC63"/>
<path d="M368.74 287.85C360.249 291.506 351.103 293.391 341.86 293.391C332.617 293.391 323.471 291.506 314.979 287.85V271.115C332.421 265.248 351.299 265.248 368.74 271.115V287.85Z" fill="#FFAC63"/>
<path d="M338.718 266.13C336.035 264.721 333.076 263.918 330.05 263.777C327.023 263.637 324.003 264.163 321.202 265.319C318.4 266.474 315.886 268.23 313.836 270.464C311.786 272.698 310.249 275.355 309.335 278.248L262.158 282.356L257.659 311.679L324.201 304.939C329.155 306.155 334.382 305.509 338.892 303.123C343.402 300.737 346.881 296.776 348.671 291.993C350.46 287.209 350.435 281.934 348.601 277.167C346.766 272.401 343.25 268.474 338.718 266.13Z" fill="#9F616A"/>
<path d="M56.9084 223.122L43.5641 233.093C43.5641 233.093 36.1587 251.039 50.6701 274.863C65.1815 298.686 157.136 348.91 157.136 348.91L306.016 310.831L284.801 269.146L176.318 272.184C176.318 272.184 114.977 195.602 56.9084 223.122Z" fill="#E4E4E4"/>
</g>
<defs>
<clipPath id="clip0_16_1195">
<rect width="967" height="753" fill="white"/>
</clipPath>
</defs>
</svg>
