<svg width="813" height="534" viewBox="0 0 813 534" fill="none" xmlns="http://www.w3.org/2000/svg">
<g clip-path="url(#clip0_16_1035)">
<path d="M187.75 343.074L178.855 346.581L251.304 530.517L260.199 527.009L187.75 343.074Z" fill="#E6E6E6"/>
<path d="M128.925 527.009L137.82 530.517L210.269 346.581L201.374 343.074L128.925 527.009Z" fill="#E6E6E6"/>
<path d="M190.844 376.692C225.753 376.692 254.053 365.746 254.053 352.244C254.053 338.742 225.753 327.797 190.844 327.797C155.935 327.797 127.635 338.742 127.635 352.244C127.635 365.746 155.935 376.692 190.844 376.692Z" fill="#E6E6E6"/>
<path d="M152.492 70.509C153.925 79.474 158.857 87.503 166.204 92.831C173.552 98.159 182.713 100.349 191.674 98.9201C192.689 98.7581 193.69 98.551 194.676 98.298C202.958 96.202 210.155 91.081 214.854 83.943C219.552 76.806 221.412 68.167 220.067 59.727C219.642 57.04 218.895 54.414 217.842 51.906C214.612 44.178 208.663 37.904 201.121 34.271C193.579 30.637 184.967 29.896 176.915 32.188C168.864 34.48 161.932 39.646 157.431 46.708C152.93 53.77 151.173 62.238 152.492 70.509Z" fill="#FFB6B6"/>
<path d="M336.964 503.339L352.332 498.767L342.167 435.916L319.487 442.664L336.964 503.339Z" fill="#FFB6B6"/>
<path d="M242.723 478.531C243.659 479.346 244.596 480.151 245.544 480.958C247.429 482.57 249.339 484.164 251.252 485.737C252.214 486.524 253.186 487.313 254.149 488.09L254.144 488.121L254.205 488.142L254.225 488.156L255.777 488.811L259.067 483.047L260.584 480.393L262.728 476.632L266.657 469.754L287.34 433.536L265.552 424.347L264.152 427.687L264.141 427.686L263.449 429.341L250.438 460.232L247.782 466.548L247.698 466.739L246.101 470.51L244.723 473.779L243.188 477.431L242.723 478.531Z" fill="#FFB6B6"/>
<path d="M128.881 321.789C129.953 324.327 131.058 326.859 132.176 329.371C134.254 334.048 136.415 338.674 138.66 343.248C138.658 343.259 138.668 343.26 138.677 343.272C140.119 345.106 141.769 346.765 143.595 348.217C143.669 348.293 143.757 348.35 143.833 348.416C145.18 349.466 146.652 350.347 148.215 351.037C148.779 351.277 149.354 351.518 149.918 351.758C151.958 352.598 153.988 353.361 156.017 354.07C159.626 355.32 163.23 356.379 166.829 357.247C167.117 357.325 167.408 357.393 167.698 357.461C182.539 360.942 197.436 361.484 213.152 360.994C220.912 360.76 228.873 360.268 237.118 359.756C239.813 359.58 242.517 359.417 245.253 359.258C245.459 359.248 245.677 359.229 245.894 359.22C249.802 358.989 253.772 358.779 257.835 358.594C262.948 358.361 268.214 358.184 273.672 358.091L272.109 365.516C270.883 371.224 268.788 376.711 265.898 381.783C262.582 388.059 259.957 393.024 262.014 404.553L263.002 410.133C261.64 412.611 260.87 415.371 260.753 418.196C260.636 421.021 261.176 423.835 262.328 426.417L262.608 427.031L241.282 463.158L239.9 465.501L247.696 466.736L257.285 468.266L273.538 470.842L304.44 427.484L305.919 425.415L305.937 425.299L317.834 334.45C317.929 333.648 317.994 332.829 318.015 332.015C318.162 328.32 317.571 324.633 316.279 321.168C314.986 317.704 313.017 314.532 310.485 311.838C308.063 309.238 305.148 307.145 301.91 305.683C298.672 304.22 295.176 303.416 291.624 303.317L283.433 303.084L266.697 302.606L254.908 302.277L254.672 302.271L219.905 301.282L219.039 290.921L218.614 290.681L205.103 283.148L158.375 257.093L158.256 257.031L155.182 255.317L154.694 255.885C154.549 256.056 154.403 256.227 154.268 256.399C150.127 261.673 146.536 267.357 143.549 273.361C138.574 283.155 134.162 293.224 130.332 303.519C130.164 303.966 130.014 304.373 129.88 304.739L129.831 304.85C129.771 305.023 129.732 305.135 129.716 305.165C127.818 309.75 127.695 315.693 128.881 321.789Z" fill="#2F2E41"/>
<path d="M132.064 288.119C132.328 287.472 132.636 286.821 132.95 286.193C135.409 281.447 138.127 276.841 141.093 272.395C144.433 267.328 148.328 261.951 152.867 256.181C155.062 253.387 157.406 250.49 159.9 247.492C161.148 245.989 162.441 244.461 163.777 242.908C163.831 242.836 163.888 242.766 163.95 242.699L164.333 242.243L212.377 256.594L226.432 261.896L229.916 271.222L229.821 273.521C229.832 273.523 229.832 273.523 229.82 273.532L229.58 279.8L229.579 279.81L229.268 288.091L229.354 288.094L257.034 288.875L285.559 289.683L300.881 290.12C304.433 290.218 307.929 291.022 311.168 292.484C314.406 293.947 317.321 296.04 319.743 298.641C322.273 301.336 324.242 304.508 325.535 307.972C326.827 311.436 327.418 315.123 327.272 318.818C327.25 319.568 327.193 320.334 327.107 321.084L335.955 356.913C341.252 378.342 343.286 400.447 341.989 422.483L347.117 457.357L345.616 457.259L323.278 455.817L317.379 455.442L307.538 434.716C306.417 432.354 305.379 429.94 304.444 427.489C302.9 423.483 301.613 419.382 300.59 415.212L283.337 344.894C281.139 344.922 278.964 344.936 276.813 344.936C266.858 344.973 257.337 344.78 248.251 344.359C218.704 343.002 193.524 339.27 171.579 332.973C165.416 331.21 159.5 329.24 153.832 327.061C151.753 326.268 149.707 325.446 147.695 324.592C147.22 324.399 146.755 324.207 146.293 324.004C142.133 322.198 138.493 319.377 135.706 315.799C132.918 312.221 131.072 308.001 130.336 303.525C129.433 298.329 130.033 292.984 132.064 288.119Z" fill="#2F2E41"/>
<path d="M333.946 492.86L350.575 487.898L353.183 487.116L355.549 497.242L381.636 507.478C382.926 507.983 384.02 508.887 384.76 510.059C385.5 511.231 385.846 512.609 385.747 513.991C385.648 515.374 385.11 516.688 384.212 517.743C383.313 518.798 382.101 519.537 380.752 519.854L352.636 526.45L345.447 517.573L345.9 528.03L335.31 530.517L329.904 494.071L333.946 492.86Z" fill="#2F2E41"/>
<path d="M241.282 463.158L239.9 465.501L240.887 465.657L241.282 463.158Z" fill="#2F2E41"/>
<path d="M246.185 467.044L261.491 475.224L263.893 476.506L258.454 485.366L269.793 511.005C270.354 512.272 270.496 513.685 270.198 515.039C269.899 516.392 269.176 517.615 268.134 518.528C267.091 519.44 265.784 519.996 264.404 520.113C263.024 520.23 261.642 519.902 260.462 519.177L235.844 504.07L236.978 492.701L229.947 500.45L220.673 494.762L242.461 465.058L246.185 467.044Z" fill="#2F2E41"/>
<path d="M353.237 268.352C351.609 268.851 349.892 268.986 348.206 268.749C346.52 268.512 344.906 267.908 343.479 266.979C342.052 266.051 340.845 264.82 339.945 263.375C339.044 261.929 338.471 260.304 338.266 258.613L297.821 249.844L313.194 234.797L349.244 245.431C352.106 245.275 354.926 246.175 357.169 247.96C359.413 249.745 360.924 252.292 361.416 255.117C361.908 257.942 361.347 260.85 359.84 263.29C358.332 265.729 355.983 267.53 353.237 268.352Z" fill="#FFB6B6"/>
<path d="M234.452 249.447L159.794 185.612C153.882 180.545 150.22 173.339 149.611 165.574C149.002 157.81 151.497 150.12 156.548 144.194C159.348 140.916 162.834 138.294 166.761 136.516C170.687 134.738 174.956 133.847 179.266 133.905C183.575 133.964 187.819 134.971 191.695 136.855C195.572 138.738 198.986 141.453 201.697 144.806L256.523 212.638L330.061 232.503L328.154 256.807L234.452 249.447Z" fill="#FFAC63"/>
<path d="M147.383 183.912L145.801 241.85C124.041 278.633 121.566 296.495 127.589 306.019L228.583 272.035L230.091 268.433L223.245 243.826L231.716 217.115C233.207 214.324 253.457 197.176 234.475 164.65L196.286 113.176L182.48 112.064C177.435 125.019 169.743 131.446 160.654 134.433C140.102 153.281 143.121 156.348 147.383 183.912Z" fill="#FFAC63"/>
<path d="M224.509 45.8228C223.978 47.3278 223.143 48.7058 222.055 49.8728C220.967 51.0398 219.651 51.9699 218.188 52.6049C215.855 50.4019 213.331 48.4099 210.646 46.6529C211.813 49.0229 212.769 51.4908 213.503 54.0288C213.45 54.0398 213.408 54.0398 213.355 54.0498C208.51 54.6988 203.645 53.4979 198.907 52.3069L199.566 52.9128C199.606 56.7128 198.562 60.4459 196.556 63.6729C194.55 66.8999 191.666 69.4878 188.241 71.1318C184.449 72.8748 179.445 74.0869 178.51 78.1469C177.682 81.7399 180.794 84.9598 183.79 87.0968C186.786 89.2328 190.291 91.5718 190.78 95.2278C191.566 101.181 183.939 104.954 182.643 110.811C181.517 115.828 185.394 120.611 189.654 123.481C193.914 126.351 198.928 128.328 202.221 132.282C208.054 139.287 206.173 150.458 200.161 157.314C199.51 158.06 198.814 158.767 198.078 159.429C196.432 157.348 194.631 155.394 192.692 153.583C190.359 151.38 187.835 149.388 185.15 147.631C186.317 150.001 187.273 152.469 188.007 155.007C188.967 158.264 189.576 161.613 189.824 164.999C185.493 167.056 180.952 168.635 176.279 169.708C164.516 172.588 152.412 173.833 140.309 173.407C134.78 173.32 129.284 172.542 123.949 171.089C126.391 163.368 127.106 155.203 126.042 147.174C123.015 154.229 118.333 160.449 112.391 165.307C107.408 161.385 103.712 155.826 103.095 149.565C102.341 141.87 106.208 134.514 110.5 128.083C114.802 121.653 119.753 115.381 121.644 107.888C124.406 96.9608 120.188 85.5979 119.646 74.3419C119.303 67.2629 120.425 60.1888 122.94 53.5638C125.456 46.9388 129.312 40.9048 134.266 35.8398C139.221 30.7748 145.167 26.7878 151.733 24.1288C158.299 21.4698 165.342 20.1969 172.423 20.3879C178.806 20.7619 185.14 21.7288 191.343 23.2788C194.711 24.0018 198.068 24.7349 201.435 25.4579C205.599 26.2299 209.682 27.3899 213.631 28.9229C217.073 30.2669 220.097 32.5008 222.395 35.3958C223.525 36.8538 224.304 38.5539 224.67 40.3619C225.037 42.1709 224.982 44.0398 224.509 45.8228Z" fill="#2F2E41"/>
<path d="M363.446 201.687C363.619 201.167 363.678 200.616 363.62 200.071C363.562 199.526 363.388 198.999 363.11 198.527C362.832 198.055 362.456 197.648 362.007 197.333C361.558 197.019 361.047 196.804 360.509 196.704C360.31 196.661 360.107 196.636 359.903 196.628L335.344 195.994C334.793 195.988 334.247 196.098 333.741 196.317C333.235 196.535 332.78 196.857 332.406 197.262C332.062 197.189 331.712 197.152 331.36 197.153C329.817 197.116 328.322 197.693 327.205 198.758C326.087 199.822 325.437 201.288 325.399 202.831C325.36 204.375 325.935 205.871 326.998 206.99C328.061 208.11 329.525 208.761 331.068 208.801C331.947 208.819 332.82 208.64 333.622 208.276L335.881 232.45C336.098 233.244 336.567 233.947 337.217 234.453C337.866 234.96 338.662 235.242 339.486 235.258L355.452 235.669C356.269 235.684 357.07 235.439 357.739 234.969C358.409 234.5 358.913 233.831 359.178 233.057L363.446 201.687ZM331.118 207.134C330.016 207.105 328.971 206.64 328.211 205.841C327.451 205.042 327.038 203.974 327.064 202.871C327.09 201.768 327.552 200.72 328.348 199.958C329.145 199.195 330.211 198.779 331.314 198.802C331.392 198.802 331.46 198.839 331.538 198.84C331.364 199.507 331.368 200.209 331.551 200.874L333.158 206.635C332.536 206.984 331.831 207.156 331.118 207.134Z" fill="#FFAC63"/>
<path d="M360.509 196.704C359.986 199.697 354.103 201.802 347.03 201.436C340.525 201.136 335.207 198.851 334.232 196.142C334.593 196.036 334.968 195.985 335.344 195.994L359.903 196.628C360.107 196.636 360.31 196.661 360.509 196.704Z" fill="white"/>
<path d="M351.405 242.439C349.838 243.106 348.144 243.421 346.443 243.363C344.742 243.304 343.074 242.873 341.557 242.099C340.04 241.326 338.711 240.229 337.664 238.886C336.616 237.543 335.876 235.987 335.495 234.327L294.353 229.856L308.061 213.277L345.028 220.064C347.858 219.608 350.757 220.207 353.175 221.746C355.593 223.286 357.363 225.66 358.149 228.418C358.935 231.176 358.683 234.126 357.44 236.711C356.197 239.295 354.049 241.333 351.405 242.439Z" fill="#FFB6B6"/>
<path d="M231.292 236.121L150.347 180.484C143.935 176.067 139.537 169.285 138.117 161.627C136.696 153.969 138.37 146.061 142.771 139.636C145.211 136.082 148.404 133.109 152.122 130.928C155.839 128.747 159.992 127.412 164.283 127.017C168.575 126.622 172.901 127.178 176.954 128.644C181.007 130.11 184.687 132.451 187.734 135.501L249.378 197.196L324.594 209.223L325.249 233.594L231.292 236.121Z" fill="#FFAC63"/>
<path d="M610.502 336.65L600.969 340.41L678.617 537.542L688.15 533.783L610.502 336.65Z" fill="#E6E6E6"/>
<path d="M547.457 533.783L556.991 537.542L634.638 340.41L625.105 336.65L547.457 533.783Z" fill="#E6E6E6"/>
<path d="M613.819 372.68C651.232 372.68 681.562 360.95 681.562 346.479C681.562 332.008 651.232 320.277 613.819 320.277C576.405 320.277 546.075 332.008 546.075 346.479C546.075 360.95 576.405 372.68 613.819 372.68Z" fill="#E6E6E6"/>
<path d="M670.347 357.616L561.96 344.61C556.954 344.009 552.115 342.427 547.719 339.955C543.324 337.483 539.458 334.169 536.343 330.203C533.227 326.236 530.923 321.694 529.562 316.836C528.201 311.979 527.809 306.9 528.41 301.891C529.01 296.882 530.591 292.04 533.061 287.642C535.532 283.244 538.844 279.377 542.809 276.259C546.773 273.142 551.313 270.837 556.168 269.475C561.023 268.113 566.098 267.721 571.104 268.322L679.491 281.329C689.602 282.542 698.817 287.724 705.108 295.736C711.4 303.747 714.254 313.931 713.041 324.047C711.829 334.164 706.649 343.384 698.642 349.679C690.636 355.974 680.457 358.829 670.347 357.616Z" fill="#2F2E41"/>
<path d="M649.097 84.8848L664.983 100.303L685.289 109.316C683.516 110.544 674.166 236.593 686.213 241.839C696.47 246.306 686.016 250.001 686.371 260.399C686.725 270.796 688.052 292.183 688.052 292.183C631.673 313.899 609.789 316.003 577.016 278.741C576.79 276.652 577.284 274.549 578.416 272.78C579.549 271.01 581.252 269.681 583.242 269.013C590.51 266.205 579.408 247.699 585.331 245.538C591.255 243.377 586.344 217.878 586.344 217.878L573.728 160.424L570.64 151.745L586.58 102.822L604.571 98.5918L613.446 82.8198L649.097 84.8848Z" fill="#E6E6E6"/>
<path d="M436.692 201.313C438.418 199.897 440.433 198.877 442.595 198.325C444.757 197.772 447.014 197.701 449.206 198.116C451.399 198.53 453.474 199.421 455.286 200.725C457.097 202.029 458.601 203.715 459.69 205.663L513.092 196.145L501.942 222.047L452.94 227.115C449.548 228.73 445.681 229.044 442.072 227.997C438.464 226.95 435.365 224.615 433.362 221.435C431.36 218.254 430.592 214.449 431.206 210.741C431.82 207.032 433.772 203.678 436.692 201.313Z" fill="#A0616A"/>
<path d="M491.909 223.988C496.595 228.834 501.2 228.252 505.738 223.223L569.286 219.707L569.481 219.337C569.705 218.913 583.097 193.531 594.975 169.774C596.804 166.116 598.598 162.496 600.302 159.011C601.037 157.507 601.754 156.032 602.453 154.584C607.169 144.814 610.926 136.555 612.394 132.217C615.789 122.507 615.763 111.927 612.32 102.234L612.221 102L612.001 101.872C607.49 99.2879 602.233 98.3179 597.098 99.1239C591.962 99.9299 587.255 102.463 583.751 106.305C566.933 124.944 554.676 147.24 547.946 171.432L544.133 185.197L504.801 194.945C500.789 192.779 497.328 193.316 494.605 197.472L491.909 223.988Z" fill="#E6E6E6"/>
<path d="M553.649 484.69L567.145 497.012L621.068 450.788L601.148 432.603L553.649 484.69Z" fill="#FFB6B6"/>
<path d="M554.227 477.137L558.026 480.606L578.36 488.112L580.806 501.404L580.807 501.405C585.299 505.506 587.979 511.225 588.256 517.304C588.534 523.382 586.388 529.322 582.289 533.817L581.787 534.367L538.269 494.636L554.227 477.137Z" fill="#2F2E41"/>
<path d="M655.891 340.886L644.242 318.38C645.215 295.591 664.971 277.786 687.655 280.057C700.287 281.322 711.881 288.848 716 310.091C726.591 364.714 598.816 472.83 598.816 472.83L576.625 457.945L576.128 443.07L589.138 435.698L589.618 423.046L601.959 417.739L655.891 340.886Z" fill="#2F2E41"/>
<path d="M656.222 45.1418C658.063 25.9838 644.033 8.95982 624.886 7.11782C605.738 5.27682 588.724 19.3138 586.884 38.4718C585.043 57.6298 599.073 74.6538 618.22 76.4948C637.367 78.3368 654.381 64.2998 656.222 45.1418Z" fill="#A0616A"/>
<path d="M649.595 481.272L634.345 491.34L588.277 437.277L610.784 422.418L649.595 481.272Z" fill="#FFB6B6"/>
<path d="M663.238 493.495L614.066 525.958L613.655 525.336C610.306 520.257 609.111 514.055 610.332 508.094C611.552 502.133 615.09 496.902 620.165 493.55H620.166L624.652 480.801L645.907 476.556L650.199 473.722L663.238 493.495Z" fill="#2F2E41"/>
<path d="M579.895 338.703L594.314 315.247C596.901 292.584 580.158 271.917 557.397 270.626C544.722 269.906 532.098 275.533 524.722 295.875C505.757 348.181 615.139 474.892 615.139 474.892L639.376 463.647L642.183 449.031L630.48 439.721L631.976 427.149L620.611 419.984L579.895 338.703Z" fill="#2F2E41"/>
<path d="M530.513 43.0869C530.545 42.6379 530.576 42.1878 530.606 41.7358C530.457 42.1708 530.425 42.6369 530.513 43.0869Z" fill="#2F2E41"/>
<path d="M663.432 33.9819C662.185 28.2609 659.403 22.9889 655.385 18.7329C651.367 14.4759 646.265 11.3959 640.629 9.82294C639.083 7.23394 636.977 5.02392 634.466 3.35592C631.955 1.68792 629.102 0.603951 626.117 0.182951C620.511 -0.563049 614.893 1.09993 609.503 2.81393C606.173 3.87293 602.852 4.95893 599.539 6.07193C596.842 6.97793 593.527 9.04592 594.422 11.7479C593.741 11.3929 592.962 11.2729 592.206 11.4069C591.45 11.5399 590.76 11.9199 590.242 12.4869C589.724 13.0549 589.408 13.7769 589.343 14.5419C589.278 15.3079 589.468 16.0729 589.882 16.7199C588.632 15.1059 585.74 16.1409 585.044 18.0609C584.349 19.9799 585.168 22.1079 586.185 23.8779C589.247 28.9129 593.891 32.7899 599.391 34.9009C604.89 37.0119 610.934 37.2379 616.576 35.5449C619.876 34.4639 623.247 32.6899 626.627 33.4829C629.818 34.2309 632.114 37.1909 633.022 40.3409C633.686 43.0959 633.867 45.9449 633.559 48.7609C633.989 47.7609 634.798 46.9729 635.809 46.5679C636.819 46.1639 637.949 46.1769 638.949 46.6049C641.359 47.8069 642.224 50.9769 641.627 53.6039C641.03 56.2309 634.766 66.4179 633.111 68.5429C631.298 70.5489 629.964 72.9399 629.21 75.5359C635.149 74.6229 641.088 73.709 647.027 72.795L647.349 73.1189C656.557 65.9599 665.762 45.4139 663.432 33.9819Z" fill="#2F2E41"/>
<path d="M578.103 279.418C578.925 277.342 580.191 275.472 581.814 273.939C583.436 272.406 585.375 271.247 587.493 270.545C589.611 269.843 591.858 269.614 594.074 269.874C596.29 270.135 598.422 270.878 600.32 272.052L642.393 237.796L645.209 265.858L604.825 294.086C602.642 297.146 599.414 299.298 595.751 300.135C592.088 300.972 588.246 300.436 584.952 298.628C581.658 296.82 579.142 293.866 577.88 290.325C576.617 286.785 576.697 282.904 578.103 279.418Z" fill="#A0616A"/>
<path d="M644.669 271.062C649.738 272.876 653.658 271.528 655.26 263.802L702.953 231.107L702.944 230.688C709.165 230.206 707.742 138.18 698.201 133.678C696.46 123.54 691.305 114.302 683.592 107.5L683.392 107.343L683.137 107.339C677.94 107.27 672.874 108.975 668.775 112.174C664.675 115.372 661.788 119.873 660.589 124.933C654.927 149.398 655.026 174.844 660.877 199.263L664.221 213.15L643.401 230.783C637.648 229.276 635.096 231.593 635.518 237.459L644.669 271.062Z" fill="#E6E6E6"/>
<path d="M538.345 218.279C538.518 217.759 538.577 217.208 538.519 216.663C538.461 216.117 538.287 215.591 538.009 215.119C537.731 214.647 537.355 214.24 536.906 213.925C536.457 213.61 535.946 213.396 535.408 213.295C535.208 213.253 535.006 213.228 534.802 213.22L510.242 212.586C509.691 212.58 509.145 212.69 508.64 212.908C508.134 213.127 507.679 213.449 507.305 213.854C506.961 213.78 506.61 213.744 506.259 213.745C505.494 213.725 504.732 213.856 504.018 214.131C503.304 214.405 502.651 214.818 502.096 215.345C501.541 215.872 501.096 216.504 500.785 217.204C500.475 217.903 500.305 218.657 500.286 219.423C500.267 220.188 500.398 220.95 500.673 221.664C500.949 222.378 501.362 223.031 501.889 223.586C502.417 224.14 503.049 224.585 503.748 224.895C504.448 225.206 505.201 225.375 505.966 225.393C506.846 225.411 507.719 225.231 508.52 224.868L510.78 249.041C510.997 249.836 511.466 250.539 512.115 251.045C512.765 251.551 513.561 251.834 514.384 251.85L530.35 252.261C531.168 252.275 531.969 252.03 532.638 251.561C533.308 251.092 533.811 250.422 534.077 249.649L538.345 218.279ZM506.017 223.726C504.915 223.697 503.869 223.232 503.109 222.433C502.349 221.633 501.937 220.565 501.963 219.463C501.989 218.36 502.451 217.312 503.247 216.549C504.044 215.787 505.11 215.371 506.212 215.394C506.29 215.394 506.359 215.431 506.437 215.431C506.262 216.099 506.266 216.801 506.449 217.466L508.057 223.227C507.435 223.576 506.73 223.748 506.017 223.726Z" fill="#FFAC63"/>
<path d="M535.408 213.295C534.884 216.289 529.002 218.393 521.928 218.027C515.424 217.727 510.105 215.442 509.131 212.734C509.491 212.627 509.866 212.577 510.242 212.586L534.802 213.22C535.006 213.228 535.208 213.253 535.408 213.295Z" fill="white"/>
<rect y="235" width="813" height="299" fill="#D9D9D9"/>
</g>
<defs>
<clipPath id="clip0_16_1035">
<rect width="813" height="534" fill="white"/>
</clipPath>
</defs>
</svg>
