<svg width="2622" height="2218" viewBox="0 0 2622 2218" fill="none" xmlns="http://www.w3.org/2000/svg">
<g clip-path="url(#clip0_133_688)">
<path d="M2622 2058.7V2103.89C2622 2119.46 2584.75 2132.13 2538.96 2132.13H168.898C147.416 2132.13 127.8 2129.34 113.052 2124.75C111.478 2124.27 109.941 2123.76 108.477 2123.23C94.4604 2118.18 85.8604 2111.37 85.8604 2103.89V2058.7C807.366 2018.18 1694.68 2031.9 2622 2058.7Z" fill="#F2F2F2"/>
<path d="M2622 2108.48V2153.67C2622 2169.24 2584.75 2181.91 2538.96 2181.91H168.898C147.416 2181.91 127.8 2179.12 113.052 2174.53C111.478 2174.06 109.941 2173.55 108.477 2173.01C94.4604 2167.96 85.8604 2161.15 85.8604 2153.67V2108.48C749.977 2078.26 1653.72 2087.99 2622 2108.48Z" fill="white"/>
<path d="M2622 2144.57V2189.76C2622 2205.33 2584.75 2218 2538.96 2218H168.898C147.416 2218 127.8 2215.21 113.052 2210.62C111.478 2210.15 109.941 2209.64 108.477 2209.1C94.4604 2204.05 85.8604 2197.24 85.8604 2189.76V2144.57C804.436 2119.2 1679.91 2125.22 2622 2144.57Z" fill="#F2F2F2"/>
<path d="M2432.87 2031.46C2436.44 2031.68 2438.42 2027.23 2435.72 2024.64L2435.45 2023.57L2435.55 2023.32C2439.17 2014.69 2451.44 2014.74 2455.02 2023.39C2458.21 2031.06 2462.26 2038.74 2463.26 2046.85C2463.71 2050.43 2463.51 2054.08 2462.71 2057.59C2470.18 2041.29 2474.1 2023.49 2474.1 2005.59C2474.1 2001.09 2473.86 1996.59 2473.35 1992.11C2472.94 1988.44 2472.37 1984.79 2471.63 1981.18C2467.64 1961.64 2458.99 1943.03 2446.51 1927.49C2440.52 1924.21 2435.52 1919.09 2432.5 1912.95C2431.41 1910.73 2430.56 1908.35 2430.16 1905.92C2430.84 1906.01 2432.73 1895.62 2432.22 1894.98C2433.17 1893.53 2434.87 1892.82 2435.91 1891.41C2441.07 1884.4 2448.19 1885.63 2451.91 1895.15C2459.84 1899.15 2459.92 1905.8 2455.05 1912.19C2451.95 1916.25 2451.53 1921.75 2448.81 1926.1C2449.09 1926.46 2449.38 1926.81 2449.66 1927.17C2454.79 1933.75 2459.22 1940.82 2462.96 1948.25C2461.91 1939.99 2463.47 1930.04 2466.13 1923.63C2469.15 1916.33 2474.83 1910.17 2479.83 1903.86C2485.83 1896.27 2498.14 1899.58 2499.2 1909.2L2499.23 1909.48C2498.49 1909.9 2497.76 1910.34 2497.05 1910.81C2493 1913.49 2494.4 1919.77 2499.2 1920.52L2499.31 1920.53C2499.04 1923.21 2498.58 1925.86 2497.91 1928.47C2504.32 1953.26 2490.48 1962.3 2470.71 1962.7C2470.28 1962.93 2469.85 1963.15 2469.42 1963.36C2471.42 1969 2473.02 1974.79 2474.2 1980.65C2475.27 1985.83 2476 1991.07 2476.42 1996.33C2476.93 2002.96 2476.89 2009.63 2476.33 2016.25L2476.36 2016.02C2477.78 2008.72 2481.74 2001.91 2487.49 1997.19C2496.06 1990.15 2508.16 1987.56 2517.4 1981.9C2521.85 1979.18 2527.55 1982.7 2526.78 1987.85L2526.74 1988.1C2525.36 1988.66 2524.02 1989.31 2522.72 1990.04C2521.98 1990.46 2521.25 1990.9 2520.54 1991.37C2516.49 1994.05 2517.89 2000.33 2522.69 2001.07L2522.8 2001.09L2523.03 2001.13C2520.66 2006.73 2517.38 2011.93 2513.26 2016.42C2509.25 2038.07 2492.03 2040.12 2473.61 2033.82H2473.6C2471.59 2042.59 2468.64 2051.16 2464.86 2059.33H2433.65C2433.54 2058.98 2433.44 2058.62 2433.34 2058.28C2436.22 2058.46 2439.13 2058.29 2441.97 2057.76C2439.66 2054.92 2437.34 2052.06 2435.02 2049.21C2434.97 2049.16 2434.92 2049.1 2434.88 2049.05C2433.7 2047.59 2432.52 2046.15 2431.34 2044.69C2431.27 2040.23 2431.81 2035.78 2432.87 2031.46Z" fill="#F2F2F2"/>
<path d="M1045.86 1998.52C1049.44 1998.74 1051.41 1994.29 1048.71 1991.7L1048.44 1990.63L1048.54 1990.37C1052.16 1981.74 1064.43 1981.8 1068.02 1990.45C1071.2 1998.12 1075.25 2005.8 1076.25 2013.91C1076.7 2017.49 1076.5 2021.14 1075.7 2024.65C1083.17 2008.35 1087.09 1990.55 1087.09 1972.65C1087.09 1968.15 1086.85 1963.65 1086.34 1959.17C1085.93 1955.5 1085.36 1951.85 1084.62 1948.24C1080.63 1928.7 1071.98 1910.09 1059.51 1894.55C1053.51 1891.27 1048.51 1886.15 1045.49 1880.01C1044.4 1877.79 1043.55 1875.41 1043.15 1872.98C1043.83 1873.07 1045.72 1862.67 1045.21 1862.04C1046.16 1860.59 1047.86 1859.88 1048.9 1858.47C1054.07 1851.46 1061.18 1852.69 1064.9 1862.21C1072.83 1866.21 1072.91 1872.86 1068.04 1879.25C1064.94 1883.31 1064.52 1888.81 1061.8 1893.16C1062.08 1893.52 1062.37 1893.87 1062.65 1894.23C1067.78 1900.81 1072.21 1907.88 1075.95 1915.31C1074.9 1907.05 1076.46 1897.1 1079.12 1890.69C1082.15 1883.39 1087.82 1877.23 1092.82 1870.92C1098.82 1863.33 1111.13 1866.64 1112.19 1876.26L1112.22 1876.54C1111.48 1876.96 1110.75 1877.4 1110.04 1877.87C1105.99 1880.55 1107.39 1886.83 1112.19 1887.58L1112.3 1887.59C1112.03 1890.27 1111.57 1892.92 1110.9 1895.53C1117.31 1920.32 1103.47 1929.36 1083.7 1929.76C1083.27 1929.99 1082.84 1930.21 1082.41 1930.42C1084.41 1936.06 1086.01 1941.85 1087.19 1947.71C1088.26 1952.89 1089 1958.13 1089.41 1963.38C1089.92 1970.02 1089.88 1976.69 1089.32 1983.31L1089.35 1983.08C1090.77 1975.78 1094.73 1968.97 1100.49 1964.25C1109.05 1957.21 1121.15 1954.62 1130.4 1948.96C1134.84 1946.24 1140.55 1949.76 1139.77 1954.91L1139.73 1955.16C1138.35 1955.72 1137.01 1956.37 1135.71 1957.1C1134.97 1957.52 1134.24 1957.96 1133.53 1958.43C1129.48 1961.11 1130.88 1967.39 1135.68 1968.13L1135.79 1968.15L1136.02 1968.18C1133.66 1973.79 1130.37 1978.99 1126.25 1983.48C1122.24 2005.13 1105.02 2007.18 1086.6 2000.88H1086.59C1084.58 2009.65 1081.63 2018.22 1077.85 2026.39H1046.64C1046.53 2026.04 1046.43 2025.68 1046.33 2025.34C1049.21 2025.52 1052.12 2025.35 1054.96 2024.82C1052.65 2021.98 1050.33 2019.12 1048.02 2016.27C1047.96 2016.22 1047.92 2016.16 1047.87 2016.11C1046.7 2014.65 1045.51 2013.21 1044.34 2011.75C1044.26 2007.29 1044.8 2002.84 1045.86 1998.52Z" fill="#F2F2F2"/>
<path d="M2104.37 2034.83L2085.09 2034.83L2075.92 1960.44L2104.38 1960.45L2104.37 2034.83Z" fill="#FFB6B6"/>
<path d="M2105.05 2054.94L2045.76 2054.94V2054.19C2045.76 2041.44 2056.09 2031.11 2068.83 2031.11L2079.67 2022.89L2099.88 2031.11H2105.05L2105.05 2054.94Z" fill="#2F2E41"/>
<path d="M2354.36 1929.09L2341.91 1943.81L2279.2 1902.77L2297.58 1881.05L2354.36 1929.09Z" fill="#FFB6B6"/>
<path d="M2370.16 1941.56L2331.86 1986.83L2331.29 1986.35C2321.56 1978.12 2320.35 1963.55 2328.58 1953.82L2329.3 1940.24L2348.62 1930.12L2351.97 1926.17L2370.16 1941.56Z" fill="#2F2E41"/>
<path d="M2198.51 1487.72L2095.14 1499.72L2054.39 1569.53L2048.55 1592.9L2051.2 1608.97L2044.66 1620.17L2048.55 1641.59L2032.97 1811.04L2075.82 2001.91H2115.74L2103.08 1824.67L2136.19 1672.75L2165.4 1820.78L2300.5 1938.44L2331.96 1893.32L2227.72 1805.2L2217.98 1774.03L2231.1 1747.69L2241.35 1573.42L2198.51 1487.72Z" fill="#2F2E41"/>
<path d="M2149.3 1551.6C2149.3 1551.6 2214.48 1571.9 2221.34 1548.93C2228.21 1525.96 2219.64 1497.58 2213.14 1494.56C2206.65 1491.54 2214.35 1471.75 2221.56 1458.51C2228.77 1445.28 2227.66 1438 2223.52 1436.42C2219.38 1434.84 2154.85 1274.57 2154.85 1274.57L2132.92 1269.96L2115.32 1248.37L2077.98 1252.89L2062.71 1281.15L2037.13 1294.7L2027.79 1380.7C2027.79 1380.7 2032.38 1417.55 2041.74 1456.31C2044.65 1468.37 2048.02 1480.62 2051.86 1492C2060.9 1518.8 2072.52 1540.8 2086.8 1544.24C2126.61 1553.83 2149.3 1551.6 2149.3 1551.6Z" fill="#394A39"/>
<path d="M1926.91 1400.76L1913.61 1403.21L1910.53 1403.77L1905.6 1404.7L1802.96 1423.59C1797.58 1427.09 1790.52 1426.52 1785.75 1422.19C1780.26 1417.11 1779.93 1408.53 1785.01 1403.04C1785.1 1402.95 1785.19 1402.88 1785.27 1402.78C1790.58 1397.23 1799.37 1396.92 1805.07 1402.08C1805.61 1402.6 1806.12 1403.16 1806.57 1403.76L1809.34 1402.85L1818.02 1400.03L1824.59 1397.89L1837.65 1393.62L1842.71 1391.97L1859.13 1386.62L1874.96 1381.46L1894.15 1375.21L1908.9 1370.39L1911.84 1375.35L1926.91 1400.76Z" fill="#FFB6B6"/>
<path d="M1951.16 1404.91C1948.29 1405.23 1946.39 1405.31 1945.73 1405.16C1940.23 1403.83 1946.32 1400.24 1934.15 1405.44C1924.27 1409.64 1923.43 1402.08 1922.01 1405.31C1919.65 1410.63 1916.32 1405.22 1913.61 1403.21C1912.41 1402.31 1911.34 1402.09 1910.53 1403.77C1910.24 1404.34 1910 1405.14 1909.79 1406.23C1909.15 1409.47 1907.56 1408.18 1905.6 1404.7C1902.37 1398.91 1898.15 1387.11 1895.74 1379.94C1895.03 1377.91 1894.5 1376.25 1894.15 1375.21C1893.9 1374.44 1893.77 1373.99 1893.77 1373.99C1893.77 1373.99 1894.53 1371.78 1898.28 1369.86C1900.9 1368.5 1904.99 1367.29 1911.32 1367.08C1915.21 1366.94 1918.26 1367.76 1920.61 1368.07C1921.99 1368.26 1923.13 1368.26 1924.05 1367.83L1924.07 1367.83C1925.1 1367.36 1925.89 1366.38 1926.47 1364.49C1927.53 1361.1 1931.97 1361.51 1936.36 1362.62C1940.48 1363.69 1944.6 1365.35 1945.82 1364.99C1947.57 1364.48 1994.06 1323.4 2023.75 1297.05C2037.31 1285.01 2058 1285.96 2070.41 1299.19L2083.03 1312.65C2083.03 1312.65 2091.13 1318.01 2092.6 1328.06C2093.2 1332.29 2092.64 1337.36 2089.76 1343.25C2087.23 1348.4 2082.91 1354.2 2076.05 1360.55C2046.94 1387.55 1972.35 1402.61 1951.16 1404.91Z" fill="#394A39"/>
<path d="M2241.24 1414.21L2246.16 1426.8L2247.29 1429.72L2249.13 1434.39L2287.06 1531.62C2291.51 1536.25 2292.28 1543.3 2288.93 1548.79C2284.98 1555.14 2276.62 1557.08 2270.28 1553.14C2270.17 1553.07 2270.08 1552.99 2269.97 1552.92C2263.51 1548.76 2261.56 1540.18 2265.54 1533.62C2265.95 1532.99 2266.41 1532.38 2266.91 1531.83L2265.5 1529.28L2261.08 1521.28L2257.75 1515.24L2251.08 1503.22L2248.51 1498.56L2240.16 1483.44L2232.1 1468.87L2222.34 1451.2L2214.83 1437.63L2219.14 1433.8L2241.24 1414.21Z" fill="#FFB6B6"/>
<path d="M2240.74 1389.6C2241.59 1392.36 2242.03 1394.21 2242.01 1394.89C2241.74 1400.54 2237.06 1395.24 2244.47 1406.21C2250.46 1415.12 2243.19 1417.37 2246.63 1418.16C2252.31 1419.47 2247.62 1423.76 2246.16 1426.8C2245.5 1428.15 2245.49 1429.24 2247.29 1429.72C2247.9 1429.9 2248.73 1429.99 2249.84 1429.98C2253.15 1430 2252.18 1431.81 2249.13 1434.39C2244.06 1438.65 2233.27 1445.03 2226.69 1448.74C2224.83 1449.82 2223.29 1450.66 2222.34 1451.2C2221.63 1451.6 2221.22 1451.81 2221.22 1451.81C2221.22 1451.81 2218.9 1451.47 2216.31 1448.15C2214.47 1445.84 2212.52 1442.05 2211.11 1435.87C2210.24 1432.08 2210.47 1428.93 2210.33 1426.56C2210.26 1425.17 2210.05 1424.05 2209.45 1423.22L2209.44 1423.21C2208.79 1422.28 2207.68 1421.7 2205.71 1421.48C2202.18 1421.08 2201.75 1416.65 2202.01 1412.13C2202.28 1407.87 2203.13 1403.51 2202.55 1402.38C2201.32 1399.99 2158.89 1357.44 2158.89 1357.44L2125.25 1277.51C2125.25 1277.51 2128.98 1268.54 2138.57 1265.2C2142.61 1263.81 2147.7 1263.41 2154.03 1265.12C2159.56 1266.63 2166.07 1269.78 2173.6 1275.32C2205.61 1298.81 2234.48 1369.22 2240.74 1389.6Z" fill="#394A39"/>
<path d="M2084.6 1243.48C2109.4 1243.48 2129.5 1223.38 2129.5 1198.58C2129.5 1173.78 2109.4 1153.67 2084.6 1153.67C2059.8 1153.67 2039.7 1173.78 2039.7 1198.58C2039.7 1223.38 2059.8 1243.48 2084.6 1243.48Z" fill="#FFB6B6"/>
<path d="M2122.67 1234.02C2122.67 1234.02 2107.79 1240.14 2100.39 1240.99C2104.11 1235.26 2109.28 1225.04 2112.98 1219.32C2114.92 1216.3 2116.91 1213.23 2117.79 1209.77C2118.67 1206.29 2118.27 1202.3 2115.91 1199.64C2113.62 1197.05 2109.65 1196.16 2106.49 1197.52C2103.32 1198.88 2101.24 1202.37 2101.51 1205.78C2098.73 1204.72 2098.11 1200.98 2098.62 1198.03C2099.14 1195.08 2100.34 1192.06 2099.5 1189.17C2098.7 1186.38 2096.03 1184.4 2093.19 1183.68C2090.38 1182.95 2087.39 1183.29 2084.51 1183.83C2076.27 1185.35 2068.26 1188.47 2059.86 1188.57C2058.2 1188.6 2056.52 1188.45 2054.83 1188.16C2056.25 1183.57 2056.17 1178.51 2054.36 1174.06C2052.65 1178.24 2050.14 1182.08 2047.01 1185.36C2043.56 1183.39 2040.83 1180.5 2039.62 1176.7C2038.27 1172.5 2039.05 1167.84 2040.88 1163.84C2041.73 1162 2042.78 1160.27 2043.98 1158.63C2045.18 1158.71 2046.41 1158.66 2047.6 1158.49C2050.24 1158.16 2052.77 1157.37 2055.09 1156.05C2052.69 1155.43 2050.37 1154.55 2048.17 1153.4C2048.27 1153.28 2048.36 1153.18 2048.46 1153.06C2050.68 1150.54 2053.07 1147.98 2056.22 1146.87C2059.38 1145.76 2063.48 1146.6 2065.02 1149.59C2073.67 1142.16 2085.38 1138.42 2096.74 1139.46C2107.9 1140.5 2118.59 1146.12 2125.76 1154.77C2123.52 1156.19 2121.55 1157.98 2120.01 1160.14C2122.94 1159.6 2125.94 1159.46 2128.91 1159.69C2130.21 1162.47 2130.65 1165.48 2129.26 1168.13C2132.03 1170.7 2137.58 1175.27 2134.05 1176.09C2139.65 1185.32 2141.67 1196.66 2139.59 1207.25C2137.5 1217.86 2131.35 1227.61 2122.67 1234.02Z" fill="#2F2E41"/>
<path d="M2308.81 513.043C2336.25 462.535 2354.08 413.014 2360.45 367.337C2335 364.361 2312.49 366.434 2292.83 373.033C2326.67 316.636 2349.27 247.182 2319.86 211.528C2301.34 191.874 2277.41 177.16 2249.12 167.388C2258.27 125.041 2258.38 85.366 2247.95 50.4858C2199.57 -111.911 1879.35 180.674 1674.99 54.0359C1589.32 0.965154 1497.1 67.8344 1422.4 175.367C1432.65 211.126 1451.57 244.359 1478.14 270.455C1444.29 268.039 1410.98 258.084 1381.34 241.541C1301.41 384.978 1253.11 564.54 1277.3 645.72C1293 698.388 1330.58 733.781 1383.32 752.008C1374.17 794.355 1571.85 1098.34 1608.28 1098.02C1705.11 1097.18 1735.22 877.206 1799.87 1159.11L1655.85 2038.66H1864.45V1131.58C1922.49 1041.95 1982.45 1101.9 2120.63 1032.14C2544.45 818.178 2363.77 582.348 2308.81 513.043Z" fill="#F2F2F2"/>
<path d="M568.222 1708.94L571.594 1774.09L602.557 1782.55C602.557 1782.55 589.315 1706.28 588.486 1703.98C590.387 1701.21 591.423 1697.81 591.2 1694.19C590.668 1685.57 583.246 1679.01 574.623 1679.54C566 1680.07 559.442 1687.5 559.974 1696.12C560.32 1701.74 563.6 1706.46 568.222 1708.94Z" fill="#FFB6B6"/>
<path d="M456.803 1854.56L456.071 1856.09C453.619 1856.68 454.021 1855.98 456.803 1854.56Z" fill="#394A39"/>
<path d="M589.612 1840.68C572.814 1836.11 555.54 1834.87 539.145 1835.56C521.762 1836.26 505.403 1839.15 491.789 1842.51C489.264 1833.84 486.885 1824.65 485.165 1815.98L503.683 1803.94L524.067 1796.8L566.739 1781.87L566.19 1758.7L570.691 1756.61L595.979 1744.94L596.565 1744.68L614.754 1794.02C621.743 1813.97 610.106 1835.56 589.612 1840.68Z" fill="#394A39"/>
<path d="M928.718 665.613C921.331 595.791 821.235 597.797 843.565 530.586C801.076 549.435 761.991 575.677 729.099 608.691C819.259 313.666 470.124 538.036 470.124 538.036C470.124 538.036 373.66 496.47 346.455 477.623C237.822 403.666 70.1122 587.447 209.412 686.902C54.4857 613.759 41.4815 727.138 14.6163 858.966C24.8633 894.724 43.7837 927.957 70.3588 954.058C26.6219 951.654 -15.9236 920.073 5.90636 984.152C45.1563 1062.99 110.925 1077.3 97.7323 1175.22C98.7156 1260.37 266.424 1282.21 448.906 1264.16C344.761 1560.81 288.159 1836.15 338.04 2063.77H516.621C454.92 1789.34 441.406 1520.35 494.504 1258.87C697.067 1231.89 902.275 1158.87 907.023 1071.1C931.396 1007.42 922.979 936.998 889.017 870.568C929.859 795.427 945.815 723.031 928.718 665.613Z" fill="#F2F2F2"/>
<path d="M498.209 1876.67L504.426 1903.39C504.426 1903.39 504.487 1928.02 508.849 1932.56C513.18 1937.08 608.427 1928 608.427 1928C608.427 1928 598.329 1888.31 598.463 1858.28L498.209 1876.67Z" fill="#FFB6B6"/>
<path d="M865.576 2120.46L881.97 2108.64L843.788 2038.08L819.591 2055.53L865.576 2120.46Z" fill="#FFB6B6"/>
<path d="M928.788 2086.35C928.495 2085.95 928.202 2085.58 927.873 2085.21C926.921 2084.23 925.75 2083.46 924.506 2083.02L924.433 2082.98C923.006 2082.43 921.469 2082.29 919.931 2082.51L913.161 2083.57L886.958 2087.63L881.432 2088.51L871.478 2078.04L867.635 2082.14L854.387 2096.34L851.02 2099.93L848.422 2102.71L880.444 2142.68L891.423 2132.25L883.554 2120.02L898.413 2125.62L906.793 2117.64L912.393 2112.37L927.544 2097.99C929.044 2096.56 929.922 2094.77 930.252 2092.86C930.618 2090.63 930.142 2088.29 928.788 2086.35Z" fill="#2F2E41"/>
<path d="M855.776 2053.96L826.119 2067.25C795.394 2034.75 764.477 1993 745.105 1924.73C700.854 1982.03 661.87 2014.47 608.949 2042.91C591.079 2052.6 526.431 2056.07 516.373 2037.95C515.903 2037.1 515.465 2036.24 515.061 2035.36C505.815 2014.98 513.99 1961.95 508.76 1935.01C527.868 1899.93 574.489 1928.26 606.38 1914.45L642.061 1929.96L708.239 1851.27C721.548 1835.44 745.38 1833.71 761.469 1847.39C762.319 1848.12 763.137 1848.87 763.922 1849.67C777.262 1872.3 790.01 1894.55 801.641 1916.07C805.395 1923.02 817.213 1932.36 812.537 1936.68C807.862 1941 819.788 1950.91 823.169 1957.87C843.983 2000.71 852.685 2022.62 855.776 2053.96Z" fill="#2F2E41"/>
<path d="M484.368 1707.54L523.648 1705.22C527.043 1705.02 530.192 1707 531.489 1710.14L542.589 1737.06L588.723 1775.19C588.723 1775.19 606.989 1798.44 607.031 1828.46C607.074 1858.48 606.381 1914.45 606.381 1914.45C606.381 1914.45 586.854 1890.44 570.4 1900.42C567.601 1902.12 566.616 1905.6 563.684 1907.35C562.222 1908.23 558.843 1907.37 557.366 1908.25C534.693 1921.71 511.965 1931.92 508.837 1932.56C497.097 1934.94 493.42 1925.88 501.347 1913.25C503.934 1909.13 499.238 1904.9 499.238 1904.9C493.273 1901.63 491.043 1896.99 495.192 1890.03L463.282 1772.77C459.45 1758.69 461.79 1743.5 470.24 1731.6C472.752 1728.06 475.384 1725.43 477.829 1725C483.321 1723.83 480.4 1711.52 484.368 1707.54Z" fill="#394A39"/>
<path d="M955.929 2129.68L963.388 2110.92L892.944 2072.57L881.935 2100.27L955.929 2129.68Z" fill="#FFB6B6"/>
<path d="M931.764 2088.65L922.923 2122.37C863.053 2106.79 801.358 2070.2 738.801 2023.68C669.76 2045.04 604.271 2057.84 544.725 2050.62C524.573 2048.25 509.387 2029.38 511.586 2008.77C511.689 2007.81 511.828 2006.85 512.003 2005.9C516.157 1983.92 550.824 1964.62 562.031 1939.58L635.725 1957.13L641.2 1971.3L657.795 1966.91L671.808 1963.21L687.848 1958.97L740.43 1945.07C760.386 1939.8 780.839 1952.11 786.114 1972.56C786.392 1973.64 786.624 1974.73 786.81 1975.83L859.636 2032.51C859.636 2032.51 866.134 2047.71 871.128 2041.46C876.122 2035.21 885.477 2052.63 885.477 2052.63L931.764 2088.65Z" fill="#2F2E41"/>
<path d="M1010.07 2081.88C1007.32 2080.78 1004.18 2081.11 1001.72 2082.76L969.3 2104.39L955.869 2099.05L953.71 2105.64L946.94 2126.1L945.293 2131.11L991.148 2153.95L996.748 2139.86L984.451 2132.06L1000.3 2130.93L1015.12 2093.59C1016.95 2088.98 1014.68 2083.71 1010.07 2081.88Z" fill="#2F2E41"/>
<path d="M441.788 1630.77C440.768 1635.35 439.654 1640.13 436.633 1643.73C433.611 1647.33 428.05 1649.27 424.087 1646.74C419.24 1643.66 419.626 1636.58 420.592 1630.92L423.654 1612.96C424.238 1609.54 424.841 1606.05 426.424 1602.95C428.007 1599.86 430.75 1597.16 434.165 1596.52C437.778 1595.84 441.552 1597.62 443.962 1600.4C446.371 1603.17 447.582 1606.81 448.175 1610.44C449.746 1620.06 447.166 1630.29 441.218 1638.02L441.788 1630.77Z" fill="#2F2E41"/>
<path d="M427.347 1605.01C420.809 1597.03 407.18 1598.23 399.917 1605.55C392.655 1612.87 390.853 1624.16 392.141 1634.4C393.426 1644.62 398.813 1686.61 400.512 1694.67C402.638 1704.75 386.792 1712.12 376.66 1710.22C377.459 1717.28 382.231 1723.58 388.463 1727C394.699 1730.42 402.197 1731.12 409.172 1729.77C411.994 1729.22 414.765 1728.33 417.381 1727.12C416.198 1724.07 415.464 1720.84 415.254 1717.57C416.605 1720.47 418.493 1723.1 420.775 1725.32C424.485 1723.08 427.755 1720.15 430.259 1716.62C435.168 1709.7 436.903 1700.45 434.165 1692.4C430.979 1683.01 422.588 1676.53 416.638 1668.59C410.682 1660.66 407.636 1648.27 414.942 1641.56C420.505 1636.45 420.171 1637.57 427.631 1638.76L427.347 1605.01Z" fill="#2F2E41"/>
<path d="M525.59 1638.53C525.59 1663.21 505.589 1683.21 480.917 1683.21C456.245 1683.21 432.808 1654.61 432.808 1629.94C432.808 1605.26 456.245 1593.85 480.917 1593.85C505.589 1593.85 525.59 1613.86 525.59 1638.53Z" fill="#2F2E41"/>
<path d="M494.386 1692.94C517.925 1692.94 537.006 1673.85 537.006 1650.31C537.006 1626.77 517.925 1607.69 494.386 1607.69C470.848 1607.69 451.767 1626.77 451.767 1650.31C451.767 1673.85 470.848 1692.94 494.386 1692.94Z" fill="#FFB6B6"/>
<path d="M547.926 1643.69C535.31 1647.13 522.571 1650.74 517.652 1643.69C516.69 1639.01 514.886 1634.53 512.308 1630.52C511.827 1635.02 510.762 1639.46 509.164 1643.69C503.622 1644.68 495.916 1644.68 495.916 1644.68C494.111 1647.79 485.859 1652.94 485.567 1656.67C484.931 1656.26 484.261 1655.93 483.574 1655.62C482.715 1655.26 481.701 1654.95 480.859 1655.38C480.224 1655.71 479.863 1656.41 479.743 1657.11C479.622 1657.82 479.725 1658.54 479.846 1659.26C480.206 1661.69 480.602 1664.21 481.993 1666.24C482.973 1667.68 484.622 1668.82 486.306 1669.01C488.093 1679.06 492.044 1692.65 492.044 1692.65C449.089 1694.37 436.244 1662.66 436.244 1635.09L441.399 1624.78H458.581V1602.44H506.69C529.456 1602.44 547.926 1620.92 547.926 1643.69Z" fill="#2F2E41"/>
<path d="M628.94 1973.89C620.191 1973.31 613.566 1965.75 614.141 1957C614.199 1956.12 614.346 1955.27 614.539 1954.44L512.727 1878.01L539.365 1866.19L634.715 1942.91C641.554 1945.04 646.313 1951.62 645.822 1959.09C645.246 1967.84 637.688 1974.46 628.94 1973.89Z" fill="#FFB6B6"/>
<path d="M607.69 1916.01L603.189 1917.55L577.571 1926.29C577.571 1926.29 577.022 1926.04 576.034 1925.56C565.824 1920.55 508.257 1891.96 504.817 1881.97C503.134 1877.07 497.169 1860.85 491.789 1842.52C489.264 1833.84 486.885 1824.65 485.165 1815.98C482.384 1802.07 481.359 1789.41 484.25 1782.09C492.741 1760.6 512.137 1766.13 512.137 1766.13L524.067 1796.8L539.145 1835.56L551.332 1866.89C567.361 1871.17 586.977 1891.3 607.69 1916.01Z" fill="#394A39"/>
<path d="M579.364 1673.16C578.888 1673.16 578.413 1673.24 577.973 1673.31C577.351 1672.62 576.546 1672.1 575.558 1671.85C575.119 1671.7 574.606 1671.66 574.094 1671.66L541.706 1672.51C541.45 1672.51 541.157 1672.54 540.937 1672.58C539.803 1672.8 538.815 1673.38 538.12 1674.19C537.863 1674.45 537.644 1674.74 537.461 1675.07C536.766 1676.24 536.582 1677.7 537.058 1679.17C535.198 1693.86 535.893 1707.93 542.694 1720.49C543.39 1722.58 545.402 1724 547.598 1723.97L568.641 1723.42C568.751 1723.42 568.861 1723.42 568.971 1723.38C571.057 1723.2 572.85 1721.77 573.399 1719.72C578.553 1708.91 579.641 1698.28 576.363 1687.84C577.388 1688.32 578.559 1688.57 579.73 1688.54C582.804 1688.46 585.402 1686.6 586.537 1684C587.013 1682.97 587.269 1681.84 587.232 1680.67C587.122 1676.42 583.572 1673.05 579.364 1673.16ZM579.693 1686.34C578.705 1686.38 577.79 1686.12 576.985 1685.68L578.632 1679.79L579.108 1678.07C579.364 1677.15 579.327 1676.24 579.108 1675.4C579.217 1675.4 579.327 1675.36 579.437 1675.36C582.438 1675.29 584.963 1677.7 585.036 1680.7C585.036 1681.33 584.963 1681.95 584.78 1682.5C584.085 1684.69 582.109 1686.27 579.693 1686.34Z" fill="#3F3D56"/>
<path d="M540.921 1672.59C541.611 1676.53 549.369 1679.31 558.696 1678.83C567.274 1678.43 574.288 1675.42 575.573 1671.85C575.124 1671.7 574.621 1671.65 574.107 1671.65L541.72 1672.49C541.441 1672.51 541.163 1672.53 540.921 1672.59Z" fill="#394A39"/>
</g>
<defs>
<clipPath id="clip0_133_688">
<rect width="2622" height="2218" fill="white"/>
</clipPath>
</defs>
</svg>
