<svg width="813" height="534" viewBox="0 0 813 534" fill="none" xmlns="http://www.w3.org/2000/svg">
<g clip-path="url(#clip0_16_1035)">
<path d="M197.75 343.074L188.855 346.581L261.304 530.517L270.199 527.009L197.75 343.074Z" fill="#E6E6E6"/>
<path d="M138.925 527.009L147.82 530.517L220.269 346.581L211.374 343.074L138.925 527.009Z" fill="#E6E6E6"/>
<path d="M200.844 376.692C235.753 376.692 264.053 365.746 264.053 352.244C264.053 338.742 235.753 327.797 200.844 327.797C165.935 327.797 137.635 338.742 137.635 352.244C137.635 365.746 165.935 376.692 200.844 376.692Z" fill="#E6E6E6"/>
<path d="M162.492 70.509C163.925 79.474 168.857 87.503 176.204 92.831C183.552 98.159 192.713 100.349 201.674 98.9201C202.689 98.7581 203.69 98.551 204.676 98.298C212.958 96.202 220.155 91.081 224.854 83.943C229.552 76.806 231.412 68.167 230.067 59.727C229.642 57.04 228.895 54.414 227.842 51.906C224.612 44.178 218.663 37.904 211.121 34.271C203.579 30.637 194.967 29.896 186.915 32.188C178.864 34.48 171.932 39.646 167.431 46.708C162.93 53.77 161.173 62.238 162.492 70.509Z" fill="#FFB6B6"/>
<path d="M346.964 503.339L362.332 498.767L352.167 435.916L329.487 442.664L346.964 503.339Z" fill="#FFB6B6"/>
<path d="M252.723 478.531C253.659 479.346 254.596 480.151 255.544 480.958C257.429 482.57 259.339 484.164 261.252 485.737C262.214 486.524 263.186 487.313 264.149 488.09L264.144 488.121L264.205 488.142L264.225 488.156L265.777 488.811L269.067 483.047L270.584 480.393L272.728 476.632L276.657 469.754L297.34 433.536L275.552 424.347L274.152 427.687L274.141 427.686L273.449 429.341L260.438 460.232L257.782 466.548L257.698 466.739L256.101 470.51L254.723 473.779L253.188 477.431L252.723 478.531Z" fill="#FFB6B6"/>
<path d="M138.881 321.789C139.953 324.327 141.058 326.859 142.176 329.371C144.254 334.048 146.415 338.674 148.66 343.248C148.658 343.259 148.668 343.26 148.677 343.272C150.119 345.106 151.769 346.765 153.595 348.217C153.669 348.293 153.757 348.35 153.833 348.416C155.18 349.466 156.652 350.347 158.215 351.037C158.779 351.277 159.354 351.518 159.918 351.758C161.958 352.598 163.988 353.361 166.017 354.07C169.626 355.32 173.23 356.379 176.829 357.247C177.117 357.325 177.408 357.393 177.698 357.461C192.539 360.942 207.436 361.484 223.152 360.994C230.912 360.76 238.873 360.268 247.118 359.756C249.813 359.58 252.517 359.417 255.253 359.258C255.459 359.248 255.677 359.229 255.894 359.22C259.802 358.989 263.772 358.779 267.835 358.594C272.948 358.361 278.214 358.184 283.672 358.091L282.109 365.516C280.883 371.224 278.788 376.711 275.898 381.783C272.582 388.059 269.957 393.024 272.014 404.553L273.002 410.133C271.64 412.611 270.87 415.371 270.753 418.196C270.636 421.021 271.176 423.835 272.328 426.417L272.608 427.031L251.282 463.158L249.9 465.501L257.696 466.736L267.285 468.266L283.538 470.842L314.44 427.484L315.919 425.415L315.937 425.299L327.834 334.45C327.929 333.648 327.994 332.829 328.015 332.015C328.162 328.32 327.571 324.633 326.279 321.168C324.986 317.704 323.017 314.532 320.485 311.838C318.063 309.238 315.148 307.145 311.91 305.683C308.672 304.22 305.176 303.416 301.624 303.317L293.433 303.084L276.697 302.606L264.908 302.277L264.672 302.271L229.905 301.282L229.039 290.921L228.614 290.681L215.103 283.148L168.375 257.093L168.256 257.031L165.182 255.317L164.694 255.885C164.549 256.056 164.403 256.227 164.268 256.399C160.127 261.673 156.536 267.357 153.549 273.361C148.574 283.155 144.162 293.224 140.332 303.519C140.164 303.966 140.014 304.373 139.88 304.739L139.831 304.85C139.771 305.023 139.732 305.135 139.716 305.165C137.818 309.75 137.695 315.693 138.881 321.789Z" fill="#2F2E41"/>
<path d="M142.064 288.119C142.328 287.472 142.636 286.821 142.95 286.193C145.409 281.447 148.127 276.841 151.093 272.395C154.433 267.328 158.328 261.951 162.867 256.181C165.062 253.387 167.406 250.49 169.9 247.492C171.148 245.989 172.441 244.461 173.777 242.908C173.831 242.836 173.888 242.766 173.95 242.699L174.333 242.243L222.377 256.594L236.432 261.896L239.916 271.222L239.821 273.521C239.832 273.523 239.832 273.523 239.82 273.532L239.58 279.8L239.579 279.81L239.268 288.091L239.354 288.094L267.034 288.875L295.559 289.683L310.881 290.12C314.433 290.218 317.929 291.022 321.168 292.484C324.406 293.947 327.321 296.04 329.743 298.641C332.273 301.336 334.242 304.508 335.535 307.972C336.827 311.436 337.418 315.123 337.272 318.818C337.25 319.568 337.193 320.334 337.107 321.084L345.955 356.913C351.252 378.342 353.286 400.447 351.989 422.483L357.117 457.357L355.616 457.259L333.278 455.817L327.379 455.442L317.538 434.716C316.417 432.354 315.379 429.94 314.444 427.489C312.9 423.483 311.613 419.382 310.59 415.212L293.337 344.894C291.139 344.922 288.964 344.936 286.813 344.936C276.858 344.973 267.337 344.78 258.251 344.359C228.704 343.002 203.524 339.27 181.579 332.973C175.416 331.21 169.5 329.24 163.832 327.061C161.753 326.268 159.707 325.446 157.695 324.592C157.22 324.399 156.755 324.207 156.293 324.004C152.133 322.198 148.493 319.377 145.706 315.799C142.918 312.221 141.072 308.001 140.336 303.525C139.433 298.329 140.033 292.984 142.064 288.119Z" fill="#2F2E41"/>
<path d="M343.946 492.86L360.575 487.898L363.183 487.116L365.549 497.242L391.636 507.478C392.926 507.983 394.02 508.887 394.76 510.059C395.5 511.231 395.846 512.609 395.747 513.991C395.648 515.374 395.11 516.688 394.212 517.743C393.313 518.798 392.101 519.537 390.752 519.854L362.636 526.45L355.447 517.573L355.9 528.03L345.31 530.517L339.904 494.071L343.946 492.86Z" fill="#2F2E41"/>
<path d="M251.282 463.158L249.9 465.501L250.887 465.657L251.282 463.158Z" fill="#2F2E41"/>
<path d="M256.185 467.044L271.491 475.224L273.893 476.506L268.454 485.366L279.793 511.005C280.354 512.272 280.496 513.685 280.198 515.039C279.899 516.392 279.176 517.615 278.134 518.528C277.091 519.44 275.784 519.996 274.404 520.113C273.024 520.23 271.642 519.902 270.462 519.177L245.844 504.07L246.978 492.701L239.947 500.45L230.673 494.762L252.461 465.058L256.185 467.044Z" fill="#2F2E41"/>
<path d="M363.237 268.352C361.609 268.851 359.892 268.986 358.206 268.749C356.52 268.512 354.906 267.908 353.479 266.979C352.052 266.051 350.845 264.82 349.945 263.375C349.044 261.929 348.471 260.304 348.266 258.613L307.821 249.844L323.194 234.797L359.244 245.431C362.106 245.275 364.926 246.175 367.169 247.96C369.413 249.745 370.924 252.292 371.416 255.117C371.908 257.942 371.347 260.85 369.84 263.29C368.332 265.729 365.983 267.53 363.237 268.352Z" fill="#FFB6B6"/>
<path d="M244.452 249.447L169.794 185.612C163.882 180.545 160.22 173.339 159.611 165.574C159.002 157.81 161.497 150.12 166.548 144.194C169.348 140.916 172.834 138.294 176.761 136.516C180.687 134.738 184.956 133.847 189.266 133.905C193.575 133.964 197.819 134.971 201.695 136.855C205.572 138.738 208.986 141.453 211.697 144.806L266.523 212.638L340.061 232.503L338.154 256.807L244.452 249.447Z" fill="#FFAC63"/>
<path d="M157.383 183.912L155.801 241.85C134.041 278.633 131.566 296.495 137.589 306.019L238.583 272.035L240.091 268.433L233.245 243.826L241.716 217.115C243.207 214.324 263.457 197.176 244.475 164.65L206.286 113.176L192.48 112.064C187.435 125.019 179.743 131.446 170.654 134.433C150.102 153.281 153.121 156.348 157.383 183.912Z" fill="#FFAC63"/>
<path d="M234.509 45.8228C233.978 47.3278 233.143 48.7058 232.055 49.8728C230.967 51.0398 229.651 51.9699 228.188 52.6049C225.855 50.4019 223.331 48.4099 220.646 46.6529C221.813 49.0229 222.769 51.4908 223.503 54.0288C223.45 54.0398 223.408 54.0398 223.355 54.0498C218.51 54.6988 213.645 53.4979 208.907 52.3069L209.566 52.9128C209.606 56.7128 208.562 60.4459 206.556 63.6729C204.55 66.8999 201.666 69.4878 198.241 71.1318C194.449 72.8748 189.445 74.0869 188.51 78.1469C187.682 81.7399 190.794 84.9598 193.79 87.0968C196.786 89.2328 200.291 91.5718 200.78 95.2278C201.566 101.181 193.939 104.954 192.643 110.811C191.517 115.828 195.394 120.611 199.654 123.481C203.914 126.351 208.928 128.328 212.221 132.282C218.054 139.287 216.173 150.458 210.161 157.314C209.51 158.06 208.814 158.767 208.078 159.429C206.432 157.348 204.631 155.394 202.692 153.583C200.359 151.38 197.835 149.388 195.15 147.631C196.317 150.001 197.273 152.469 198.007 155.007C198.967 158.264 199.576 161.613 199.824 164.999C195.493 167.056 190.952 168.635 186.279 169.708C174.516 172.588 162.412 173.833 150.309 173.407C144.78 173.32 139.284 172.542 133.949 171.089C136.391 163.368 137.106 155.203 136.042 147.174C133.015 154.229 128.333 160.449 122.391 165.307C117.408 161.385 113.712 155.826 113.095 149.565C112.341 141.87 116.208 134.514 120.5 128.083C124.802 121.653 129.753 115.381 131.644 107.888C134.406 96.9608 130.188 85.5979 129.646 74.3419C129.303 67.2629 130.425 60.1888 132.94 53.5638C135.456 46.9388 139.312 40.9048 144.266 35.8398C149.221 30.7748 155.167 26.7878 161.733 24.1288C168.299 21.4698 175.342 20.1969 182.423 20.3879C188.806 20.7619 195.14 21.7288 201.343 23.2788C204.711 24.0018 208.068 24.7349 211.435 25.4579C215.599 26.2299 219.682 27.3899 223.631 28.9229C227.073 30.2669 230.097 32.5008 232.395 35.3958C233.525 36.8538 234.304 38.5539 234.67 40.3619C235.037 42.1709 234.982 44.0398 234.509 45.8228Z" fill="#2F2E41"/>
<path d="M373.446 201.687C373.619 201.167 373.678 200.616 373.62 200.071C373.562 199.526 373.388 198.999 373.11 198.527C372.832 198.055 372.456 197.648 372.007 197.333C371.558 197.019 371.047 196.804 370.509 196.704C370.31 196.661 370.107 196.636 369.903 196.628L345.344 195.994C344.793 195.988 344.247 196.098 343.741 196.317C343.235 196.535 342.78 196.857 342.406 197.262C342.062 197.189 341.712 197.152 341.36 197.153C339.817 197.116 338.322 197.693 337.205 198.758C336.087 199.822 335.437 201.288 335.399 202.831C335.36 204.375 335.935 205.871 336.998 206.99C338.061 208.11 339.525 208.761 341.068 208.801C341.947 208.819 342.82 208.64 343.622 208.276L345.881 232.45C346.098 233.244 346.567 233.947 347.217 234.453C347.866 234.96 348.662 235.242 349.486 235.258L365.452 235.669C366.269 235.684 367.07 235.439 367.739 234.969C368.409 234.5 368.913 233.831 369.178 233.057L373.446 201.687ZM341.118 207.134C340.016 207.105 338.971 206.64 338.211 205.841C337.451 205.042 337.038 203.974 337.064 202.871C337.09 201.768 337.552 200.72 338.348 199.958C339.145 199.195 340.211 198.779 341.314 198.802C341.392 198.802 341.46 198.839 341.538 198.84C341.364 199.507 341.368 200.209 341.551 200.874L343.158 206.635C342.536 206.984 341.831 207.156 341.118 207.134Z" fill="#FFAC63"/>
<path d="M370.509 196.704C369.986 199.697 364.103 201.802 357.03 201.436C350.525 201.136 345.207 198.851 344.232 196.142C344.593 196.036 344.968 195.985 345.344 195.994L369.903 196.628C370.107 196.636 370.31 196.661 370.509 196.704Z" fill="white"/>
<path d="M361.405 242.439C359.838 243.106 358.144 243.421 356.443 243.363C354.742 243.304 353.074 242.873 351.557 242.099C350.04 241.326 348.711 240.229 347.664 238.886C346.616 237.543 345.876 235.987 345.495 234.327L304.353 229.856L318.061 213.277L355.028 220.064C357.858 219.608 360.757 220.207 363.175 221.746C365.593 223.286 367.363 225.66 368.149 228.418C368.935 231.176 368.683 234.126 367.44 236.711C366.197 239.295 364.049 241.333 361.405 242.439Z" fill="#FFB6B6"/>
<path d="M241.292 236.121L160.347 180.484C153.935 176.067 149.537 169.285 148.117 161.627C146.696 153.969 148.37 146.061 152.771 139.636C155.211 136.082 158.404 133.109 162.122 130.928C165.839 128.747 169.992 127.412 174.283 127.017C178.575 126.622 182.901 127.178 186.954 128.644C191.007 130.11 194.687 132.451 197.734 135.501L259.378 197.196L334.594 209.223L335.249 233.594L241.292 236.121Z" fill="#FFAC63"/>
<path d="M610.502 336.65L600.969 340.41L678.617 537.542L688.15 533.783L610.502 336.65Z" fill="#E6E6E6"/>
<path d="M547.457 533.783L556.991 537.542L634.638 340.41L625.105 336.65L547.457 533.783Z" fill="#E6E6E6"/>
<path d="M613.819 372.68C651.232 372.68 681.562 360.95 681.562 346.479C681.562 332.008 651.232 320.277 613.819 320.277C576.405 320.277 546.075 332.008 546.075 346.479C546.075 360.95 576.405 372.68 613.819 372.68Z" fill="#E6E6E6"/>
<path d="M670.347 357.616L561.96 344.61C556.954 344.009 552.115 342.427 547.719 339.955C543.324 337.483 539.458 334.169 536.343 330.203C533.227 326.236 530.923 321.694 529.562 316.836C528.201 311.979 527.809 306.9 528.41 301.891C529.01 296.882 530.591 292.04 533.061 287.642C535.532 283.244 538.844 279.377 542.809 276.259C546.773 273.142 551.313 270.837 556.168 269.475C561.023 268.113 566.098 267.721 571.104 268.322L679.491 281.329C689.602 282.542 698.817 287.724 705.108 295.736C711.4 303.747 714.254 313.931 713.041 324.047C711.829 334.164 706.649 343.384 698.642 349.679C690.636 355.974 680.457 358.829 670.347 357.616Z" fill="#2F2E41"/>
<path d="M649.097 84.8848L664.983 100.303L685.289 109.316C683.516 110.544 674.166 236.593 686.213 241.839C696.47 246.306 686.016 250.001 686.371 260.399C686.725 270.796 688.052 292.183 688.052 292.183C631.673 313.899 609.789 316.003 577.016 278.741C576.79 276.652 577.284 274.549 578.416 272.78C579.549 271.01 581.252 269.681 583.242 269.013C590.51 266.205 579.408 247.699 585.331 245.538C591.255 243.377 586.344 217.878 586.344 217.878L573.728 160.424L570.64 151.745L586.58 102.822L604.571 98.5918L613.446 82.8198L649.097 84.8848Z" fill="#E6E6E6"/>
<path d="M436.692 201.313C438.418 199.897 440.433 198.877 442.595 198.325C444.757 197.772 447.014 197.701 449.206 198.116C451.399 198.53 453.474 199.421 455.286 200.725C457.097 202.029 458.601 203.715 459.69 205.663L513.092 196.145L501.942 222.047L452.94 227.115C449.548 228.73 445.681 229.044 442.072 227.997C438.464 226.95 435.365 224.615 433.362 221.435C431.36 218.254 430.592 214.449 431.206 210.741C431.82 207.032 433.772 203.678 436.692 201.313Z" fill="#A0616A"/>
<path d="M491.909 223.988C496.595 228.834 501.2 228.252 505.738 223.223L569.286 219.707L569.481 219.337C569.705 218.913 583.097 193.531 594.975 169.774C596.804 166.116 598.598 162.496 600.302 159.011C601.037 157.507 601.754 156.032 602.453 154.584C607.169 144.814 610.926 136.555 612.394 132.217C615.789 122.507 615.763 111.927 612.32 102.234L612.221 102L612.001 101.872C607.49 99.2879 602.233 98.3179 597.098 99.1239C591.962 99.9299 587.255 102.463 583.751 106.305C566.933 124.944 554.676 147.24 547.946 171.432L544.133 185.197L504.801 194.945C500.789 192.779 497.328 193.316 494.605 197.472L491.909 223.988Z" fill="#E6E6E6"/>
<path d="M553.649 484.69L567.145 497.012L621.068 450.788L601.148 432.603L553.649 484.69Z" fill="#FFB6B6"/>
<path d="M554.227 477.137L558.026 480.606L578.36 488.112L580.806 501.404L580.807 501.405C585.299 505.506 587.979 511.225 588.256 517.304C588.534 523.382 586.388 529.322 582.289 533.817L581.787 534.367L538.269 494.636L554.227 477.137Z" fill="#2F2E41"/>
<path d="M655.891 340.886L644.242 318.38C645.215 295.591 664.971 277.786 687.655 280.057C700.287 281.322 711.881 288.848 716 310.091C726.591 364.714 598.816 472.83 598.816 472.83L576.625 457.945L576.128 443.07L589.138 435.698L589.618 423.046L601.959 417.739L655.891 340.886Z" fill="#2F2E41"/>
<path d="M656.222 45.1418C658.063 25.9838 644.033 8.95982 624.886 7.11782C605.738 5.27682 588.724 19.3138 586.884 38.4718C585.043 57.6298 599.073 74.6538 618.22 76.4948C637.367 78.3368 654.381 64.2998 656.222 45.1418Z" fill="#A0616A"/>
<path d="M649.595 481.272L634.345 491.34L588.277 437.277L610.784 422.418L649.595 481.272Z" fill="#FFB6B6"/>
<path d="M663.238 493.495L614.066 525.958L613.655 525.336C610.306 520.257 609.111 514.055 610.332 508.094C611.552 502.133 615.09 496.902 620.165 493.55H620.166L624.652 480.801L645.907 476.556L650.199 473.722L663.238 493.495Z" fill="#2F2E41"/>
<path d="M579.895 338.703L594.314 315.247C596.901 292.584 580.158 271.917 557.397 270.626C544.722 269.906 532.098 275.533 524.722 295.875C505.757 348.181 615.139 474.892 615.139 474.892L639.376 463.647L642.183 449.031L630.48 439.721L631.976 427.149L620.611 419.984L579.895 338.703Z" fill="#2F2E41"/>
<path d="M530.513 43.0869C530.545 42.6379 530.576 42.1878 530.606 41.7358C530.457 42.1708 530.425 42.6369 530.513 43.0869Z" fill="#2F2E41"/>
<path d="M663.432 33.9819C662.185 28.2609 659.403 22.9889 655.385 18.7329C651.367 14.4759 646.265 11.3959 640.629 9.82294C639.083 7.23394 636.977 5.02392 634.466 3.35592C631.955 1.68792 629.102 0.603951 626.117 0.182951C620.511 -0.563049 614.893 1.09993 609.503 2.81393C606.173 3.87293 602.852 4.95893 599.539 6.07193C596.842 6.97793 593.527 9.04592 594.422 11.7479C593.741 11.3929 592.962 11.2729 592.206 11.4069C591.45 11.5399 590.76 11.9199 590.242 12.4869C589.724 13.0549 589.408 13.7769 589.343 14.5419C589.278 15.3079 589.468 16.0729 589.882 16.7199C588.632 15.1059 585.74 16.1409 585.044 18.0609C584.349 19.9799 585.168 22.1079 586.185 23.8779C589.247 28.9129 593.891 32.7899 599.391 34.9009C604.89 37.0119 610.934 37.2379 616.576 35.5449C619.876 34.4639 623.247 32.6899 626.627 33.4829C629.818 34.2309 632.114 37.1909 633.022 40.3409C633.686 43.0959 633.867 45.9449 633.559 48.7609C633.989 47.7609 634.798 46.9729 635.809 46.5679C636.819 46.1639 637.949 46.1769 638.949 46.6049C641.359 47.8069 642.224 50.9769 641.627 53.6039C641.03 56.2309 634.766 66.4179 633.111 68.5429C631.298 70.5489 629.964 72.9399 629.21 75.5359C635.149 74.6229 641.088 73.709 647.027 72.795L647.349 73.1189C656.557 65.9599 665.762 45.4139 663.432 33.9819Z" fill="#2F2E41"/>
<path d="M578.103 279.418C578.925 277.342 580.191 275.472 581.814 273.939C583.436 272.406 585.375 271.247 587.493 270.545C589.611 269.843 591.858 269.614 594.074 269.874C596.29 270.135 598.422 270.878 600.32 272.052L642.393 237.796L645.209 265.858L604.825 294.086C602.642 297.146 599.414 299.298 595.751 300.135C592.088 300.972 588.246 300.436 584.952 298.628C581.658 296.82 579.142 293.866 577.88 290.325C576.617 286.785 576.697 282.904 578.103 279.418Z" fill="#A0616A"/>
<path d="M644.669 271.062C649.738 272.876 653.658 271.528 655.26 263.802L702.953 231.107L702.944 230.688C709.165 230.206 707.742 138.18 698.201 133.678C696.46 123.54 691.305 114.302 683.592 107.5L683.392 107.343L683.137 107.339C677.94 107.27 672.874 108.975 668.775 112.174C664.675 115.372 661.788 119.873 660.589 124.933C654.927 149.398 655.026 174.844 660.877 199.263L664.221 213.15L643.401 230.783C637.648 229.276 635.096 231.593 635.518 237.459L644.669 271.062Z" fill="#E6E6E6"/>
<path d="M538.345 218.279C538.518 217.759 538.577 217.208 538.519 216.663C538.461 216.117 538.287 215.591 538.009 215.119C537.731 214.647 537.355 214.24 536.906 213.925C536.457 213.61 535.946 213.396 535.408 213.295C535.208 213.253 535.006 213.228 534.802 213.22L510.242 212.586C509.691 212.58 509.145 212.69 508.64 212.908C508.134 213.127 507.679 213.449 507.305 213.854C506.961 213.78 506.61 213.744 506.259 213.745C505.494 213.725 504.732 213.856 504.018 214.131C503.304 214.405 502.651 214.818 502.096 215.345C501.541 215.872 501.096 216.504 500.785 217.204C500.475 217.903 500.305 218.657 500.286 219.423C500.267 220.188 500.398 220.95 500.673 221.664C500.949 222.378 501.362 223.031 501.889 223.586C502.417 224.14 503.049 224.585 503.748 224.895C504.448 225.206 505.201 225.375 505.966 225.393C506.846 225.411 507.719 225.231 508.52 224.868L510.78 249.041C510.997 249.836 511.466 250.539 512.115 251.045C512.765 251.551 513.561 251.834 514.384 251.85L530.35 252.261C531.168 252.275 531.969 252.03 532.638 251.561C533.308 251.092 533.811 250.422 534.077 249.649L538.345 218.279ZM506.017 223.726C504.915 223.697 503.869 223.232 503.109 222.433C502.349 221.633 501.937 220.565 501.963 219.463C501.989 218.36 502.451 217.312 503.247 216.549C504.044 215.787 505.11 215.371 506.212 215.394C506.29 215.394 506.359 215.431 506.437 215.431C506.262 216.099 506.266 216.801 506.449 217.466L508.057 223.227C507.435 223.576 506.73 223.748 506.017 223.726Z" fill="#FFAC63"/>
<path d="M535.408 213.295C534.884 216.289 529.002 218.393 521.928 218.027C515.424 217.727 510.105 215.442 509.131 212.734C509.491 212.627 509.866 212.577 510.242 212.586L534.802 213.22C535.006 213.228 535.208 213.253 535.408 213.295Z" fill="white"/>
<path d="M762 258H44V257.355C44.0098 250.367 47.4389 243.669 53.5354 238.728C59.6318 233.787 67.8975 231.008 76.519 231H729.481C738.102 231.008 746.368 233.787 752.465 238.728C758.561 243.669 761.99 250.367 762 257.355V258Z" fill="#CCCCCC"/>
<path d="M813 527.353L802.94 531L721 254.648L731.062 251L813 527.353Z" fill="#CCCCCC"/>
<path d="M664 527.353L674.06 531L756 254.648L745.94 251L664 527.353Z" fill="#CCCCCC"/>
<path d="M131.545 527.167L122.65 530.816L50.202 254.249L59.097 250.598L131.545 527.167Z" fill="#CCCCCC"/>
<path d="M0.271973 527.167L9.16698 530.816L81.616 254.249L72.721 250.598L0.271973 527.167Z" fill="#CCCCCC"/>
</g>
<defs>
<clipPath id="clip0_16_1035">
<rect width="813" height="534" fill="white"/>
</clipPath>
</defs>
</svg>
