<svg width="7074" height="3077" viewBox="0 0 7074 3077" fill="none" xmlns="http://www.w3.org/2000/svg">
<path d="M5353.97 2709.49L5283.83 2819.73L5324.69 2676.21C5238.43 2586.23 5119.01 2520.4 5119.01 2520.4C5119.01 2520.4 4971.97 2762.01 5011.54 2910.63C5051.12 3059.25 5153.31 3087.62 5262.33 3058.6C5371.35 3029.59 5445.9 2954.17 5406.32 2805.55C5397.52 2772.47 5378.38 2740 5353.97 2709.49Z" fill="#F2F2F2"/>
<path d="M5261.17 2830.72L5263.12 2838.05C5285.36 2923.31 5288.69 2993.58 5272.96 3047.86C5272.75 3048.66 5272.49 3049.43 5272.27 3050.22L5268.6 3049.14L5265.09 3048.05C5282.91 2989.21 5274.95 2914.86 5255.58 2840.48C5254.97 2838.08 5254.36 2835.64 5253.68 2833.22C5245.2 2801.81 5234.81 2770.51 5223.49 2740.43C5222.64 2738.1 5221.74 2735.74 5220.84 2733.37C5205.7 2693.75 5189.16 2656.44 5173.84 2624.29C5172.77 2622.01 5171.66 2619.74 5170.56 2617.51C5144.4 2563.19 5122.23 2524.7 5117.24 2516.2C5116.66 2515.15 5116.31 2514.58 5116.23 2514.45L5119.42 2512.55L5119.45 2512.51L5122.67 2510.6C5122.74 2510.74 5123.91 2512.64 5125.95 2516.21C5133.66 2529.54 5154.12 2565.84 5177.72 2614.63C5178.77 2616.84 5179.88 2619.11 5180.95 2621.38C5193.42 2647.47 5206.63 2676.8 5219.19 2707.95C5222.36 2715.76 5225.39 2723.5 5228.29 2731.16C5229.23 2733.51 5230.13 2735.87 5230.98 2738.21C5243.21 2770.72 5253.28 2801.56 5261.17 2830.72Z" fill="white"/>
<path d="M5177.72 2614.63C5175.37 2615.61 5172.99 2616.59 5170.56 2617.51C5163.95 2620.02 5157.21 2622.19 5150.38 2624.01C5121.27 2631.8 5090.78 2632.96 5061.16 2627.4C5060.15 2629.73 5059.14 2632.06 5058.1 2634.43C5089.34 2640.56 5121.56 2639.48 5152.31 2631.26C5159.61 2629.32 5166.79 2626.99 5173.84 2624.29C5176.24 2623.38 5178.62 2622.39 5180.95 2621.38C5200.25 2613.17 5218.18 2602.07 5234.15 2588.47C5232.06 2586.89 5230.01 2585.33 5228.01 2583.81C5212.86 2596.5 5195.91 2606.89 5177.72 2614.63Z" fill="white"/>
<path d="M5228.29 2731.16C5225.82 2731.97 5223.34 2732.71 5220.84 2733.37C5220.08 2733.61 5219.29 2733.83 5218.52 2734.03C5186.97 2742.43 5153.85 2743.07 5121.99 2735.91C5090.14 2728.75 5060.48 2713.99 5035.56 2692.9C5034.68 2695.42 5033.8 2697.95 5032.96 2700.5C5058.73 2721.7 5089.17 2736.46 5121.78 2743.55C5154.38 2750.64 5188.21 2749.86 5220.46 2741.28C5221.47 2741.01 5222.49 2740.74 5223.49 2740.43C5226.02 2739.72 5228.51 2738.98 5230.98 2738.21C5269.18 2725.92 5303.04 2702.88 5328.49 2671.86C5326.76 2670.03 5325.03 2668.2 5323.27 2666.38C5298.58 2696.75 5265.58 2719.27 5228.29 2731.16Z" fill="white"/>
<path d="M5261.17 2830.72C5258.69 2831.61 5256.19 2832.43 5253.68 2833.22C5250.99 2834.05 5248.29 2834.85 5245.57 2835.57C5203.15 2846.81 5158.24 2844.01 5117.55 2827.59C5076.86 2811.17 5042.59 2782.02 5019.86 2744.5C5019.01 2747.87 5018.15 2751.2 5017.37 2754.56C5041.58 2791.58 5076.85 2820.04 5118.16 2835.89C5159.47 2851.73 5204.73 2854.16 5247.5 2842.83C5250.22 2842.1 5252.93 2841.34 5255.58 2840.48C5258.13 2839.72 5260.63 2838.9 5263.12 2838.05C5313.34 2820.38 5354.98 2784.3 5379.59 2737.1C5378.11 2734.62 5376.53 2732.21 5374.95 2729.76C5351.6 2776.92 5310.79 2813.14 5261.17 2830.72Z" fill="white"/>
<path d="M4992.6 198.886L4922.46 309.13L4963.31 165.612C4877.05 75.6265 4757.64 9.79907 4757.64 9.79907C4757.64 9.79907 4610.59 251.405 4650.17 400.025C4689.75 548.645 4791.94 577.016 4900.96 548C5009.97 518.985 5084.53 443.571 5044.95 294.951C5036.14 261.871 5017.01 229.396 4992.6 198.886Z" fill="#F2F2F2"/>
<path d="M4899.8 320.119L4901.75 327.445C4923.99 412.714 4927.32 482.976 4911.59 537.261C4911.37 538.056 4911.11 538.825 4910.9 539.62L4907.23 538.538L4903.72 537.453C4921.53 478.612 4913.58 404.26 4894.2 329.881C4893.6 327.478 4892.99 325.039 4892.31 322.619C4883.82 291.205 4873.43 259.911 4862.12 229.833C4861.27 227.498 4860.36 225.136 4859.46 222.773C4844.33 183.15 4827.79 145.841 4812.47 113.685C4811.39 111.407 4810.29 109.139 4809.19 106.908C4783.03 52.5862 4760.85 14.0985 4755.87 5.5989C4755.28 4.5518 4754.94 3.98371 4754.86 3.84838L4758.05 1.95191L4758.07 1.90594L4761.29 -0.000244141C4761.37 0.135267 4762.54 2.03839 4764.58 5.61227C4772.28 18.9403 4792.75 55.2421 4816.34 104.031C4817.4 106.237 4818.51 108.505 4819.58 110.782C4832.04 136.865 4845.25 166.204 4857.82 197.345C4860.99 205.163 4864.02 212.9 4866.91 220.557C4867.85 222.909 4868.75 225.272 4869.61 227.607C4881.84 260.12 4891.9 290.958 4899.8 320.119Z" fill="white"/>
<path d="M4816.34 104.032C4814 105.005 4811.62 105.988 4809.19 106.908C4802.57 109.416 4795.84 111.585 4789.01 113.405C4759.9 121.194 4729.41 122.355 4699.79 116.801C4698.78 119.128 4697.76 121.456 4696.73 123.829C4727.96 129.962 4760.19 128.877 4790.94 120.658C4798.23 118.714 4805.42 116.387 4812.47 113.685C4814.87 112.775 4817.25 111.792 4819.58 110.782C4838.88 102.566 4856.81 91.4671 4872.77 77.8661C4870.68 76.2867 4868.64 74.7338 4866.64 73.2075C4851.48 85.9021 4834.54 96.2889 4816.34 104.032Z" fill="white"/>
<path d="M4866.91 220.557C4864.45 221.368 4861.97 222.107 4859.46 222.773C4858.71 223.012 4857.91 223.224 4857.15 223.427C4825.6 231.826 4792.48 232.472 4760.62 225.311C4728.76 218.149 4699.11 203.391 4674.19 182.296C4673.31 184.822 4672.42 187.348 4671.59 189.9C4697.35 211.099 4727.8 225.855 4760.41 232.946C4793.01 240.038 4826.84 239.261 4859.08 230.68C4860.1 230.41 4861.11 230.14 4862.12 229.833C4864.65 229.121 4867.13 228.382 4869.61 227.607C4907.81 215.315 4941.66 192.283 4967.12 161.264C4965.39 159.433 4963.66 157.602 4961.89 155.781C4937.21 186.153 4904.2 208.664 4866.91 220.557Z" fill="white"/>
<path d="M4899.8 320.119C4897.32 321.013 4894.82 321.834 4892.31 322.618C4889.61 323.451 4886.91 324.248 4884.19 324.972C4841.78 336.209 4796.86 333.408 4756.18 316.99C4715.49 300.571 4681.21 271.418 4658.48 233.895C4657.63 237.268 4656.77 240.603 4656 243.956C4680.21 280.983 4715.47 309.441 4756.79 325.287C4798.1 341.132 4843.35 343.56 4886.12 332.225C4888.84 331.501 4891.56 330.741 4894.2 329.881C4896.76 329.123 4899.26 328.302 4901.75 327.445C4951.97 309.783 4993.6 273.7 5018.21 226.503C5016.74 224.023 5015.16 221.607 5013.57 219.155C4990.22 266.32 4949.41 302.536 4899.8 320.119Z" fill="white"/>
<path d="M1878.27 2894.54L1747.58 2895.13L1890.45 2851.92C1919.55 2730.73 1910.4 2594.7 1910.4 2594.7C1910.4 2594.7 1627.6 2601.61 1523.92 2715.23C1420.24 2828.85 1451.6 2930.15 1534.94 3006.16C1618.28 3082.17 1722.05 3104.12 1825.73 2990.5C1848.8 2965.21 1865.79 2931.56 1878.27 2894.54Z" fill="#F2F2F2"/>
<path d="M1726.09 2882.01L1720.98 2887.61C1661.24 2952.41 1603.91 2993.18 1549.73 3009.3C1548.94 3009.54 1548.15 3009.74 1547.37 3009.99L1546.29 3006.32L1545.31 3002.78C1604.46 2985.96 1662.73 2939.08 1714.85 2882.58C1716.54 2880.78 1718.27 2878.94 1719.94 2877.06C1741.79 2852.95 1762.5 2827.29 1781.7 2801.52C1783.21 2799.54 1784.71 2797.5 1786.21 2795.47C1811.37 2761.32 1833.83 2727.24 1852.61 2696.97C1853.95 2694.84 1855.26 2692.68 1856.54 2690.55C1888.11 2639.19 1908.52 2599.73 1912.98 2590.95C1913.54 2589.89 1913.83 2589.29 1913.91 2589.15L1917.22 2590.81L1917.28 2590.8L1920.62 2592.48C1920.55 2592.62 1919.58 2594.63 1917.67 2598.28C1910.62 2611.96 1891.13 2648.8 1862.83 2695.02C1861.54 2697.1 1860.23 2699.26 1858.9 2701.39C1843.68 2725.97 1826.13 2752.94 1806.72 2780.34C1801.85 2787.23 1796.98 2793.96 1792.1 2800.54C1790.63 2802.6 1789.13 2804.63 1787.62 2806.61C1766.87 2834.48 1746.36 2859.61 1726.09 2882.01Z" fill="white"/>
<path d="M1862.83 2695.02C1860.74 2693.57 1858.63 2692.1 1856.54 2690.55C1850.85 2686.35 1845.39 2681.85 1840.16 2677.09C1817.87 2656.82 1800.42 2631.8 1789.08 2603.88C1786.58 2604.29 1784.07 2604.7 1781.51 2605.11C1793.23 2634.69 1811.56 2661.21 1835.1 2682.64C1840.68 2687.72 1846.52 2692.51 1852.61 2696.98C1854.67 2698.5 1856.78 2699.97 1858.9 2701.39C1876.24 2713.18 1895.27 2722.27 1915.35 2728.34C1915.55 2725.73 1915.75 2723.17 1915.95 2720.66C1897.08 2714.78 1879.18 2706.14 1862.83 2695.02Z" fill="white"/>
<path d="M1792.1 2800.54C1790.09 2798.9 1788.12 2797.21 1786.21 2795.47C1785.6 2794.97 1784.99 2794.41 1784.41 2793.88C1760.28 2771.88 1741.84 2744.37 1730.65 2713.7C1719.45 2683.03 1715.84 2650.11 1720.13 2617.75C1717.53 2618.38 1714.92 2619 1712.32 2619.68C1708.41 2652.81 1712.45 2686.39 1724.1 2717.65C1735.76 2748.91 1754.7 2776.94 1779.35 2799.42C1780.12 2800.13 1780.9 2800.84 1781.7 2801.52C1783.67 2803.26 1785.63 2804.95 1787.62 2806.61C1818.62 2832.1 1856.3 2848.13 1896.16 2852.77C1896.77 2850.33 1897.37 2847.88 1897.95 2845.41C1859.05 2841.07 1822.26 2825.47 1792.1 2800.54Z" fill="white"/>
<path d="M1726.09 2882.01C1723.99 2880.41 1721.95 2878.75 1719.93 2877.06C1717.78 2875.25 1715.65 2873.4 1713.57 2871.51C1681.19 2841.91 1659.27 2802.61 1651.09 2759.52C1642.92 2716.42 1648.92 2671.83 1668.22 2632.43C1664.92 2633.54 1661.65 2634.62 1658.4 2635.78C1640.33 2676.15 1635.44 2721.2 1644.44 2764.51C1653.43 2807.83 1675.85 2847.2 1708.51 2877.05C1710.59 2878.95 1712.69 2880.82 1714.85 2882.58C1716.87 2884.32 1718.91 2885.98 1720.98 2887.61C1762.99 2920.31 1815.85 2935.82 1868.87 2931.01C1870.16 2928.43 1871.35 2925.8 1872.55 2923.14C1820.24 2928.99 1767.7 2914.24 1726.09 2882.01Z" fill="white"/>
<path d="M1444.4 2997.06L1519.49 2997.05L1555.21 2707.49L1444.39 2707.49L1444.4 2997.06Z" fill="#FFB6B6"/>
<path d="M1425.25 2972.55L1573.13 2972.54H1573.14C1598.13 2972.54 1622.1 2982.47 1639.77 3000.14C1657.45 3017.81 1667.38 3041.77 1667.38 3066.76V3069.82L1425.25 3069.83L1425.25 2972.55Z" fill="#2F2E41"/>
<path d="M850.277 2997.06L925.369 2997.05L961.09 2707.49L850.265 2707.49L850.277 2997.06Z" fill="#FFB6B6"/>
<path d="M831.124 2972.55L979.006 2972.54H979.012C1004.01 2972.54 1027.98 2982.47 1045.65 3000.14C1063.32 3017.81 1073.25 3041.77 1073.25 3066.76V3069.82L831.128 3069.83L831.124 2972.55Z" fill="#2F2E41"/>
<path d="M977.628 1807.63L927.017 1854.2L869.975 2416.8L831.578 2864.77L947.615 2880.41L1229.07 2114.99L1435.01 2876.78L1573.85 2880.41L1481.7 1886.01L977.628 1807.63Z" fill="#2F2E41"/>
<path d="M1222.2 975.74C1301.82 975.74 1366.36 911.215 1366.36 831.618C1366.36 752.021 1301.82 687.496 1222.2 687.496C1142.59 687.496 1078.04 752.021 1078.04 831.618C1078.04 911.215 1142.59 975.74 1222.2 975.74Z" fill="#FFB9B9"/>
<path d="M1148.43 764.698C1148.43 764.698 1131.24 801.882 1199.99 787.009C1199.99 787.009 1225.77 801.883 1225.77 779.572C1225.77 779.572 1260.14 816.756 1268.73 794.446C1277.33 772.135 1294.51 801.883 1294.51 801.883L1311.7 764.698L1328.89 787.009H1389.04C1389.04 787.009 1406.23 638.271 1199.99 653.144C993.747 668.018 1095.21 903.679 1095.21 903.679C1095.21 903.679 1096.87 861.378 1114.05 883.689C1131.24 905.999 1148.43 764.698 1148.43 764.698Z" fill="#2F2E41"/>
<path d="M1332.04 1022.78L1128.76 1010.06L947.614 1058.1L975.073 1524.78L927.02 1854.2C927.02 1854.2 1190.67 2015.32 1489.93 1888.52L1461.5 1813.76C1461.5 1813.76 1460.53 1699.34 1436.51 1676.94C1412.5 1654.55 1414.42 1469.87 1414.42 1469.87L1503.66 1126.73L1332.04 1022.78Z" fill="#3F3D56"/>
<path d="M996.005 1072.82L947.614 1058.1C947.614 1058.1 872.251 1060.61 833.065 1146.32C793.88 1232.03 769.38 1354.5 769.38 1354.5L1018.26 1363.5L996.005 1072.82Z" fill="#3F3D56"/>
<path d="M1573.69 1890.95L1565.63 1385.12L1458.1 1401.24L1481.85 1880.48C1472.08 1888.51 1464.88 1899.23 1461.17 1911.31C1457.45 1923.4 1457.38 1936.31 1460.95 1948.44C1464.53 1960.57 1471.61 1971.37 1481.29 1979.5C1490.97 1987.63 1502.84 1992.74 1515.41 1994.17C1527.97 1995.6 1540.68 1993.3 1551.95 1987.55C1563.21 1981.81 1572.53 1972.87 1578.75 1961.86C1584.97 1950.85 1587.8 1938.25 1586.9 1925.64C1586 1913.03 1581.4 1900.96 1573.69 1890.95Z" fill="#FFB9B9"/>
<path d="M1443.13 1170.8L1503.66 1126.73C1503.66 1126.73 1619.96 1217.66 1620.36 1417.74L1458.1 1457.08L1366.36 1325.16L1443.13 1170.8Z" fill="#3F3D56"/>
<path d="M5893.01 2996.77L5968.1 2996.76L6003.82 2707.2L5893 2707.21L5893.01 2996.77Z" fill="#9E616A"/>
<path d="M5873.86 2972.26L6021.74 2972.25C6046.73 2972.25 6070.71 2982.18 6088.38 2999.85C6106.06 3017.52 6115.98 3041.48 6115.99 3066.47V3069.53L5873.86 3069.54L5873.86 2972.26Z" fill="#2F2E41"/>
<path d="M5448.56 2932.93L5520.15 2955.57L5641.57 2690.26L5535.9 2656.85L5448.56 2932.93Z" fill="#9E616A"/>
<path d="M5437.69 2903.78L5578.68 2948.37C5602.51 2955.91 5622.38 2972.6 5633.9 2994.78C5645.42 3016.95 5647.65 3042.79 5640.12 3066.62L5639.19 3069.54L5408.34 2996.54L5437.69 2903.78Z" fill="#2F2E41"/>
<path d="M5617.63 1674.29L5575.96 1791.79L5574.78 2426.1L5456.61 2860.39L5601.67 2900.86L5761.91 2491.37L5813.3 2131.69L5881.03 2493.46L5871.71 2923.45H6023.91L6035.4 2260.83C6038.62 2074.74 6006.05 1889.76 5939.46 1715.95L5617.63 1674.29Z" fill="#2F2E41"/>
<path d="M5568 1198.35H5814.01L5916.8 1301.12L5947.51 1725.91L5575.96 1785.68L5456.61 1380.38L5521.61 1208.12L5568 1198.35Z" fill="#394A39"/>
<path d="M5479.54 1384.43L5100.77 1241.96L5090.91 1183.06L5329.78 980.99L5409.29 1040.61L5265.18 1198.35L5521.61 1208.12L5479.54 1384.43Z" fill="#394A39"/>
<path d="M5375.72 1063.64C5409.55 1063.64 5436.97 1036.22 5436.97 1002.41C5436.97 968.586 5409.55 941.171 5375.72 941.171C5341.89 941.171 5314.47 968.586 5314.47 1002.41C5314.47 1036.22 5341.89 1063.64 5375.72 1063.64Z" fill="#9E616A"/>
<path d="M5517.77 1079.55L5545.45 954.776C5555.32 910.469 5582.38 871.892 5620.69 847.523C5658.99 823.153 5705.41 814.985 5749.74 824.813C5794.06 834.64 5832.67 861.66 5857.09 899.935C5881.5 938.209 5889.71 984.607 5879.92 1028.93L5852.24 1153.7C5850.91 1159.66 5847.28 1164.84 5842.13 1168.12C5836.99 1171.39 5830.75 1172.49 5824.8 1171.18L5535.25 1106.99C5529.3 1105.66 5524.11 1102.02 5520.84 1096.88C5517.56 1091.74 5516.46 1085.5 5517.77 1079.55Z" fill="#2F2E41"/>
<path d="M5673.49 1131.54C5742.85 1131.54 5799.08 1075.32 5799.08 1005.98C5799.08 936.636 5742.85 880.421 5673.49 880.421C5604.13 880.421 5547.9 936.636 5547.9 1005.98C5547.9 1075.32 5604.13 1131.54 5673.49 1131.54Z" fill="#9E616A"/>
<path d="M5503.67 955.986C5511.49 920.93 5532.89 890.406 5563.19 871.11C5593.49 851.814 5630.21 845.322 5665.3 853.059L5690.26 858.593C5725.32 866.409 5755.86 887.811 5775.16 918.104C5794.46 948.397 5800.95 985.107 5793.21 1020.18L5792.66 1022.68L5739.91 1010.98L5733.09 956.625L5718.32 1006.19L5691.06 1000.15L5687.62 972.725L5680.16 997.735L5503.11 958.482L5503.67 955.986Z" fill="#2F2E41"/>
<path d="M5630.48 1142.82C5628.75 1138.92 5628.15 1134.61 5628.76 1130.38C5629.37 1126.16 5631.16 1122.19 5633.93 1118.94C5671.54 1074.5 5729.19 989.776 5692.75 921.56L5690.13 916.658L5832.84 948.299L5785.32 1162.51L5650.61 1156.63C5649.24 1156.57 5647.89 1156.39 5646.55 1156.1C5643.01 1155.32 5639.71 1153.7 5636.92 1151.39C5634.12 1149.09 5631.92 1146.15 5630.48 1142.82Z" fill="#2F2E41"/>
<path d="M3037.74 1271.96H1094.19C1079.44 1271.96 1064.83 1274.87 1051.2 1280.51C1037.57 1286.15 1025.18 1294.43 1014.75 1304.86C1004.32 1315.29 996.044 1327.67 990.398 1341.3C984.752 1354.92 981.846 1369.53 981.846 1384.28V1851.59C981.846 1866.34 984.751 1880.94 990.397 1894.57C996.043 1908.2 1004.32 1920.58 1014.75 1931.01C1025.18 1941.44 1037.57 1949.71 1051.2 1955.36C1064.83 1961 1079.44 1963.91 1094.19 1963.91H1122.72V2048.33C1122.72 2053.46 1124.24 2058.46 1127.09 2062.72C1129.93 2066.98 1133.98 2070.3 1138.71 2072.26C1143.45 2074.22 1148.66 2074.74 1153.68 2073.74C1158.71 2072.74 1163.33 2070.27 1166.95 2066.65L1269.72 1963.91H3037.74C3052.5 1963.91 3067.11 1961 3080.74 1955.36C3094.37 1949.71 3106.75 1941.44 3117.19 1931.01C3127.62 1920.58 3135.89 1908.2 3141.54 1894.57C3147.19 1880.94 3150.09 1866.34 3150.09 1851.59V1384.28C3150.09 1369.53 3147.19 1354.92 3141.54 1341.3C3135.89 1327.67 3127.62 1315.29 3117.19 1304.86C3106.75 1294.43 3094.37 1286.15 3080.74 1280.51C3067.11 1274.87 3052.5 1271.96 3037.74 1271.96Z" fill="#E6E6E6"/>
<path d="M2570.32 1905.73H1094.19C1079.83 1905.72 1066.07 1900.01 1055.91 1889.85C1045.76 1879.7 1040.05 1865.94 1040.03 1851.58V1384.28C1040.05 1369.92 1045.76 1356.16 1055.91 1346.01C1066.07 1335.86 1079.83 1330.15 1094.19 1330.13H3037.74C3052.1 1330.15 3065.87 1335.86 3076.02 1346.01C3086.18 1356.16 3091.89 1369.93 3091.9 1384.28C3091.75 1522.53 3036.74 1655.07 2938.96 1752.83C2841.18 1850.59 2708.6 1905.58 2570.32 1905.73Z" fill="white"/>
<path d="M2478.38 1431.17H1657.64C1637.34 1431.17 1620.89 1447.62 1620.89 1467.91V1467.91C1620.89 1488.2 1637.34 1504.65 1657.64 1504.65H2478.38C2498.68 1504.65 2515.13 1488.2 2515.13 1467.91C2515.13 1447.62 2498.68 1431.17 2478.38 1431.17Z" fill="#394A39"/>
<path d="M2652.95 1578.13H1483.07C1462.78 1578.13 1446.32 1594.58 1446.32 1614.87V1614.87C1446.32 1635.16 1462.78 1651.61 1483.07 1651.61H2652.95C2673.24 1651.61 2689.7 1635.16 2689.7 1614.87C2689.7 1594.58 2673.24 1578.13 2652.95 1578.13Z" fill="#E6E6E6"/>
<path d="M2652.95 1725.09H1483.07C1462.78 1725.09 1446.32 1741.54 1446.32 1761.83V1761.83C1446.32 1782.12 1462.78 1798.57 1483.07 1798.57H2652.95C2673.24 1798.57 2689.7 1782.12 2689.7 1761.83C2689.7 1741.54 2673.24 1725.09 2652.95 1725.09Z" fill="#E6E6E6"/>
<path d="M6992.25 1597.34H5586.74C5576.07 1597.34 5565.51 1599.44 5555.65 1603.52C5545.8 1607.6 5536.84 1613.58 5529.29 1621.13C5521.75 1628.67 5515.77 1637.62 5511.68 1647.48C5507.6 1657.33 5505.5 1667.89 5505.5 1678.56V2016.5C5505.5 2027.17 5507.6 2037.73 5511.68 2047.59C5515.77 2057.44 5521.75 2066.39 5529.29 2073.94C5536.84 2081.48 5545.8 2087.46 5555.65 2091.54C5565.51 2095.63 5576.07 2097.73 5586.74 2097.73H5607.37V2158.78C5607.37 2162.49 5608.47 2166.11 5610.53 2169.19C5612.59 2172.27 5615.52 2174.67 5618.94 2176.09C5622.36 2177.51 5626.13 2177.88 5629.77 2177.15C5633.4 2176.43 5636.74 2174.65 5639.36 2172.03L5713.68 2097.73H6992.25C7002.92 2097.73 7013.48 2095.63 7023.34 2091.54C7033.2 2087.46 7042.15 2081.48 7049.7 2073.94C7057.24 2066.39 7063.23 2057.44 7067.31 2047.59C7071.39 2037.73 7073.49 2027.17 7073.49 2016.5V1678.56C7073.49 1667.89 7071.39 1657.33 7067.31 1647.48C7063.23 1637.62 7057.24 1628.67 7049.7 1621.13C7042.15 1613.58 7033.2 1607.6 7023.34 1603.52C7013.48 1599.44 7002.92 1597.34 6992.25 1597.34Z" fill="#E6E6E6"/>
<path d="M6992.25 2056.51H5586.74C5576.13 2056.5 5565.96 2052.28 5558.46 2044.78C5550.96 2037.28 5546.74 2027.11 5546.73 2016.5V1678.56C5546.74 1667.95 5550.96 1657.79 5558.46 1650.29C5565.96 1642.79 5576.13 1638.57 5586.74 1638.56H6654.22C6754.45 1638.67 6850.54 1678.53 6921.41 1749.38C6992.29 1820.23 7032.15 1916.3 7032.26 2016.5C7032.25 2027.11 7028.03 2037.28 7020.53 2044.78C7013.03 2052.28 7002.86 2056.5 6992.25 2056.51Z" fill="white"/>
<path d="M6587.74 1712.47H5994.21C5979.53 1712.47 5967.63 1724.37 5967.63 1739.04C5967.63 1753.71 5979.53 1765.61 5994.21 1765.61H6587.74C6602.42 1765.61 6614.32 1753.71 6614.32 1739.04C6614.32 1724.37 6602.42 1712.47 6587.74 1712.47Z" fill="#394A39"/>
<path d="M6713.98 1818.75H5867.97C5853.29 1818.75 5841.39 1830.64 5841.39 1845.32C5841.39 1859.99 5853.29 1871.89 5867.97 1871.89H6713.98C6728.65 1871.89 6740.55 1859.99 6740.55 1845.32C6740.55 1830.64 6728.65 1818.75 6713.98 1818.75Z" fill="#E6E6E6"/>
<path d="M6713.98 1925.03H5867.97C5853.29 1925.03 5841.39 1936.92 5841.39 1951.6C5841.39 1966.27 5853.29 1978.16 5867.97 1978.16H6713.98C6728.65 1978.16 6740.55 1966.27 6740.55 1951.6C6740.55 1936.92 6728.65 1925.03 6713.98 1925.03Z" fill="#E6E6E6"/>
<path d="M3994.25 409.394H5399.75C5410.42 409.394 5420.99 411.494 5430.84 415.576C5440.7 419.658 5449.66 425.641 5457.2 433.184C5464.74 440.726 5470.73 449.681 5474.81 459.535C5478.9 469.39 5481 479.952 5481 490.619V828.559C5481 839.226 5478.9 849.788 5474.81 859.643C5470.73 869.497 5464.74 878.451 5457.2 885.994C5449.66 893.536 5440.7 899.519 5430.84 903.601C5420.99 907.683 5410.42 909.784 5399.75 909.784H5379.12V970.839C5379.12 974.544 5378.02 978.165 5375.96 981.246C5373.9 984.326 5370.98 986.727 5367.55 988.145C5364.13 989.563 5360.36 989.934 5356.73 989.211C5353.09 988.488 5349.76 986.704 5347.14 984.084L5272.82 909.784H3994.25C3983.58 909.784 3973.01 907.683 3963.15 903.601C3953.3 899.519 3944.34 893.537 3936.8 885.994C3929.25 878.452 3923.27 869.497 3919.18 859.643C3915.1 849.788 3913 839.226 3913 828.559V490.619C3913 479.952 3915.1 469.39 3919.18 459.535C3923.27 449.681 3929.25 440.726 3936.8 433.184C3944.34 425.641 3953.3 419.658 3963.15 415.576C3973.01 411.494 3983.58 409.394 3994.25 409.394Z" fill="#E6E6E6"/>
<path d="M5399.75 868.563H4332.28C4232.05 868.45 4135.96 828.595 4065.08 757.742C3994.21 686.889 3954.35 590.824 3954.23 490.621C3954.24 480.014 3958.46 469.845 3965.96 462.345C3973.47 454.845 3983.64 450.625 3994.25 450.613H5399.75C5410.36 450.625 5420.53 454.843 5428.03 462.343C5435.54 469.843 5439.76 480.012 5439.77 490.618V828.557C5439.76 839.164 5435.54 849.333 5428.03 856.833C5420.53 864.333 5410.36 868.551 5399.75 868.563Z" fill="white"/>
<path d="M4398.76 577.667L4992.29 577.667C5006.97 577.667 5018.87 565.771 5018.87 551.097C5018.87 536.423 5006.97 524.528 4992.29 524.528L4398.76 524.528C4384.08 524.528 4372.18 536.423 4372.18 551.097C4372.18 565.771 4384.08 577.667 4398.76 577.667Z" fill="#394A39"/>
<path d="M4272.52 683.944L5118.53 683.944C5133.2 683.944 5145.1 672.049 5145.1 657.375C5145.1 642.701 5133.2 630.805 5118.53 630.805L4272.52 630.805C4257.84 630.805 4245.94 642.701 4245.94 657.375C4245.94 672.049 4257.84 683.944 4272.52 683.944Z" fill="#E6E6E6"/>
<path d="M4272.52 790.222L5118.53 790.222C5133.2 790.222 5145.1 778.326 5145.1 763.652C5145.1 748.978 5133.2 737.083 5118.53 737.083L4272.52 737.083C4257.84 737.083 4245.94 748.978 4245.94 763.652C4245.94 778.326 4257.84 790.222 4272.52 790.222Z" fill="#E6E6E6"/>
<path d="M1188.94 1262.65C1188.94 1245.6 1182.17 1229.24 1170.1 1217.19C1158.04 1205.13 1141.69 1198.35 1124.63 1198.35C1107.57 1198.35 1091.21 1205.13 1079.15 1217.19C1067.09 1229.24 1060.32 1245.6 1060.32 1262.65C1060.32 1263.28 1060.39 1263.89 1060.41 1264.51L947.615 1377.28L956.192 1357.56L827.567 1351.44L808.803 1487.21C807.16 1499.74 809.448 1512.48 815.354 1523.65C821.259 1534.83 830.49 1543.9 841.771 1549.61C853.053 1555.32 865.829 1557.38 878.335 1555.52C890.842 1553.66 902.462 1547.96 911.591 1539.22L1133.93 1326.2C1149.2 1323.97 1163.17 1316.33 1173.27 1304.66C1183.37 1292.99 1188.93 1278.08 1188.94 1262.65Z" fill="#FFB9B9"/>
<path d="M5804.23 1200.92L6204.89 1257.88L6227.29 1313.23L6037.94 1562.29L5947.39 1521.33L6053.85 1336.09L5801.4 1382.17L5804.23 1200.92Z" fill="#394A39"/>
<path d="M5982.09 1633.12C6015.92 1633.12 6043.34 1605.7 6043.34 1571.88C6043.34 1538.06 6015.92 1510.65 5982.09 1510.65C5948.27 1510.65 5920.84 1538.06 5920.84 1571.88C5920.84 1605.7 5948.27 1633.12 5982.09 1633.12Z" fill="#9E616A"/>
</svg>
