<svg width="686" height="716" viewBox="0 0 686 716" fill="none" xmlns="http://www.w3.org/2000/svg">
<path d="M681.691 151.702C677.291 157.362 654.311 165.812 654.311 165.812C654.311 165.812 656.801 141.452 661.201 135.812C662.189 134.322 663.474 133.052 664.976 132.082C666.478 131.111 668.163 130.461 669.927 130.172C671.692 129.882 673.497 129.96 675.23 130.399C676.963 130.839 678.586 131.631 679.999 132.727C681.412 133.823 682.584 135.198 683.441 136.767C684.298 138.336 684.822 140.065 684.981 141.846C685.14 143.626 684.93 145.421 684.363 147.117C683.797 148.813 682.887 150.373 681.691 151.702Z" fill="#D3D3D3"/>
<path d="M674.271 196.192C667.511 198.552 643.621 193.192 643.621 193.192C643.621 193.192 658.951 174.092 665.711 171.732C667.348 171.034 669.111 170.681 670.891 170.693C672.671 170.705 674.429 171.082 676.057 171.801C677.685 172.52 679.148 173.566 680.355 174.874C681.562 176.181 682.488 177.723 683.076 179.403C683.663 181.083 683.899 182.866 683.769 184.641C683.639 186.416 683.146 188.145 682.321 189.722C681.495 191.299 680.355 192.689 678.97 193.807C677.585 194.925 675.986 195.747 674.271 196.222V196.192Z" fill="#D3D3D3"/>
<path d="M631.941 249.182C624.941 247.802 607.021 231.082 607.021 231.082C607.021 231.082 629.891 222.342 636.921 223.722C638.683 223.952 640.38 224.54 641.906 225.452C643.432 226.363 644.755 227.578 645.793 229.021C646.831 230.464 647.562 232.104 647.941 233.841C648.32 235.578 648.339 237.374 647.996 239.118C647.654 240.862 646.957 242.517 645.95 243.982C644.942 245.446 643.645 246.688 642.138 247.631C640.632 248.575 638.947 249.199 637.19 249.465C635.433 249.732 633.639 249.636 631.921 249.182H631.941Z" fill="#D3D3D3"/>
<path d="M590.891 282.062C583.731 281.892 563.271 268.442 563.271 268.442C563.271 268.442 584.341 255.952 591.501 256.122C594.793 256.41 597.851 257.94 600.055 260.403C602.258 262.865 603.442 266.074 603.364 269.378C603.286 272.681 601.954 275.831 599.637 278.187C597.32 280.543 594.192 281.929 590.891 282.062Z" fill="#D3D3D3"/>
<path d="M621.251 177.552C622.251 184.642 637.991 203.412 637.991 203.412C637.991 203.412 647.991 181.032 646.991 173.942C646.861 172.166 646.368 170.437 645.542 168.86C644.716 167.283 643.575 165.892 642.19 164.774C640.805 163.656 639.205 162.835 637.489 162.36C635.774 161.886 633.979 161.769 632.216 162.017C630.454 162.264 628.76 162.872 627.242 163.8C625.723 164.729 624.412 165.96 623.388 167.416C622.365 168.873 621.652 170.524 621.293 172.267C620.933 174.011 620.936 175.809 621.301 177.552H621.251Z" fill="#D3D3D3"/>
<path d="M573.691 216.612C576.771 223.082 597.401 236.282 597.401 236.282C597.401 236.282 600.201 211.952 597.121 205.482C595.507 202.61 592.864 200.458 589.724 199.46C586.585 198.462 583.184 198.693 580.209 200.107C577.234 201.52 574.906 204.01 573.696 207.074C572.486 210.138 572.484 213.547 573.691 216.612Z" fill="#D3D3D3"/>
<path d="M532.751 260.922C534.691 267.812 552.751 284.312 552.751 284.312C552.751 284.312 559.691 260.802 557.691 253.902C557.308 252.177 556.577 250.548 555.543 249.116C554.51 247.683 553.195 246.476 551.679 245.568C550.164 244.66 548.479 244.071 546.728 243.836C544.977 243.601 543.196 243.726 541.495 244.202C539.794 244.679 538.207 245.497 536.833 246.607C535.458 247.717 534.324 249.095 533.5 250.658C532.676 252.221 532.18 253.935 532.04 255.696C531.901 257.458 532.122 259.229 532.691 260.902L532.751 260.922Z" fill="#D3D3D3"/>
<path d="M104.13 54.7479C102 61.5879 83.4404 77.5679 83.4404 77.5679C83.4404 77.5679 77.2404 53.8779 79.3704 47.0379C79.7773 45.2989 80.5382 43.6624 81.6056 42.2305C82.673 40.7986 84.024 39.602 85.5743 38.7153C87.1246 37.8286 88.8411 37.2709 90.6165 37.0769C92.3919 36.8829 94.1882 37.0568 95.8934 37.5878C97.5987 38.1188 99.1762 38.9955 100.528 40.1631C101.879 41.3307 102.975 42.7643 103.748 44.3744C104.521 45.9845 104.954 47.7366 105.02 49.5214C105.085 51.3061 104.783 53.0853 104.13 54.7479Z" fill="#D3D3D3"/>
<path d="M112.81 99.0079C107.3 103.598 83.0404 106.918 83.0404 106.918C83.0404 106.918 90.7004 83.6579 96.2104 79.0779C98.8797 77.151 102.181 76.3086 105.447 76.7207C108.713 77.1329 111.701 78.7689 113.808 81.2985C115.915 83.8282 116.984 87.063 116.799 90.3499C116.614 93.6368 115.188 96.731 112.81 99.0079Z" fill="#D3D3D3"/>
<path d="M91.7404 163.478C84.6704 164.648 62.0504 155.268 62.0504 155.268C62.0504 155.268 80.4104 139.058 87.4704 137.888C89.2022 137.48 90.9993 137.433 92.7504 137.748C94.5014 138.063 96.1691 138.734 97.6502 139.72C99.1314 140.705 100.394 141.985 101.361 143.478C102.328 144.972 102.978 146.648 103.271 148.403C103.564 150.158 103.493 151.954 103.064 153.68C102.634 155.407 101.855 157.027 100.774 158.44C99.6931 159.853 98.3336 161.03 96.7798 161.896C95.2259 162.763 93.5107 163.301 91.7404 163.478Z" fill="#D3D3D3"/>
<path d="M64.8304 208.658C58.0604 211.018 34.1804 205.588 34.1804 205.588C34.1804 205.588 49.5404 186.518 56.3004 184.148C57.9388 183.452 59.7027 183.1 61.4826 183.114C63.2626 183.128 65.0207 183.507 66.6481 184.228C68.2755 184.949 69.7375 185.997 70.9435 187.306C72.1495 188.615 73.0737 190.158 73.659 191.839C74.2443 193.52 74.4781 195.304 74.3459 197.079C74.2138 198.854 73.7186 200.583 72.8909 202.159C72.0632 203.735 70.9206 205.124 69.5341 206.24C68.1476 207.356 66.5467 208.176 64.8304 208.648V208.658Z" fill="#D3D3D3"/>
<path d="M56.6204 100.148C60.0404 106.448 81.3604 118.498 81.3604 118.498C81.3604 118.498 82.8304 94.0579 79.3604 87.7579C78.6417 86.1022 77.5861 84.6144 76.2608 83.3891C74.9354 82.1638 73.3695 81.2278 71.6626 80.6409C69.9557 80.054 68.1454 79.829 66.3468 79.9802C64.5482 80.1314 62.8007 80.6554 61.2157 81.519C59.6308 82.3826 58.243 83.5667 57.1408 84.9961C56.0386 86.4254 55.2461 88.0686 54.8139 89.821C54.3816 91.5734 54.319 93.3967 54.63 95.1747C54.9411 96.9526 55.6189 98.6463 56.6204 100.148Z" fill="#D3D3D3"/>
<path d="M25.8104 153.388C30.9604 158.388 54.9104 163.498 54.9104 163.498C54.9104 163.498 49.0004 139.728 43.8504 134.748C42.6644 133.398 41.2114 132.308 39.5831 131.548C37.9548 130.787 36.1866 130.373 34.39 130.331C32.5934 130.288 30.8075 130.619 29.1451 131.301C27.4827 131.984 25.98 133.004 24.7316 134.297C23.4833 135.589 22.5165 137.127 21.8924 138.812C21.2682 140.497 21.0003 142.294 21.1054 144.088C21.2105 145.882 21.6865 147.634 22.5032 149.235C23.3199 150.836 24.4596 152.25 25.8504 153.388H25.8104Z" fill="#D3D3D3"/>
<path d="M2.97038 209.248C7.20038 215.028 29.9704 224.128 29.9704 224.128C29.9704 224.128 28.1604 199.698 23.9704 193.918C23.0158 192.416 21.7631 191.127 20.29 190.129C18.8168 189.131 17.1545 188.447 15.406 188.117C13.6575 187.788 11.86 187.821 10.1249 188.215C8.38968 188.608 6.75373 189.354 5.31834 190.405C3.88295 191.456 2.67865 192.791 1.78001 194.327C0.881363 195.862 0.307516 197.566 0.0939732 199.333C-0.119569 201.099 0.0317389 202.89 0.538553 204.596C1.04537 206.301 1.89688 207.885 3.04038 209.248H2.97038Z" fill="#D3D3D3"/>
<path d="M387.12 515.997C384.99 522.807 366.43 538.807 366.43 538.807C366.43 538.807 360.23 515.107 362.36 508.267C363.557 505.203 365.872 502.707 368.837 501.283C371.802 499.858 375.197 499.61 378.337 500.589C381.477 501.568 384.13 503.702 385.76 506.559C387.389 509.417 387.875 512.786 387.12 515.987V515.997Z" fill="#D3D3D3"/>
<path d="M395.78 560.257C390.27 564.837 366.01 568.167 366.01 568.167C366.01 568.167 373.67 544.907 379.18 540.317C381.849 538.373 385.158 537.518 388.435 537.925C391.712 538.332 394.711 539.971 396.823 542.508C398.936 545.046 400.004 548.293 399.81 551.589C399.616 554.885 398.175 557.984 395.78 560.257Z" fill="#D3D3D3"/>
<path d="M374.78 624.717C367.71 625.897 345.09 616.517 345.09 616.517C345.09 616.517 363.45 600.307 370.51 599.127C373.793 598.799 377.079 599.732 379.7 601.737C382.321 603.742 384.082 606.668 384.625 609.923C385.168 613.178 384.453 616.518 382.625 619.265C380.796 622.012 377.992 623.961 374.78 624.717Z" fill="#D3D3D3"/>
<path d="M347.78 669.907C341.01 672.257 317.13 666.837 317.13 666.837C317.13 666.837 332.53 647.807 339.29 645.407C340.931 644.699 342.701 644.337 344.489 644.344C346.277 644.35 348.044 644.726 349.68 645.447C351.317 646.167 352.787 647.218 353.998 648.533C355.21 649.847 356.138 651.398 356.723 653.087C357.308 654.776 357.539 656.568 357.401 658.351C357.262 660.133 356.757 661.868 355.918 663.447C355.079 665.025 353.923 666.414 352.522 667.525C351.122 668.637 349.507 669.448 347.78 669.907Z" fill="#D3D3D3"/>
<path d="M339.61 561.387C343.03 567.687 364.35 579.737 364.35 579.737C364.35 579.737 365.82 555.297 362.35 548.997C360.583 546.215 357.826 544.208 354.636 543.382C351.446 542.555 348.061 542.971 345.166 544.545C342.271 546.119 340.082 548.733 339.041 551.86C338 554.987 338.185 558.392 339.56 561.387H339.61Z" fill="#D3D3D3"/>
<path d="M308.78 614.637C313.93 619.637 337.88 624.737 337.88 624.737C337.88 624.737 331.97 600.977 326.82 595.987C324.295 593.908 321.079 592.856 317.813 593.043C314.548 593.23 311.472 594.64 309.201 596.994C306.929 599.347 305.629 602.471 305.558 605.741C305.487 609.011 306.652 612.188 308.82 614.637H308.78Z" fill="#D3D3D3"/>
<path d="M285.96 670.497C290.19 676.277 312.96 685.377 312.96 685.377C312.96 685.377 311.15 660.947 306.96 655.167C304.839 652.639 301.836 651.012 298.56 650.616C295.284 650.22 291.98 651.085 289.318 653.034C286.656 654.984 284.835 657.873 284.225 661.116C283.614 664.359 284.259 667.713 286.03 670.497H285.96Z" fill="#D3D3D3"/>
<path d="M494.403 58.5C482.243 74.17 418.623 97.57 418.623 97.57C418.623 97.57 425.523 30.13 437.683 14.47C440.534 10.6389 444.12 7.41503 448.232 4.98704C452.344 2.55906 456.898 0.975786 461.63 0.329908C466.361 -0.31597 471.174 -0.0114738 475.786 1.22558C480.398 2.46264 484.717 4.60739 488.49 7.53427C492.263 10.4611 495.414 14.1113 497.759 18.2711C500.104 22.4309 501.595 27.0167 502.146 31.76C502.697 36.5033 502.295 41.3088 500.966 45.8952C499.636 50.4815 497.405 54.7566 494.403 58.47V58.5Z" fill="#D3D3D3"/>
<path d="M473.923 181.66C455.203 188.2 389.073 173.26 389.073 173.26C389.073 173.26 431.523 120.41 450.243 113.87C454.694 112.315 459.408 111.652 464.116 111.919C468.823 112.186 473.432 113.377 477.678 115.425C481.925 117.473 485.727 120.338 488.867 123.855C492.007 127.373 494.423 131.474 495.978 135.925C497.533 140.376 498.196 145.09 497.929 149.797C497.662 154.505 496.471 159.113 494.423 163.36C492.375 167.607 489.51 171.409 485.993 174.549C482.476 177.689 478.374 180.105 473.923 181.66Z" fill="#D3D3D3"/>
<path d="M356.773 328.33C337.303 324.53 287.773 278.25 287.773 278.25C287.773 278.25 351.103 254.05 370.563 257.86C375.19 258.765 379.594 260.572 383.523 263.179C387.451 265.785 390.828 269.14 393.46 273.052C396.092 276.964 397.928 281.355 398.863 285.977C399.798 290.598 399.813 295.358 398.908 299.985C398.003 304.612 396.196 309.016 393.589 312.944C390.983 316.873 387.628 320.25 383.716 322.882C379.805 325.514 375.413 327.35 370.792 328.285C366.17 329.219 361.41 329.235 356.783 328.33H356.773Z" fill="#D3D3D3"/>
<path d="M243.133 419.35C223.313 418.89 166.663 381.65 166.663 381.65C166.663 381.65 224.983 347.1 244.813 347.56C249.527 347.67 254.173 348.708 258.486 350.614C262.798 352.52 266.694 355.256 269.949 358.667C273.204 362.078 275.755 366.097 277.457 370.495C279.159 374.892 279.979 379.581 279.868 384.295C279.758 389.009 278.72 393.655 276.814 397.967C274.909 402.28 272.172 406.175 268.761 409.431C265.35 412.686 261.331 415.237 256.934 416.939C252.536 418.641 247.847 419.46 243.133 419.35Z" fill="#D3D3D3"/>
<path d="M327.203 130.12C329.963 149.75 373.523 201.69 373.523 201.69C373.523 201.69 401.073 139.75 398.313 120.11C396.852 110.798 391.789 102.434 384.215 96.8221C376.642 91.2106 367.165 88.8019 357.832 90.1158C348.498 91.4297 340.055 96.3609 334.324 103.845C328.594 111.329 326.037 120.767 327.203 130.12Z" fill="#D3D3D3"/>
<path d="M195.633 238.19C204.143 256.12 261.203 292.63 261.203 292.63C261.203 292.63 268.963 225.28 260.443 207.37C258.42 203.112 255.577 199.294 252.078 196.134C248.579 192.975 244.492 190.536 240.05 188.956C235.608 187.376 230.898 186.686 226.19 186.926C221.481 187.166 216.866 188.331 212.608 190.355C208.35 192.379 204.532 195.221 201.373 198.72C198.213 202.219 195.774 206.307 194.194 210.749C192.614 215.19 191.924 219.9 192.164 224.608C192.404 229.317 193.57 233.932 195.593 238.19H195.633Z" fill="#D3D3D3"/>
<path d="M82.2033 360.83C87.5633 379.92 137.683 425.58 137.683 425.58C137.683 425.58 156.683 360.51 151.343 341.42C148.665 332.372 142.533 324.741 134.273 320.179C126.013 315.616 116.289 314.488 107.204 317.039C98.1191 319.589 90.403 325.613 85.7245 333.808C81.046 342.003 79.7811 351.71 82.2033 360.83Z" fill="#D3D3D3"/>
</svg>
